<svg width="20" height="20" viewBox="0 0 20 20" fill="none" xmlns="http://www.w3.org/2000/svg">
<g clip-path="url(#clip0)">
<path d="M18.6698 10.259C18.5893 10.0944 18.5893 9.90558 18.6698 9.74097L19.4157 8.215C19.831 7.36535 19.502 6.35266 18.6666 5.90942L17.1662 5.11333C17.0043 5.02747 16.8933 4.87466 16.8617 4.69423L16.5682 3.02123C16.4048 2.08975 15.5432 1.46382 14.607 1.59628L12.9252 1.83417C12.7437 1.85979 12.5642 1.80143 12.4325 1.67405L11.2118 0.49312C10.5321 -0.164455 9.46725 -0.164494 8.78757 0.49312L7.56679 1.67417C7.43508 1.80159 7.25559 1.85983 7.0741 1.83429L5.39235 1.5964C4.45584 1.46386 3.59451 2.08987 3.43112 3.02135L3.13768 4.69427C3.106 4.87474 2.99502 5.02751 2.83319 5.11341L1.33281 5.9095C0.497422 6.3527 0.168361 7.36547 0.583671 8.21511L1.32957 9.74104C1.41003 9.90569 1.41003 10.0945 1.32957 10.2591L0.583632 11.7851C0.168322 12.6347 0.497382 13.6474 1.33277 14.0906L2.83315 14.8867C2.99502 14.9726 3.106 15.1254 3.13768 15.3058L3.43112 16.9788C3.57986 17.8268 4.30697 18.4215 5.14263 18.4214C5.22493 18.4214 5.30845 18.4156 5.39239 18.4037L7.07414 18.1658C7.25551 18.1401 7.43512 18.1986 7.56683 18.326L8.78757 19.5069C9.12749 19.8357 9.5635 20.0001 9.99967 20.0001C10.4357 20 10.872 19.8356 11.2118 19.5069L12.4325 18.326C12.5643 18.1986 12.7438 18.1404 12.9252 18.1658L14.607 18.4037C15.5436 18.5362 16.4048 17.9103 16.5682 16.9788L16.8617 15.3059C16.8934 15.1254 17.0044 14.9726 17.1662 14.8867L18.6666 14.0906C19.502 13.6474 19.831 12.6347 19.4157 11.785L18.6698 10.259ZM18.1259 13.0716L16.6255 13.8677C16.1472 14.1216 15.8191 14.5731 15.7255 15.1065L15.4321 16.7794C15.3768 17.0946 15.0855 17.3063 14.7685 17.2616L13.0868 17.0237C12.5505 16.9477 12.0198 17.1203 11.6305 17.4968L10.4097 18.6777C10.1798 18.9001 9.81956 18.9001 9.58956 18.6777L8.36882 17.4968C8.03984 17.1785 7.60976 17.0061 7.16078 17.0061C7.07852 17.0061 6.99559 17.0119 6.91254 17.0236L5.23079 17.2615C4.91415 17.3063 4.62255 17.0946 4.56724 16.7794L4.27377 15.1064C4.18017 14.573 3.85213 14.1215 3.37373 13.8677L1.87335 13.0716C1.5907 12.9216 1.47937 12.579 1.61988 12.2915L2.36581 10.7656C2.60362 10.279 2.60362 9.72097 2.36581 9.23441L1.61988 7.70844C1.47937 7.42098 1.5907 7.07836 1.87335 6.9284L3.37373 6.13231C3.85209 5.87845 4.18017 5.42696 4.27373 4.89353L4.56716 3.22057C4.62248 2.90541 4.9138 2.6937 5.23071 2.73846L6.91246 2.97635C7.44859 3.05225 7.97949 2.87971 8.36874 2.50319L9.58952 1.32226C9.81944 1.09984 10.1797 1.09984 10.4097 1.32226L11.6304 2.50319C12.0197 2.87975 12.5505 3.05225 13.0867 2.97635L14.7685 2.73846C15.0851 2.69366 15.3767 2.90541 15.432 3.22057L15.7255 4.89357C15.8191 5.427 16.1471 5.87852 16.6255 6.13231L18.1259 6.9284C18.4085 7.07836 18.5199 7.42098 18.3793 7.70844L17.6334 9.23437C17.3956 9.72089 17.3956 10.279 17.6334 10.7655L18.3793 12.2915C18.5199 12.579 18.4086 12.9217 18.1259 13.0716Z" fill="#D70029"/>
<path d="M14.2146 5.78575C13.9894 5.56051 13.6242 5.56051 13.3989 5.78575L5.78611 13.3986C5.56088 13.6238 5.56088 13.989 5.78611 14.2143C5.89873 14.3269 6.04635 14.3832 6.19392 14.3832C6.3415 14.3832 6.48916 14.3269 6.60173 14.2143L14.2146 6.60144C14.4399 6.37617 14.4399 6.01102 14.2146 5.78575Z" fill="#D70029"/>
<path d="M7.69292 4.80919C6.52683 4.80919 5.57812 5.75789 5.57812 6.92398C5.57812 8.09007 6.52683 9.03877 7.69292 9.03877C8.859 9.03877 9.80771 8.09007 9.80771 6.92398C9.80771 5.75789 8.859 4.80919 7.69292 4.80919ZM7.69292 7.88523C7.16288 7.88523 6.73167 7.45402 6.73167 6.92394C6.73167 6.39391 7.16288 5.9627 7.69292 5.9627C8.22295 5.9627 8.6542 6.39391 8.6542 6.92394C8.65416 7.45402 8.22295 7.88523 7.69292 7.88523Z" fill="#D70029"/>
<path d="M12.3072 10.9613C11.1411 10.9613 10.1924 11.91 10.1924 13.0761C10.1924 14.2421 11.1411 15.1908 12.3072 15.1908C13.4733 15.1908 14.422 14.2421 14.422 13.0761C14.422 11.91 13.4733 10.9613 12.3072 10.9613ZM12.3072 14.0373C11.7771 14.0373 11.3459 13.6061 11.3459 13.0761C11.3459 12.546 11.7771 12.1148 12.3072 12.1148C12.8372 12.1148 13.2684 12.546 13.2684 13.0761C13.2684 13.6061 12.8372 14.0373 12.3072 14.0373Z" fill="#D70029"/>
</g>
<defs>
<clipPath id="clip0">
<rect width="20" height="20" fill="white"/>
</clipPath>
</defs>
</svg>
