<svg width="20" height="20" viewBox="0 0 20 20" fill="none" xmlns="http://www.w3.org/2000/svg">
<g clip-path="url(#clip0)">
<path d="M20 7.93206V7.93031C20 7.91363 19.9991 7.8971 19.9977 7.88066C19.9973 7.87617 19.9967 7.87171 19.9963 7.86722C19.9948 7.85433 19.993 7.84156 19.9908 7.8289C19.99 7.82414 19.9892 7.81937 19.9882 7.81464C19.9851 7.79921 19.9816 7.7839 19.9772 7.76886C19.9768 7.76738 19.9764 7.76585 19.976 7.76437C19.9714 7.74898 19.9661 7.73386 19.9604 7.71894C19.9582 7.71324 19.9557 7.70765 19.9534 7.70199C19.9491 7.69191 19.9445 7.68195 19.9397 7.67214C19.9369 7.66644 19.9342 7.6607 19.9312 7.65507C19.9239 7.64136 19.9161 7.62792 19.9078 7.6148C19.9046 7.60992 19.9012 7.60523 19.8979 7.60042C19.8914 7.59085 19.8846 7.58148 19.8776 7.57234C19.8738 7.56746 19.87 7.56261 19.8661 7.55781C19.8558 7.54535 19.8452 7.53316 19.8338 7.52156C19.8329 7.52066 19.8321 7.51972 19.8312 7.51882C19.8191 7.50652 19.8062 7.49492 19.7929 7.48367C19.7913 7.48226 19.7899 7.4807 19.7882 7.47933L18.7891 6.65023V4.10222C18.7891 3.34835 18.1757 2.73503 17.4219 2.73503H14.0712L11.372 0.494995C10.577 -0.164693 9.42297 -0.164693 8.62797 0.494995L5.92875 2.73499H2.57812C1.82426 2.73499 1.21094 3.34832 1.21094 4.10218V6.65019L0.211758 7.47941C0.210117 7.48078 0.208672 7.48234 0.207031 7.48374C0.193789 7.49499 0.180898 7.5066 0.168789 7.5189C0.167891 7.5198 0.167031 7.52074 0.166133 7.52163C0.154844 7.53324 0.14418 7.54542 0.133906 7.55789C0.129961 7.56265 0.126172 7.56753 0.122383 7.57242C0.115312 7.5816 0.108555 7.59097 0.102031 7.6005C0.09875 7.60531 0.0953125 7.60999 0.0921875 7.61488C0.0838281 7.62796 0.0760547 7.6414 0.06875 7.65515C0.0657422 7.66078 0.0630469 7.66652 0.0602734 7.67222C0.0554297 7.68203 0.0508984 7.69199 0.0466016 7.70206C0.0442187 7.70769 0.0417969 7.71331 0.0396094 7.71902C0.0338281 7.73394 0.0284766 7.74902 0.0239453 7.76445C0.0235156 7.76593 0.0231641 7.76742 0.0227344 7.76894C0.0183984 7.78398 0.0148438 7.79929 0.0117188 7.81472C0.0107813 7.81949 0.00996094 7.82421 0.00914062 7.82898C0.00691406 7.84164 0.00511719 7.85441 0.00371094 7.8673C0.00324219 7.87179 0.00265625 7.87624 0.00226562 7.88074C0.0009375 7.8971 0 7.91363 0 7.93031V7.93206V7.93238V17.8514C0 18.4654 0.259297 19.0196 0.673672 19.4115C0.68543 19.4233 0.697227 19.4349 0.709805 19.4455C1.09094 19.7898 1.59559 19.9998 2.14844 19.9998H17.8516C18.4045 19.9998 18.9091 19.7898 19.2903 19.4454C19.3028 19.4348 19.3145 19.4233 19.3262 19.4116C19.7406 19.0197 20 18.4654 20 17.8514V7.93238C20 7.9323 20 7.93218 20 7.93206ZM2.57812 3.90687H17.4219C17.5296 3.90687 17.6172 3.99449 17.6172 4.10218V8.66007L17.2856 8.93523L10.6237 14.4639C10.2623 14.7637 9.73769 14.7637 9.37633 14.4639L2.71438 8.93527L2.38281 8.66007V4.10218C2.38281 3.99449 2.47043 3.90687 2.57812 3.90687ZM1.17188 17.8514V9.17796L1.42391 9.38714C1.42406 9.38726 1.42422 9.38742 1.42438 9.38753L7.14582 14.1356L1.23187 18.1884C1.19309 18.0834 1.17188 17.9698 1.17188 17.8514ZM8.08348 14.9137L8.62797 15.3656C9.42297 16.0254 10.577 16.0253 11.372 15.3656L11.9165 14.9137L17.6282 18.828H2.37172L8.08348 14.9137ZM12.8542 14.1357L18.5756 9.38753C18.5757 9.38742 18.5759 9.38726 18.5761 9.38714L18.8281 9.17796V17.8514C18.8281 17.9698 18.8069 18.0834 18.7681 18.1884L12.8542 14.1357ZM9.37633 1.39683C9.73769 1.09695 10.2623 1.09695 10.6237 1.39683L12.2362 2.73503H7.76379L9.37633 1.39683Z" fill="#D70029"/>
<path d="M5.13672 6.44512C5.13672 6.76871 5.39906 7.03106 5.72266 7.03106H11.2695C11.5931 7.03106 11.8555 6.76871 11.8555 6.44512C11.8555 6.12152 11.5931 5.85918 11.2695 5.85918H5.72266C5.39906 5.85918 5.13672 6.12152 5.13672 6.44512Z" fill="#D70029"/>
<path d="M5.72266 9.37481H14.2773C14.5503 9.37481 14.779 9.18785 14.8441 8.9352C14.8562 8.88832 14.8633 8.83949 14.8633 8.78887C14.8633 8.46527 14.6009 8.20293 14.2773 8.20293H5.72266C5.39906 8.20293 5.13672 8.46527 5.13672 8.78887C5.13672 8.83949 5.14383 8.88836 5.1559 8.9352C5.22098 9.18789 5.44969 9.37481 5.72266 9.37481Z" fill="#D70029"/>
</g>
<defs>
<clipPath id="clip0">
<rect width="20" height="20" fill="white"/>
</clipPath>
</defs>
</svg>
