<svg width="20" height="20" viewBox="0 0 20 20" fill="none" xmlns="http://www.w3.org/2000/svg">
<g clip-path="url(#clip0)">
<path d="M14.2926 5.19364C14.1566 4.96857 13.8872 4.86161 13.6339 4.93226C13.3804 5.00291 13.2052 5.23362 13.2052 5.49668C13.2052 6.21186 12.6234 6.79353 11.9084 6.79353C11.1932 6.79353 10.6116 6.21186 10.6116 5.49668V0.585945C10.6116 0.348977 10.4687 0.135353 10.2498 0.0445637C10.0308 -0.0460736 9.77873 0.00412788 9.61118 0.171669C9.54557 0.237435 7.98292 1.80894 6.39997 4.18351C5.46659 5.58366 4.72165 6.97251 4.18607 8.31147C3.50766 10.0076 3.16357 11.6316 3.16357 13.138C3.16357 16.9217 6.24189 20 10.0255 20C13.8092 20 16.8875 16.9217 16.8875 13.138C16.8875 10.7161 16.0144 8.04322 14.2926 5.19364ZM10.0255 18.8281C6.8881 18.8281 4.33545 16.2755 4.33545 13.138C4.33545 10.0496 5.98142 6.9278 7.36234 4.85261C8.11079 3.72788 8.86503 2.78001 9.43952 2.10587V5.49668C9.43952 6.85792 10.547 7.9654 11.9082 7.9654C12.7405 7.9654 13.4779 7.55158 13.9253 6.9188C15.114 9.15711 15.7156 11.2448 15.7156 13.138C15.7156 16.2755 13.1631 18.8281 10.0255 18.8281Z" fill="#D70029"/>
<path d="M13.3506 9.88939H10.8402C10.5166 9.88939 10.2543 10.1517 10.2543 10.4752C10.2541 10.7988 10.5166 11.0613 10.8401 11.0613H11.9361L9.43273 13.5645L8.07195 12.2037C7.84322 11.975 7.47213 11.975 7.2434 12.2037L5.91192 13.535C5.68303 13.7639 5.68303 14.1348 5.91176 14.3637C6.14064 14.5926 6.51159 14.5925 6.74047 14.3637L7.65768 13.4467L9.0183 14.8075C9.12817 14.9173 9.27725 14.9791 9.43273 14.9791C9.58807 14.9791 9.73715 14.9173 9.84701 14.8075L12.7646 11.89V12.9857C12.7646 13.3092 13.0269 13.5716 13.3506 13.5716C13.6742 13.5716 13.9365 13.3092 13.9365 12.9857V10.4753C13.9365 10.1517 13.6742 9.88939 13.3506 9.88939Z" fill="#D70029"/>
</g>
<defs>
<clipPath id="clip0">
<rect width="20" height="20" fill="white"/>
</clipPath>
</defs>
</svg>
