<svg width="16" height="16" viewBox="0 0 16 16" fill="none" xmlns="http://www.w3.org/2000/svg">
<path d="M15.7313 7.15262L14.3796 5.92103V1.83719C14.3796 1.57734 14.169 1.36666 13.9091 1.36666H10.6555C10.3957 1.36666 10.185 1.57731 10.185 1.83719V2.09888L8.55259 0.61147C8.2375 0.324314 7.76234 0.324345 7.44737 0.611439L0.268683 7.15265C0.0163077 7.38265 -0.0670985 7.73703 0.056214 8.05543C0.179558 8.37384 0.47987 8.57956 0.821339 8.57956H1.96787V15.1333C1.96787 15.3932 2.17853 15.6039 2.4384 15.6039H6.37318C6.63303 15.6039 6.84371 15.3932 6.84371 15.1333V11.1541H9.15625V15.1334C9.15625 15.3932 9.3669 15.6039 9.62678 15.6039H13.5614C13.8212 15.6039 14.0319 15.3932 14.0319 15.1334V8.57959H15.1787C15.5201 8.57959 15.8205 8.37384 15.9438 8.05547C16.0671 7.73703 15.9837 7.38265 15.7313 7.15262ZM13.5614 7.63853C13.3016 7.63853 13.0909 7.84918 13.0909 8.10906V14.6628H10.0973V10.6836C10.0973 10.4237 9.88665 10.213 9.62681 10.213H6.37318C6.11334 10.213 5.90265 10.4237 5.90265 10.6836V14.6628H2.9089V8.10906C2.9089 7.84922 2.69825 7.63853 2.43837 7.63853H1.13265L8.00003 1.38103L10.3387 3.512C10.4764 3.6375 10.6752 3.66984 10.8457 3.59462C11.0161 3.51931 11.1261 3.3505 11.1261 3.16419V2.30772H13.4386V6.12884C13.4386 6.26125 13.4944 6.38747 13.5922 6.47666L14.8673 7.63853H13.5614Z" fill="#4E4E4E"/>
</svg>
