<svg width="16" height="16" viewBox="0 0 16 16" fill="none" xmlns="http://www.w3.org/2000/svg">
<path d="M7.99951 1.87469C7.74064 1.87469 7.53076 2.08456 7.53076 2.34344C7.53076 2.60231 7.74064 2.81219 7.99951 2.81219C9.55057 2.81219 10.8125 4.07387 10.8125 5.62469C10.8125 5.88356 11.0223 6.09344 11.2812 6.09344C11.5401 6.09344 11.75 5.88356 11.75 5.62469C11.75 3.55694 10.0675 1.87469 7.99951 1.87469Z" fill="#4E4E4E"/>
<path d="M6.79191 0.125942C4.67409 0.568474 2.95691 2.26922 2.50506 4.40019C2.12353 6.19963 2.59369 8.0062 3.79497 9.35667C4.38219 10.0168 4.71894 10.8881 4.71894 11.7497V12.6872C4.71894 13.311 5.12728 13.8409 5.69059 14.0244C5.87584 15.1189 6.82584 15.9997 8.00019 15.9997C9.17422 15.9997 10.1245 15.1192 10.3098 14.0244C10.8731 13.8409 11.2814 13.311 11.2814 12.6872V11.7497C11.2814 10.8864 11.6193 10.0255 12.2327 9.32564C13.1307 8.30126 13.6252 6.98688 13.6252 5.6247C13.6252 2.07579 10.3768 -0.622996 6.79191 0.125942ZM8.00019 15.0622C7.39762 15.0622 6.86931 14.6476 6.67422 14.0903H9.32612C9.13106 14.6476 8.60275 15.0622 8.00019 15.0622ZM10.3439 12.6872C10.3439 12.9457 10.1337 13.1559 9.87519 13.1559H6.12519C5.86672 13.1559 5.65644 12.9457 5.65644 12.6872V12.2184H10.3439V12.6872ZM11.5278 8.70773C10.874 9.45357 10.4718 10.3529 10.3697 11.2809H5.63075C5.52881 10.3524 5.12763 9.44423 4.4955 8.73357C3.49431 7.60807 3.10309 6.09948 3.42219 4.59466C3.79466 2.83798 5.22591 1.41094 6.98369 1.04366C9.98444 0.416567 12.6877 2.67007 12.6877 5.6247C12.6877 6.75945 12.2758 7.85435 11.5278 8.70773Z" fill="#4E4E4E"/>
<path d="M1.40625 5.62469H0.46875C0.209875 5.62469 0 5.83457 0 6.09344C0 6.35232 0.209875 6.56219 0.46875 6.56219H1.40625C1.66513 6.56219 1.875 6.35232 1.875 6.09344C1.875 5.83457 1.66513 5.62469 1.40625 5.62469Z" fill="#4E4E4E"/>
<path d="M1.60032 3.28095L0.93741 2.61804C0.754379 2.43498 0.457566 2.43498 0.274504 2.61804C0.0914414 2.8011 0.0914414 3.09788 0.274504 3.28095L0.93741 3.94385C1.12044 4.12692 1.41725 4.12695 1.60032 3.94385C1.78338 3.76079 1.78338 3.46401 1.60032 3.28095Z" fill="#4E4E4E"/>
<path d="M1.60032 8.24303C1.41725 8.05997 1.12044 8.05997 0.93741 8.24303L0.274504 8.90594C0.0914414 9.089 0.0914414 9.38578 0.274504 9.56884C0.457535 9.7519 0.754348 9.75193 0.93741 9.56884L1.60032 8.90594C1.78338 8.72287 1.78338 8.42609 1.60032 8.24303Z" fill="#4E4E4E"/>
<path d="M15.5312 5.62469H14.5938C14.3349 5.62469 14.125 5.83457 14.125 6.09344C14.125 6.35232 14.3349 6.56219 14.5938 6.56219H15.5312C15.7901 6.56219 16 6.35232 16 6.09344C16 5.83457 15.7901 5.62469 15.5312 5.62469Z" fill="#4E4E4E"/>
<path d="M15.7253 2.61804C15.5423 2.43498 15.2455 2.43498 15.0624 2.61804L14.3995 3.28095C14.2164 3.46401 14.2164 3.76079 14.3995 3.94385C14.5825 4.12688 14.8794 4.12691 15.0624 3.94385L15.7253 3.28095C15.9084 3.09788 15.9084 2.8011 15.7253 2.61804Z" fill="#4E4E4E"/>
<path d="M15.7253 8.90594L15.0624 8.24303C14.8794 8.05997 14.5826 8.05997 14.3995 8.24303C14.2164 8.4261 14.2164 8.72288 14.3995 8.90594L15.0624 9.56885C15.2454 9.75188 15.5423 9.75191 15.7253 9.56885C15.9084 9.38578 15.9084 9.089 15.7253 8.90594Z" fill="#4E4E4E"/>
</svg>
