<svg width="20" height="20" viewBox="0 0 20 20" fill="none" xmlns="http://www.w3.org/2000/svg">
<path d="M20 18.125C20 19.1606 19.1605 20 18.125 20H1.875C0.839453 20 0 19.1606 0 18.125V7.84079C3.45396e-06 7.55646 0.0646676 7.27587 0.189101 7.02022C0.313534 6.76457 0.494477 6.54057 0.718242 6.36516C1.69141 5.60231 2.49563 4.98372 7.13231 1.61864C7.78953 1.13946 9.09363 -0.0135486 10 0.000123256C10.9062 -0.0137049 12.2108 1.13965 12.8677 1.6186C17.5039 4.98333 18.3092 5.60278 19.2818 6.36516C19.5055 6.54057 19.6865 6.76457 19.8109 7.02022C19.9353 7.27587 20 7.55646 20 7.84079V18.125ZM17.4349 10.4451C17.3348 10.2995 17.1341 10.2656 16.992 10.3706C16.0996 11.0297 14.8255 11.9607 12.8677 13.3815C12.2105 13.8607 10.9064 15.0136 10 14.9999C9.09332 15.0133 7.79066 13.8615 7.13231 13.3815C5.17473 11.9608 3.90051 11.0298 3.00801 10.3706C2.86586 10.2656 2.6652 10.2995 2.56508 10.4451L2.2107 10.9606C2.16477 11.0274 2.14658 11.1094 2.15999 11.1893C2.17339 11.2693 2.21734 11.3408 2.28254 11.389C3.17656 12.0491 4.44871 12.9784 6.39594 14.3916C7.18789 14.969 8.60391 16.2593 10 16.25C11.3955 16.2594 12.811 14.9698 13.604 14.3916C15.5513 12.9784 16.8235 12.0491 17.7174 11.389C17.7826 11.3408 17.8266 11.2693 17.84 11.1893C17.8534 11.1094 17.8352 11.0274 17.7893 10.9606L17.4349 10.4451Z" fill="#D9567E"/>
</svg>
