<?xml version="1.0" encoding="UTF-8" standalone="no"?>
<svg
   xmlns:dc="http://purl.org/dc/elements/1.1/"
   xmlns:cc="http://creativecommons.org/ns#"
   xmlns:rdf="http://www.w3.org/1999/02/22-rdf-syntax-ns#"
   xmlns:svg="http://www.w3.org/2000/svg"
   xmlns="http://www.w3.org/2000/svg"
   xmlns:sodipodi="http://sodipodi.sourceforge.net/DTD/sodipodi-0.dtd"
   xmlns:inkscape="http://www.inkscape.org/namespaces/inkscape"
   inkscape:version="1.0 (4035a4fb49, 2020-05-01)"
   sodipodi:docname="cart.svg"
   id="svg891"
   version="1.1"
   fill="none"
   viewBox="0 0 18 17"
   height="17"
   width="18">
  <metadata
     id="metadata897">
    <rdf:RDF>
      <cc:Work
         rdf:about="">
        <dc:format>image/svg+xml</dc:format>
        <dc:type
           rdf:resource="http://purl.org/dc/dcmitype/StillImage" />
      </cc:Work>
    </rdf:RDF>
  </metadata>
  <defs
     id="defs895" />
  <sodipodi:namedview
     inkscape:current-layer="svg891"
     inkscape:window-maximized="1"
     inkscape:window-y="-8"
     inkscape:window-x="-8"
     inkscape:cy="6.7479547"
     inkscape:cx="9"
     inkscape:zoom="50"
     showgrid="false"
     id="namedview893"
     inkscape:window-height="1017"
     inkscape:window-width="1920"
     inkscape:pageshadow="2"
     inkscape:pageopacity="0"
     guidetolerance="10"
     gridtolerance="10"
     objecttolerance="10"
     borderopacity="1"
     bordercolor="#666666"
     pagecolor="#ffffff" />
  <path
     id="path901"
     d="M 1 0.30078125 A 0.69999999 0.69999999 0 0 0 0.30078125 1 A 0.69999999 0.69999999 0 0 0 1 1.6992188 L 1.9960938 1.6992188 C 2.4744837 1.6992188 2.6236406 1.7268274 2.6230469 1.7265625 C 2.6745309 1.7495281 2.718557 1.7852497 2.75 1.8320312 C 2.7496233 1.8314708 2.8008415 1.9739969 2.8828125 2.4453125 L 3.1269531 3.8515625 L 3.7050781 7.1738281 C 3.8842486 8.204111 3.9591337 8.8171825 4.359375 9.3769531 C 4.6747286 9.8180324 5.1160455 10.152878 5.625 10.339844 C 6.2709204 10.577118 6.8809928 10.487449 7.921875 10.386719 L 14.814453 9.71875 C 15.232048 9.6783405 15.471771 9.6625952 15.740234 9.5859375 C 16.726015 9.3045727 17.471168 8.4848358 17.65625 7.4765625 C 17.706706 7.2019376 17.699219 6.9605356 17.699219 6.5410156 C 17.699219 6.0952756 17.70767 5.8428167 17.652344 5.5546875 C 17.449667 4.5000404 16.636116 3.6614759 15.587891 3.4277344 C 15.30146 3.3638656 15.047056 3.3647523 14.601562 3.3515625 L 4.4082031 3.0488281 L 4.2617188 2.2050781 C 4.1797497 1.7337737 4.1500461 1.4047617 3.9121094 1.0507812 C 3.7341323 0.78598284 3.4847353 0.57724006 3.1933594 0.44726562 C 2.8038656 0.27352076 2.4744838 0.30078125 1.9960938 0.30078125 L 1 0.30078125 z M 4.6523438 4.4570312 L 14.560547 4.75 C 15.006054 4.7631902 15.198034 4.7759307 15.283203 4.7949219 C 15.790578 4.9080603 16.179221 5.3077665 16.277344 5.8183594 C 16.293817 5.9041501 16.300781 6.0952756 16.300781 6.5410156 C 16.300781 6.9605356 16.294641 7.1410943 16.279297 7.2246094 C 16.189779 7.7122761 15.834241 8.1021861 15.357422 8.2382812 C 15.275885 8.2615636 15.097293 8.2857613 14.679688 8.3261719 L 7.7871094 8.9921875 C 6.7462316 9.0929173 6.3179215 9.1046693 6.1074219 9.0273438 C 5.8622764 8.9372891 5.6499333 8.7749408 5.4980469 8.5625 C 5.3676082 8.3800707 5.2631539 7.9638708 5.0839844 6.9335938 L 4.6523438 4.4570312 z "
     style="color:#000000;font-style:normal;font-variant:normal;font-weight:normal;font-stretch:normal;font-size:medium;line-height:normal;font-family:sans-serif;font-variant-ligatures:normal;font-variant-position:normal;font-variant-caps:normal;font-variant-numeric:normal;font-variant-alternates:normal;font-variant-east-asian:normal;font-feature-settings:normal;font-variation-settings:normal;text-indent:0;text-align:start;text-decoration:none;text-decoration-line:none;text-decoration-style:solid;text-decoration-color:#000000;letter-spacing:normal;word-spacing:normal;text-transform:none;writing-mode:lr-tb;direction:ltr;text-orientation:mixed;dominant-baseline:auto;baseline-shift:baseline;text-anchor:start;white-space:normal;shape-padding:0;shape-margin:0;inline-size:0;clip-rule:nonzero;display:inline;overflow:visible;visibility:visible;isolation:auto;mix-blend-mode:normal;color-interpolation:sRGB;color-interpolation-filters:linearRGB;solid-color:#000000;solid-opacity:1;vector-effect:none;fill:#4e4e4e;fill-opacity:1;fill-rule:nonzero;stroke:none;stroke-width:1.4;stroke-linecap:round;stroke-linejoin:round;stroke-miterlimit:4;stroke-dasharray:none;stroke-dashoffset:0;stroke-opacity:1;color-rendering:auto;image-rendering:auto;shape-rendering:auto;text-rendering:auto;enable-background:accumulate;stop-color:#000000;stop-opacity:1;opacity:1" />
  <path
     id="path907"
     d="M 6.8535156 11.617188 C 5.6131022 11.617188 4.5917969 12.638493 4.5917969 13.878906 C 4.5917969 15.11932 5.6131022 16.138672 6.8535156 16.138672 C 8.0939291 16.138672 9.1132812 15.11932 9.1132812 13.878906 C 9.1132812 12.638493 8.0939291 11.617187 6.8535156 11.617188 z M 6.8535156 13.017578 C 7.337313 13.017578 7.7148438 13.395109 7.7148438 13.878906 C 7.7148438 14.362704 7.337313 14.738281 6.8535156 14.738281 C 6.3697183 14.738281 5.9921875 14.362704 5.9921875 13.878906 C 5.9921875 13.395109 6.3697183 13.017578 6.8535156 13.017578 z "
     style="color:#000000;font-style:normal;font-variant:normal;font-weight:normal;font-stretch:normal;font-size:medium;line-height:normal;font-family:sans-serif;font-variant-ligatures:normal;font-variant-position:normal;font-variant-caps:normal;font-variant-numeric:normal;font-variant-alternates:normal;font-variant-east-asian:normal;font-feature-settings:normal;font-variation-settings:normal;text-indent:0;text-align:start;text-decoration:none;text-decoration-line:none;text-decoration-style:solid;text-decoration-color:#000000;letter-spacing:normal;word-spacing:normal;text-transform:none;writing-mode:lr-tb;direction:ltr;text-orientation:mixed;dominant-baseline:auto;baseline-shift:baseline;text-anchor:start;white-space:normal;shape-padding:0;shape-margin:0;inline-size:0;clip-rule:nonzero;display:inline;overflow:visible;visibility:visible;isolation:auto;mix-blend-mode:normal;color-interpolation:sRGB;color-interpolation-filters:linearRGB;solid-color:#000000;solid-opacity:1;vector-effect:none;fill:#4e4e4e;fill-opacity:1;fill-rule:nonzero;stroke:none;stroke-width:1.4;stroke-linecap:butt;stroke-linejoin:miter;stroke-miterlimit:4;stroke-dasharray:none;stroke-dashoffset:0;stroke-opacity:1;color-rendering:auto;image-rendering:auto;shape-rendering:auto;text-rendering:auto;enable-background:accumulate;stop-color:#000000;stop-opacity:1;opacity:1" />
  <path
     id="path911"
     d="M 14.267578 11.617188 C 13.027165 11.617188 12.007812 12.638493 12.007812 13.878906 C 12.007812 15.11932 13.027165 16.138672 14.267578 16.138672 C 15.507992 16.138672 16.529297 15.11932 16.529297 13.878906 C 16.529297 12.638493 15.507992 11.617187 14.267578 11.617188 z M 14.267578 13.017578 C 14.751375 13.017578 15.128906 13.395109 15.128906 13.878906 C 15.128906 14.362704 14.751375 14.738281 14.267578 14.738281 C 13.783781 14.738281 13.40625 14.362704 13.40625 13.878906 C 13.40625 13.395109 13.783781 13.017578 14.267578 13.017578 z "
     style="color:#000000;font-style:normal;font-variant:normal;font-weight:normal;font-stretch:normal;font-size:medium;line-height:normal;font-family:sans-serif;font-variant-ligatures:normal;font-variant-position:normal;font-variant-caps:normal;font-variant-numeric:normal;font-variant-alternates:normal;font-variant-east-asian:normal;font-feature-settings:normal;font-variation-settings:normal;text-indent:0;text-align:start;text-decoration:none;text-decoration-line:none;text-decoration-style:solid;text-decoration-color:#000000;letter-spacing:normal;word-spacing:normal;text-transform:none;writing-mode:lr-tb;direction:ltr;text-orientation:mixed;dominant-baseline:auto;baseline-shift:baseline;text-anchor:start;white-space:normal;shape-padding:0;shape-margin:0;inline-size:0;clip-rule:nonzero;display:inline;overflow:visible;visibility:visible;isolation:auto;mix-blend-mode:normal;color-interpolation:sRGB;color-interpolation-filters:linearRGB;solid-color:#000000;solid-opacity:1;vector-effect:none;fill:#4e4e4e;fill-opacity:1;fill-rule:nonzero;stroke:none;stroke-width:1.4;stroke-linecap:butt;stroke-linejoin:miter;stroke-miterlimit:4;stroke-dasharray:none;stroke-dashoffset:0;stroke-opacity:1;color-rendering:auto;image-rendering:auto;shape-rendering:auto;text-rendering:auto;enable-background:accumulate;stop-color:#000000;stop-opacity:1;opacity:1" />
</svg>
