<svg width="20" height="15" viewBox="0 0 20 15" fill="none" xmlns="http://www.w3.org/2000/svg">
<path d="M19.9951 13.6883V13.6875H20.0001V6.35251C20.0001 2.76417 19.2276 0 15.0326 0C13.0159 0 11.6626 1.10667 11.1101 2.15584H11.0517V0.335H7.07422V13.6875H11.2159V7.07584C11.2159 5.33501 11.5459 3.65167 13.7017 3.65167C15.8259 3.65167 15.8576 5.63834 15.8576 7.18751V13.6883H19.9951Z" fill="#2F2F2F"/>
<path d="M0.330078 1H4.47675V14.3525H0.330078V1Z" fill="#2F2F2F"/>
<path d="M2.40167 9C1.07583 9 0 10.0758 0 11.4017C0 12.7275 1.07583 13.8258 2.40167 13.8258C3.7275 13.8258 4.80333 12.7275 4.80333 11.4017C4.8025 10.0758 3.72667 9 2.40167 9V9Z" fill="#2F2F2F"/>
</svg>
