<svg width="17" height="16" viewBox="0 0 17 16" fill="none" xmlns="http://www.w3.org/2000/svg">
<g clip-path="url(#clip0)">
<path d="M4.89258 11.5626C4.72008 11.5626 4.58008 11.7026 4.58008 11.8751C4.58008 12.0476 4.72008 12.1876 4.89258 12.1876C5.06508 12.1876 5.20508 12.0476 5.20508 11.8751C5.20508 11.7026 5.06508 11.5626 4.89258 11.5626Z" fill="#3E8158"/>
<path d="M14.0846 5.93757L15.9261 4.09604C16.0036 4.01857 16.0348 3.90619 16.0084 3.79988C15.9821 3.69354 15.902 3.60878 15.7973 3.57647L11.3129 2.19241C10.9087 0.893002 9.70716 9.53674e-05 8.33006 9.53674e-05C7.04994 9.53674e-05 5.90506 0.780252 5.43122 1.95713L0.23703 3.57675C0.132624 3.60932 0.0528111 3.69413 0.0266549 3.80035C0.000498611 3.90654 0.0317486 4.01872 0.109092 4.09607L1.99906 5.98604L0.807061 7.97276C0.75828 8.05404 0.749061 8.15307 0.781936 8.24197C0.814811 8.33088 0.88628 8.40004 0.976217 8.43001L2.70506 9.00626V13.8126C2.70506 13.9428 2.78587 14.0594 2.90784 14.1052C3.96494 14.5015 7.89259 15.9746 7.91369 15.9821C7.97569 16.0039 8.04553 16.0069 8.11362 15.9849C8.11453 15.9845 8.11547 15.9844 8.11637 15.984L13.7414 14.109C13.869 14.0665 13.9551 13.9471 13.9551 13.8126V8.87757L15.7987 8.29819C15.903 8.26544 15.9826 8.18063 16.0086 8.07451C16.0346 7.96838 16.0033 7.85638 15.9261 7.7791L14.0846 5.93757ZM11.4551 3.1251C11.4551 3.04569 11.4517 2.96647 11.4457 2.8875L15.1174 4.02079L13.5582 5.58004L11.0104 4.73088C11.2989 4.24866 11.4551 3.69222 11.4551 3.1251ZM5.96528 2.31172C6.31219 1.30291 7.26253 0.625096 8.33006 0.625096C9.48009 0.625096 10.4775 1.40297 10.7556 2.51672C10.805 2.71463 10.8301 2.91932 10.8301 3.1251C10.8301 3.70554 10.6374 4.24957 10.2729 4.6986C9.79553 5.28741 9.08737 5.6251 8.33006 5.6251C7.51144 5.6251 6.74359 5.22329 6.27591 4.54997C5.98425 4.13104 5.83006 3.63829 5.83006 3.1251C5.83006 2.846 5.87553 2.57235 5.96528 2.31172ZM0.916467 4.01957L5.23834 2.67194C5.21665 2.82125 5.20506 2.9725 5.20506 3.12507C5.20506 3.62822 5.32425 4.11557 5.55144 4.55529L2.47697 5.58004L0.916467 4.01957ZM1.54344 7.96026L2.53156 6.31332L7.54915 7.98585L6.56106 9.63279C6.02528 9.45419 2.1155 8.15091 1.54344 7.96026ZM7.70506 15.2367L3.33006 13.596V9.2146C6.77225 10.3559 6.60416 10.3211 6.7 10.3211C6.80744 10.3211 6.91031 10.2655 6.96803 10.1693L7.70506 8.94085V15.2367ZM8.01756 7.48319L3.38081 5.93763L5.90562 5.09607C6.49656 5.82254 7.38615 6.2501 8.33006 6.2501C9.20325 6.2501 10.0239 5.89076 10.6142 5.25763L12.6543 5.9376L8.01756 7.48319ZM13.3301 13.5874L8.33006 15.254V8.70338L9.43791 10.0881C9.5185 10.1888 9.65265 10.2296 9.77562 10.191L13.3301 9.07401V13.5874ZM9.79231 9.53063L8.54156 7.96732L13.5582 6.29513L15.1195 7.85651L9.79231 9.53063Z" fill="#3E8158"/>
<path d="M6.87709 12.2562L6.18209 11.9956C6.02049 11.935 5.84037 12.0168 5.77974 12.1784C5.71915 12.3401 5.80103 12.5202 5.96262 12.5808L6.65762 12.8414C6.81956 12.9021 6.99946 12.8198 7.05996 12.6585C7.12056 12.4969 7.03868 12.3168 6.87709 12.2562Z" fill="#3E8158"/>
<path d="M6.87742 13.5912L5.00241 12.8881C4.84082 12.8275 4.66069 12.9093 4.60007 13.0709C4.53944 13.2325 4.62135 13.4127 4.78295 13.4733L6.65795 14.1764C6.6941 14.19 6.73117 14.1964 6.76764 14.1964C6.89417 14.1964 7.01323 14.119 7.06029 13.9935C7.12092 13.8319 7.03904 13.6518 6.87742 13.5912Z" fill="#3E8158"/>
<circle cx="8.36498" cy="3.47826" r="3.47826" fill="#3E8158"/>
<path d="M10.0072 2.17849C9.88513 2.05643 9.68726 2.05646 9.5652 2.17849L7.91117 3.83255L7.50714 3.42852C7.38511 3.30649 7.18723 3.30649 7.06517 3.42852C6.94311 3.55055 6.94314 3.74843 7.06517 3.87049L7.6902 4.49546C7.81223 4.61749 8.0101 4.61749 8.13217 4.49546L10.0072 2.62046C10.1292 2.49843 10.1292 2.30055 10.0072 2.17849Z" fill="white"/>
</g>
<defs>
<clipPath id="clip0">
<rect x="0.0175781" width="16" height="16" fill="white"/>
</clipPath>
</defs>
</svg>
