<svg width="16" height="16" viewBox="0 0 16 16" fill="none" xmlns="http://www.w3.org/2000/svg">
<path d="M15.6889 12.7226L13.9151 11.54L12.3383 10.489C12.034 10.2865 11.625 10.3529 11.4004 10.6412L10.4246 11.8956C10.2151 12.1678 9.83803 12.246 9.53747 12.0796C8.87541 11.7113 8.09252 11.3645 6.3651 9.6349C4.63768 7.90526 4.28872 7.12458 3.92044 6.46253C3.75403 6.16197 3.83225 5.78494 4.10444 5.57538L5.35877 4.59967C5.64711 4.37505 5.71351 3.96609 5.51105 3.66174L4.49231 2.13348L3.27742 0.311122C3.07064 0.000938138 2.6567 -0.0921859 2.33702 0.0995309L0.935911 0.940085C0.55726 1.16318 0.278919 1.52342 0.158545 1.94614C-0.224606 3.34309 -0.301855 6.42472 4.63684 11.3634C9.57553 16.3021 12.6569 16.2246 14.0538 15.8414C14.4765 15.7211 14.8368 15.4427 15.0599 15.0641L15.9004 13.663C16.0922 13.3433 15.999 12.9294 15.6889 12.7226Z" fill="#D70029"/>
</svg>
