<svg width="20" height="16" viewBox="0 0 20 16" fill="none" xmlns="http://www.w3.org/2000/svg">
<path d="M0.701765 10.3374V1.8281C0.701765 1.35526 1.08507 0.971924 1.55794 0.971924H10.0628C10.5357 0.971924 10.919 1.35526 10.919 1.8281V10.3374C10.919 10.495 10.7912 10.6228 10.6336 10.6228H0.987157C0.82951 10.6228 0.701765 10.495 0.701765 10.3374ZM7.56974 13.2525C7.56974 14.2332 6.77467 15.0282 5.79399 15.0282C4.8133 15.0282 4.01824 14.2332 4.01824 13.2525C4.01824 12.2717 4.8133 11.4767 5.79399 11.4767C6.77467 11.4767 7.56974 12.2717 7.56974 13.2525ZM6.68183 13.2525C6.68183 12.7621 6.28431 12.3646 5.79395 12.3646C5.3036 12.3646 4.90605 12.7621 4.90605 13.2525C4.90605 13.7428 5.3036 14.1404 5.79395 14.1404C6.28431 14.1404 6.68183 13.7428 6.68183 13.2525ZM4.26454 11.4767H0.285392C0.127778 11.4767 0 11.6045 0 11.7621V12.6279C0 12.7855 0.127778 12.9133 0.285392 12.9133H3.47487C3.55814 12.3419 3.84654 11.8372 4.26454 11.4767ZM16.8607 13.2525C16.8607 14.2332 16.0657 15.0282 15.085 15.0282C14.1042 15.0282 13.3092 14.2332 13.3092 13.2525C13.3092 12.2717 14.1042 11.4767 15.085 11.4767C16.0657 11.4767 16.8607 12.2717 16.8607 13.2525ZM15.9729 13.2525C15.9729 12.7621 15.5753 12.3646 15.085 12.3646C14.5946 12.3646 14.1971 12.7621 14.1971 13.2525C14.1971 13.7428 14.5946 14.1404 15.085 14.1404C15.5753 14.1404 15.9729 13.7428 15.9729 13.2525ZM20 11.7621V12.6279C20 12.7855 19.8722 12.9133 19.7146 12.9133H17.404C17.2388 11.7799 16.2633 10.9059 15.085 10.9059C13.9065 10.9059 12.931 11.7799 12.7658 12.9133H8.1131C8.0298 12.342 7.74144 11.8372 7.32343 11.4767H11.735V3.31359C11.735 2.99836 11.9906 2.7428 12.3058 2.7428H15.0001C15.7587 2.7428 16.4677 3.11963 16.8922 3.74836L18.6292 6.32094C18.8839 6.69829 19.0201 7.14319 19.0201 7.59852V11.4767H19.7146C19.8722 11.4767 20 11.6045 20 11.7621ZM17.1048 6.38682L15.7159 4.4132C15.6625 4.33725 15.5754 4.29205 15.4825 4.29205H13.316C13.1584 4.29205 13.0306 4.41983 13.0306 4.57744V6.55107C13.0306 6.70872 13.1584 6.83646 13.316 6.83646H16.8715C17.1027 6.83646 17.2379 6.57591 17.1048 6.38682Z" fill="#4E4E4E"/>
</svg>
