<svg width="24" height="20" viewBox="0 0 24 20" fill="none" xmlns="http://www.w3.org/2000/svg">
<path d="M12.1129 14.5993V13.7164L12.3871 13.7107C13.3307 13.7107 13.9921 13.5429 14.3707 13.2064C14.7486 12.8693 14.9386 12.285 14.9386 11.4507C14.9386 10.675 14.765 10.1421 14.4179 9.85143C14.0693 9.56071 13.3993 9.38786 12.4093 9.33286L12.1129 9.32143V7.34643H12.3214C13.0521 7.34643 13.4179 7.63929 13.4179 8.22429L13.4243 8.36714H14.7136V8.18643C14.7136 7.41143 14.53 6.88071 14.1629 6.595C13.7957 6.30929 13.1121 6.16714 12.1136 6.16714V5.39929H11.2136V6.16714C10.1671 6.16714 9.45143 6.31643 9.065 6.61429C8.68 6.91214 8.48571 7.46571 8.48571 8.27429C8.48571 9.10786 8.67857 9.67643 9.06214 9.98071C9.44714 10.2843 10.1629 10.435 11.2136 10.435V12.575L11.0164 12.5707C10.4786 12.5707 10.1329 12.4993 9.97714 12.3586C9.82143 12.2179 9.74357 11.9043 9.74357 11.4186V11.2821H8.41143L8.40571 11.5507C8.40571 12.3479 8.59714 12.9071 8.97929 13.23C9.36143 13.5529 10.0229 13.7136 10.9614 13.7136L11.2143 13.7186V14.6014H12.1129V14.5993V14.5993ZM12.1129 10.4857C12.7164 10.4857 13.1121 10.55 13.3036 10.6793C13.4943 10.8071 13.5879 11.0721 13.5879 11.4736C13.5879 12.2086 13.1586 12.5757 12.3029 12.5757H12.1107L12.1129 10.4857ZM11.0157 9.26786C10.2286 9.26786 9.83714 8.94071 9.83714 8.28571C9.83714 7.66071 10.2321 7.34786 11.0214 7.34786L11.2143 7.34214V9.27857C11.09 9.27071 11.0236 9.26786 11.0157 9.26786ZM3.81429 10H5.485L2.74286 13.7314L0 10H1.67143C1.67143 4.48571 6.15643 0 11.6714 0V2.14286C7.34 2.14286 3.81429 5.66714 3.81429 10ZM23.3429 10H21.6714C21.6714 15.5143 17.1864 20 11.6714 20V17.8571C16.0029 17.8571 19.5286 14.3314 19.5286 10H17.8579L20.6 6.26786L23.3429 10Z" fill="#4E4E4E"/>
</svg>
