<svg width="20" height="20" viewBox="0 0 20 20" fill="none" xmlns="http://www.w3.org/2000/svg">
<path d="M15.9757 11.9917C15.5774 11.9917 15.2786 12.0913 14.9799 12.0913L12.0919 9.20335L14.482 6.81332L17.5691 5.71789L19.8595 2.03325C19.9591 1.83408 19.9591 1.53533 19.8595 1.43574L18.6645 0.240727C18.4653 0.0415577 18.1666 0.0415577 17.9674 0.141142L14.1832 2.33201L12.9882 5.51872L10.5981 7.90875L7.90936 5.02079C7.90936 4.72204 8.00894 4.42329 8.00894 4.02495C8.00894 1.43574 5.51932 -0.456366 3.0297 0.141142L4.52348 1.63491C5.32015 2.43159 5.32015 3.62661 4.52348 4.42329C3.7268 5.21996 2.53178 5.21996 1.7351 4.42329L0.141747 3.0291C-0.65493 5.91706 2.03386 8.70543 5.0214 7.80917L7.90936 10.6971L6.71434 11.8921C6.01725 11.693 5.32015 11.8921 4.82223 12.3901L0.739256 16.473C-0.057422 17.2697 -0.157007 18.4647 0.540086 19.2614C1.33676 20.1577 2.63137 20.1577 3.42804 19.361L7.6106 15.1784C8.10853 14.6805 8.3077 13.8838 8.10853 13.2863L9.30354 12.0913L12.1915 14.9793C12.0919 15.278 12.0919 15.6764 12.0919 15.9751C12.0919 18.5643 14.5815 20.4564 17.0712 19.8589L15.5774 18.3651C14.7807 17.5685 14.7807 16.3735 15.5774 15.5768C16.3741 14.7801 17.5691 14.7801 18.3658 15.5768L19.8595 17.0705C20.5566 14.4813 18.5649 11.9917 15.9757 11.9917Z" fill="#4E4E4E"/>
</svg>
