<svg width="22" height="20" viewBox="0 0 22 20" fill="none" xmlns="http://www.w3.org/2000/svg">
<path fill-rule="evenodd" clip-rule="evenodd" d="M20.8186 9.18994C19.8526 13.6296 15.1527 16.9983 9.50037 16.9983C8.685 16.9983 7.88945 16.9282 7.12207 16.7949C8.67966 18.1459 10.9598 18.9982 13.5004 18.9982C14.898 18.9982 16.2169 18.7403 17.38 18.2832C17.9459 18.0608 19.8347 18.6848 21.0149 19.1189C21.4111 19.2646 21.8205 18.8896 21.7118 18.4816C21.4079 17.3412 21.0074 15.5906 21.2731 15.133C21.7406 14.3277 22.0004 13.4362 22.0004 12.4982C22.0004 11.2902 21.5694 10.1591 20.8186 9.18994Z" fill="#4E4E4E"/>
<path d="M19 7.5C19 11.6421 14.7467 15 9.5 15C8.07102 15 6.71574 14.7509 5.5 14.3048C4.85423 14.0678 2.42216 14.7467 1.0178 15.1764C0.612119 15.3006 0.226549 14.897 0.363653 14.4955C0.772919 13.297 1.33908 11.3878 1 10.8531C0.360102 9.84409 0 8.70524 0 7.5C0 3.35786 4.25329 0 9.5 0C14.7467 0 19 3.35786 19 7.5Z" fill="#4E4E4E"/>
</svg>
