<svg width="20" height="20" viewBox="0 0 20 20" fill="none" xmlns="http://www.w3.org/2000/svg">
<path d="M19.072 10.9017H18.3467C18.1504 10.9017 17.9215 10.7241 17.8469 10.5137C17.7777 10.3188 17.6965 10.1248 17.6057 9.93693C17.509 9.73715 17.5446 9.45119 17.6833 9.31242L18.1997 8.79602C18.5614 8.43429 18.5614 7.84563 18.1997 7.48387L17.3616 6.64576C17.1863 6.47051 16.9533 6.37402 16.7055 6.37402C16.4577 6.37402 16.2247 6.47051 16.0494 6.64576L15.533 7.16216C15.4501 7.24504 15.312 7.29453 15.1639 7.29453C15.0711 7.29453 14.9828 7.27556 14.9087 7.23968C14.7208 7.14875 14.5265 7.06742 14.3311 6.99792C14.1209 6.9233 13.9433 6.69444 13.9433 6.49823V5.77279C13.9433 5.26124 13.527 4.84497 13.0154 4.84497H11.8299C11.3182 4.84497 10.902 5.26124 10.902 5.77279V6.49823C10.902 6.69451 10.7245 6.9234 10.5142 6.99792C10.3191 7.06722 10.1248 7.14835 9.93712 7.23907C9.86425 7.27431 9.77383 7.29372 9.68249 7.29372C9.53372 7.29372 9.39529 7.24413 9.31217 7.16105L8.79662 6.6457C8.62136 6.47044 8.38836 6.37395 8.14044 6.37395C7.89262 6.37395 7.65962 6.47044 7.48436 6.64559L6.64542 7.48403C6.47006 7.65919 6.37357 7.89215 6.37347 8.14001C6.37347 8.38783 6.46996 8.62083 6.64521 8.79609L7.16161 9.31249C7.30048 9.45135 7.33616 9.73752 7.23947 9.93743C7.14884 10.1249 7.06772 10.3189 6.99855 10.5139C6.92393 10.7241 6.69518 10.9017 6.49887 10.9017H5.77352C5.26187 10.9017 4.8457 11.318 4.8457 11.8296V13.0151C4.8457 13.5267 5.26187 13.9429 5.77352 13.9429H6.49887C6.69518 13.9429 6.92403 14.1204 6.99866 14.3307C7.06772 14.5252 7.14884 14.7192 7.23977 14.9071C7.3364 15.1069 7.30062 15.3931 7.16165 15.5321L6.64525 16.0484C6.28352 16.4102 6.28352 16.9988 6.64525 17.3606L7.48453 18.1999C7.65979 18.3752 7.89278 18.4717 8.14061 18.4717C8.38843 18.4717 8.62143 18.3752 8.79668 18.1999L9.31308 17.6836C9.39616 17.6005 9.53453 17.5509 9.68317 17.5509C9.77585 17.5509 9.86388 17.5698 9.93779 17.6056C10.1256 17.6963 10.3196 17.7775 10.5144 17.8467C10.7246 17.9213 10.9022 18.1501 10.9022 18.3465V19.0719C10.9022 19.5835 11.3184 19.9997 11.83 19.9997H13.0156C13.5272 19.9997 13.9434 19.5835 13.9434 19.0719V18.3465C13.9434 18.1501 14.121 17.9213 14.3312 17.8468C14.5264 17.7775 14.7206 17.6963 14.9084 17.6057C14.9812 17.5704 15.0716 17.551 15.163 17.551C15.3117 17.551 15.4501 17.6006 15.5332 17.6837L16.0495 18.2C16.2248 18.3753 16.4577 18.4718 16.7055 18.4718C16.9534 18.4718 17.1864 18.3752 17.3617 18.1998L18.2002 17.3609C18.5617 16.9991 18.5617 16.4104 18.2001 16.0486L17.6841 15.5325C17.5454 15.3937 17.5098 15.1075 17.6064 14.9076C17.6971 14.72 17.7781 14.5259 17.8474 14.3309C17.9219 14.1207 18.1507 13.9431 18.347 13.9431H19.0723C19.584 13.9431 20.0002 13.5269 20.0002 13.0153V11.8298C19.9998 11.3179 19.5835 10.9017 19.072 10.9017ZM15.1417 12.4223C15.1417 13.9215 13.9219 15.1413 12.4226 15.1413C10.9234 15.1413 9.70358 13.9215 9.70358 12.4223C9.70358 10.923 10.9234 9.70325 12.4226 9.70325C13.9219 9.70325 15.1417 10.9229 15.1417 12.4223Z" fill="#4E4E4E"/>
<path d="M6.80091 4.94898C6.81846 4.89959 6.87712 4.85795 6.90474 4.85795H7.26805C7.6091 4.85795 7.8866 4.58054 7.8866 4.2394V3.64663C7.8866 3.30552 7.6091 3.02808 7.26805 3.02808H6.90484C6.87722 3.02808 6.81856 2.98644 6.80104 2.93705C6.76456 2.83426 6.72177 2.73191 6.67383 2.63303C6.65146 2.58674 6.66332 2.51694 6.68269 2.49757L6.94096 2.23933C7.18208 1.99808 7.18208 1.60573 6.94096 1.36461L6.52189 0.94554C6.40509 0.828737 6.24971 0.764423 6.08449 0.764423C5.91924 0.764423 5.76387 0.828872 5.64706 0.945641L5.38893 1.20381C5.38088 1.21186 5.35325 1.22473 5.31357 1.22473C5.291 1.22473 5.26913 1.22042 5.25347 1.21277C5.15442 1.16483 5.05213 1.12204 4.94945 1.08566C4.89996 1.06814 4.85832 1.00935 4.85832 0.981824V0.618546C4.85832 0.277402 4.58081 0 4.23977 0H3.647C3.30595 0 3.02845 0.277402 3.02845 0.618546V0.981824C3.02845 1.00945 2.98681 1.068 2.93742 1.08556C2.83423 1.12214 2.73185 1.16503 2.6332 1.21277C2.61764 1.22028 2.59567 1.22463 2.5731 1.22463C2.53341 1.22463 2.50589 1.21186 2.49787 1.20381L2.2396 0.945641C2.1228 0.828839 1.96746 0.764524 1.80221 0.764524C1.63696 0.764524 1.48168 0.828839 1.36491 0.945641L0.945776 1.36471C0.704658 1.60596 0.704658 1.99842 0.945776 2.23954L1.20391 2.49767C1.22328 2.51704 1.23524 2.58684 1.21287 2.63303C1.16493 2.73201 1.12214 2.83436 1.08566 2.93715C1.06814 2.98654 1.00935 3.02828 0.981824 3.02828H0.618546C0.277537 3.02828 0 3.30569 0 3.64683V4.2396C0 4.58065 0.277436 4.85815 0.618445 4.85815H0.981757C1.00938 4.85815 1.06804 4.89979 1.08559 4.94918C1.12208 5.05207 1.16486 5.15432 1.2128 5.2532C1.23517 5.29949 1.22331 5.36926 1.20394 5.38866L0.945675 5.64693C0.828872 5.76373 0.764558 5.91911 0.764558 6.08433C0.764558 6.24957 0.828872 6.40485 0.945776 6.52175L1.36484 6.94072C1.48165 7.05753 1.63699 7.12184 1.80224 7.12184C1.96749 7.12184 2.12277 7.05753 2.23953 6.94072L2.4978 6.68249C2.50582 6.67444 2.53348 6.66157 2.57317 6.66157C2.59574 6.66157 2.6176 6.66588 2.63327 6.67349C2.73235 6.72143 2.83463 6.76422 2.93729 6.80061C2.98678 6.81813 3.02842 6.87688 3.02842 6.9044V7.26772C3.02842 7.60883 3.30595 7.88626 3.64696 7.88626H4.23974C4.58078 7.88626 4.85828 7.60886 4.85828 7.26772V6.90451C4.85828 6.87688 4.89992 6.81833 4.94931 6.80081C5.0521 6.76432 5.15435 6.72154 5.25333 6.6736C5.269 6.66595 5.29096 6.66164 5.31353 6.66164C5.35322 6.66164 5.38075 6.6745 5.3889 6.68256L5.64717 6.94079C5.76397 7.05759 5.91931 7.12191 6.08456 7.12191C6.24981 7.12191 6.40509 7.05759 6.52186 6.94079L6.94092 6.52175C7.18204 6.2805 7.18204 5.88815 6.94092 5.64703L6.68279 5.3889C6.66339 5.36953 6.65143 5.29962 6.6738 5.25343C6.72177 5.15391 6.76452 5.05166 6.80091 4.94898ZM5.14818 3.943C5.14818 4.60733 4.6077 5.14792 3.94337 5.14792C3.27894 5.14792 2.73845 4.60743 2.73845 3.943C2.73845 3.27856 3.27894 2.73808 3.94337 2.73808C4.60766 2.73808 5.14818 3.2786 5.14818 3.943Z" fill="#4E4E4E"/>
</svg>
