<svg width="20" height="20" viewBox="0 0 20 20" fill="none" xmlns="http://www.w3.org/2000/svg">
<path d="M5.37264 6.34061L5.43213 6.56256H7.37326L7.18393 5.85553C7.16886 5.79934 7.16978 5.74007 7.18658 5.68437C7.20338 5.62868 7.23539 5.57878 7.279 5.54029C7.61835 5.24121 7.87023 4.85569 8.00781 4.42479C8.14539 3.99388 8.16353 3.53373 8.06029 3.09334C7.95705 2.65294 7.7363 2.24879 7.42154 1.92393C7.10679 1.59906 6.70982 1.36565 6.27291 1.24854L6.75252 3.03854C6.76315 3.07818 6.76587 3.11953 6.76052 3.16023C6.75517 3.20093 6.74185 3.24017 6.72133 3.27572C6.70081 3.31127 6.67349 3.34243 6.64093 3.36741C6.60836 3.3924 6.57119 3.41073 6.53154 3.42135L4.72045 3.90662C4.6808 3.91725 4.63945 3.91997 4.59876 3.91462C4.55806 3.90927 4.51882 3.89595 4.48327 3.87543C4.44772 3.85491 4.41656 3.82759 4.39157 3.79503C4.36658 3.76246 4.34826 3.72529 4.33764 3.68564L3.85811 1.89561C3.53835 2.21549 3.31133 2.6161 3.20122 3.05478C3.09111 3.49346 3.10203 3.9538 3.23281 4.38677C3.36359 4.81974 3.60935 5.20914 3.94391 5.5135C4.27846 5.81787 4.6893 6.0258 5.13268 6.11518C5.18969 6.1267 5.24236 6.1539 5.28475 6.19373C5.32715 6.23355 5.35758 6.28442 5.37264 6.34061Z" fill="#4E4E4E"/>
<path d="M7.6084 14.6875L8.52094 18.0933C8.58526 18.3335 8.74235 18.5383 8.95766 18.6626C9.06427 18.7242 9.18197 18.7642 9.30403 18.7803C9.42609 18.7964 9.55012 18.7883 9.66905 18.7564C9.78797 18.7246 9.89946 18.6696 9.99715 18.5947C10.0948 18.5198 10.1768 18.4263 10.2384 18.3197C10.3 18.2131 10.3399 18.0954 10.356 17.9733C10.3721 17.8513 10.364 17.7272 10.3322 17.6083L9.54961 14.6875H7.6084Z" fill="#4E4E4E"/>
<path d="M14.375 7.5V13.125C14.3751 13.2079 14.408 13.2873 14.4666 13.3459C14.5252 13.4045 14.6046 13.4374 14.6875 13.4375H16.25V7.1875H14.6875C14.6046 7.18759 14.5252 7.22055 14.4666 7.27913C14.408 7.33772 14.3751 7.41715 14.375 7.5Z" fill="#4E4E4E"/>
<path d="M12.1876 8.125C12.1876 7.75565 12.1149 7.38991 11.9736 7.04867C11.8323 6.70742 11.6251 6.39736 11.3639 6.13619C11.1028 5.87502 10.7927 5.66786 10.4514 5.52653C10.1102 5.3852 9.74447 5.31247 9.37512 5.3125H8.28285C8.1557 5.51616 8.00565 5.70459 7.83562 5.8741L8.02008 6.5625H9.68762C9.7705 6.5625 9.84998 6.59542 9.90859 6.65403C9.96719 6.71263 10.0001 6.79212 10.0001 6.875C10.0001 6.95788 9.96719 7.03737 9.90859 7.09597C9.84998 7.15458 9.7705 7.1875 9.68762 7.1875H3.75012C3.58436 7.1875 3.42539 7.25335 3.30817 7.37056C3.19096 7.48777 3.12512 7.64674 3.12512 7.8125C3.12512 7.97826 3.19096 8.13723 3.30817 8.25444C3.42539 8.37165 3.58436 8.4375 3.75012 8.4375H5.62512C5.708 8.4375 5.78748 8.47042 5.84609 8.52903C5.90469 8.58763 5.93762 8.66712 5.93762 8.75C5.93762 8.83288 5.90469 8.91237 5.84609 8.97097C5.78748 9.02958 5.708 9.0625 5.62512 9.0625H3.75012C3.58436 9.0625 3.42539 9.12835 3.30817 9.24556C3.19096 9.36277 3.12512 9.52174 3.12512 9.6875C3.12512 9.85326 3.19096 10.0122 3.30817 10.1294C3.42539 10.2467 3.58436 10.3125 3.75012 10.3125H5.62512C5.708 10.3125 5.78748 10.3454 5.84609 10.404C5.90469 10.4626 5.93762 10.5421 5.93762 10.625C5.93762 10.7079 5.90469 10.7874 5.84609 10.846C5.78748 10.9046 5.708 10.9375 5.62512 10.9375H3.75012C3.667 10.9375 3.58472 10.9541 3.50809 10.9863C3.43146 11.0185 3.36202 11.0657 3.30383 11.125C3.24564 11.1844 3.19986 11.2547 3.16918 11.332C3.13849 11.4092 3.12351 11.4918 3.12512 11.5749C3.13148 11.9125 3.42152 12.1875 3.7716 12.1875H6.56262C6.6455 12.1875 6.72498 12.2204 6.78359 12.279C6.84219 12.3376 6.87512 12.4171 6.87512 12.5C6.87512 12.5829 6.84219 12.6624 6.78359 12.721C6.72498 12.7796 6.6455 12.8125 6.56262 12.8125H4.68762C4.6045 12.8125 4.52222 12.8291 4.44559 12.8613C4.36896 12.8935 4.29952 12.9407 4.24133 13C4.18314 13.0594 4.13736 13.1297 4.10668 13.207C4.07599 13.2842 4.06101 13.3668 4.06262 13.4499C4.06902 13.7875 4.35906 14.0625 4.70914 14.0625H10.9376C11.3519 14.062 11.749 13.8973 12.042 13.6043C12.3349 13.3114 12.4997 12.9143 12.5001 12.5C12.5001 12.4171 12.533 12.3376 12.5916 12.279C12.6503 12.2204 12.7297 12.1875 12.8126 12.1875H13.7501V8.4375H12.5001C12.4172 8.4375 12.3378 8.40458 12.2791 8.34597C12.2205 8.28737 12.1876 8.20788 12.1876 8.125Z" fill="#4E4E4E"/>
</svg>
