<svg width="14" height="20" viewBox="0 0 14 20" fill="none" xmlns="http://www.w3.org/2000/svg">
<path fill-rule="evenodd" clip-rule="evenodd" d="M6.1 1C6.1 0.447715 5.65228 0 5.1 0H2C0.895431 0 0 0.895431 0 2V18C0 19.1046 0.89543 20 2 20H12C13.1046 20 14 19.1046 14 18V8.9C14 8.34772 13.5523 7.9 13 7.9H9C7.39837 7.9 6.1 6.60163 6.1 5V1ZM4.5 11.1C4.00294 11.1 3.6 11.5029 3.6 12C3.6 12.4971 4.00294 12.9 4.5 12.9H7C7.49706 12.9 7.9 12.4971 7.9 12C7.9 11.5029 7.49706 11.1 7 11.1H4.5ZM4.5 14.6C4.00294 14.6 3.6 15.0029 3.6 15.5C3.6 15.9971 4.00294 16.4 4.5 16.4H9.5C9.99706 16.4 10.4 15.9971 10.4 15.5C10.4 15.0029 9.99706 14.6 9.5 14.6H4.5Z" fill="#4E4E4E"/>
<path d="M11.8929 6.1C12.3383 6.1 12.5614 5.56143 12.2464 5.24645L8.75355 1.75355C8.43857 1.43857 7.9 1.66165 7.9 2.10711V5C7.9 5.60751 8.39249 6.1 9 6.1H11.8929Z" fill="#4E4E4E"/>
</svg>
