<svg width="20" height="20" viewBox="0 0 20 20" fill="none" xmlns="http://www.w3.org/2000/svg">
<path d="M5.7649 14.1749C7.11264 15.523 8.67378 16.8116 9.29059 16.1945C10.1742 15.3112 10.7186 14.5418 12.6659 16.1068C14.6132 17.6724 13.1177 18.7157 12.2619 19.5717C11.2743 20.5593 7.59316 19.6235 3.95451 15.9853C0.31624 12.3466 -0.619815 8.66549 0.368365 7.67759C1.22444 6.82151 2.26767 5.32628 3.83229 7.27385C5.39757 9.22081 4.62852 9.76559 3.74497 10.6489C3.12849 11.266 4.41677 12.8268 5.7649 14.1749ZM20 4.92099C20 7.60566 17.2502 9.78196 13.8582 9.78196C13.5191 9.78196 13.1886 9.75444 12.8645 9.71285C11.9416 10.6576 10.5318 11.1166 8.93036 11.2362C9.58617 10.5804 10.0554 9.62869 10.2026 8.82092C8.69646 7.93511 7.71599 6.52047 7.71599 4.92127C7.71599 2.23665 10.4659 0.0603027 13.8579 0.0603027C17.2499 0.0603027 20 2.23632 20 4.92099ZM10.0193 4.92099C10.0193 5.45109 10.4489 5.88071 10.979 5.88071C11.5091 5.88071 11.9387 5.45109 11.9387 4.92099C11.9387 4.39089 11.5091 3.96127 10.979 3.96127C10.449 3.96127 10.0193 4.39089 10.0193 4.92099ZM14.8179 4.92099C14.8179 4.39089 14.3883 3.96127 13.8582 3.96127C13.3282 3.96127 12.8985 4.39089 12.8985 4.92099C12.8985 5.45109 13.3282 5.88071 13.8582 5.88071C14.3883 5.88071 14.8179 5.45105 14.8179 4.92099ZM17.6971 4.92099C17.6971 4.39089 17.2674 3.96127 16.7374 3.96127C16.2073 3.96127 15.7777 4.39089 15.7777 4.92099C15.7777 5.45109 16.2073 5.88071 16.7374 5.88071C17.2674 5.88071 17.6971 5.45105 17.6971 4.92099Z" fill="#4E4E4E"/>
</svg>
