<svg width="20" height="20" viewBox="0 0 20 20" fill="none" xmlns="http://www.w3.org/2000/svg">
<path d="M10.0391 17.0703C12.7314 17.0703 14.9219 14.8799 14.9219 12.1875C14.9219 9.49512 12.7314 7.30469 10.0391 7.30469C7.34668 7.30469 5.15625 9.49512 5.15625 12.1875C5.15625 14.8799 7.34668 17.0703 10.0391 17.0703ZM10.0391 8.86719C11.6543 8.86719 13.0032 10.0268 13.2986 11.5571C12.9893 11.7594 12.5729 11.8586 12.1279 11.8316C11.664 11.8032 11.1491 11.6501 10.5075 11.3497C10.4123 11.3051 10.3171 11.2589 10.2216 11.2126C9.6577 10.9392 9.01855 10.6293 8.28418 10.5902C7.84457 10.5667 7.42797 10.6428 7.03977 10.7646C7.57355 9.64383 8.71719 8.86719 10.0391 8.86719ZM8.20106 12.1505C8.62055 12.1728 9.06715 12.3893 9.53992 12.6186C9.64164 12.6679 9.7432 12.7171 9.84484 12.7647C10.3645 13.008 11.1565 13.3377 12.0328 13.3911C12.115 13.3961 12.1964 13.3986 12.2774 13.3986C12.5866 13.3986 12.8861 13.3621 13.17 13.2913C12.7139 14.5811 11.483 15.5078 10.0391 15.5078C8.33922 15.5078 6.93445 14.2236 6.74207 12.5745C7.22062 12.3422 7.73516 12.1255 8.20106 12.1505Z" fill="white"/>
<path d="M14.9219 3.75C15.3533 3.75 15.7031 3.40022 15.7031 2.96875C15.7031 2.53728 15.3533 2.1875 14.9219 2.1875C14.4904 2.1875 14.1406 2.53728 14.1406 2.96875C14.1406 3.40022 14.4904 3.75 14.9219 3.75Z" fill="white"/>
<path d="M16.0938 0H3.90625C2.61391 0 1.5625 1.05141 1.5625 2.34375V17.6562C1.5625 18.9486 2.61391 20 3.90625 20H16.0938C17.3861 20 18.4375 18.9486 18.4375 17.6562V2.34375C18.4375 1.05141 17.3861 0 16.0938 0ZM16.875 17.6562C16.875 18.087 16.5245 18.4375 16.0938 18.4375H3.90625C3.47547 18.4375 3.125 18.087 3.125 17.6562V5.9375H16.875V17.6562ZM16.875 4.375H3.125V2.34375C3.125 1.91297 3.47547 1.5625 3.90625 1.5625H16.0938C16.5245 1.5625 16.875 1.91297 16.875 2.34375V4.375Z" fill="white"/>
<path d="M12.1484 3.75C12.5799 3.75 12.9297 3.40022 12.9297 2.96875C12.9297 2.53728 12.5799 2.1875 12.1484 2.1875C11.717 2.1875 11.3672 2.53728 11.3672 2.96875C11.3672 3.40022 11.717 3.75 12.1484 3.75Z" fill="white"/>
</svg>
