<?xml version="1.0" encoding="UTF-8" standalone="no"?>
<svg
   xmlns:dc="http://purl.org/dc/elements/1.1/"
   xmlns:cc="http://creativecommons.org/ns#"
   xmlns:rdf="http://www.w3.org/1999/02/22-rdf-syntax-ns#"
   xmlns:svg="http://www.w3.org/2000/svg"
   xmlns="http://www.w3.org/2000/svg"
   xmlns:sodipodi="http://sodipodi.sourceforge.net/DTD/sodipodi-0.dtd"
   xmlns:inkscape="http://www.inkscape.org/namespaces/inkscape"
   inkscape:version="1.0 (4035a4fb49, 2020-05-01)"
   sodipodi:docname="stock-2.svg"
   id="svg11"
   version="1.1"
   fill="none"
   viewBox="0 0 20 20"
   height="20"
   width="20">
  <metadata
     id="metadata15">
    <rdf:RDF>
      <cc:Work
         rdf:about="">
        <dc:format>image/svg+xml</dc:format>
        <dc:type
           rdf:resource="http://purl.org/dc/dcmitype/StillImage" />
      </cc:Work>
    </rdf:RDF>
  </metadata>
  <sodipodi:namedview
     inkscape:current-layer="svg11"
     inkscape:window-maximized="1"
     inkscape:window-y="-8"
     inkscape:window-x="-8"
     inkscape:cy="10.941176"
     inkscape:cx="10"
     inkscape:zoom="42.5"
     showgrid="false"
     id="namedview13"
     inkscape:window-height="1017"
     inkscape:window-width="1920"
     inkscape:pageshadow="2"
     inkscape:pageopacity="0"
     guidetolerance="10"
     gridtolerance="10"
     objecttolerance="10"
     borderopacity="1"
     bordercolor="#666666"
     pagecolor="#ffffff" />
  <g
     id="g4"
     clip-path="url(#clip0)">
    <g
       style="opacity:1"
       id="g17">
      <path
         id="path19"
         d="m 14.285,7.05168 5.5637,3.33842 c 0.1551,0.093 0.25,0.2604 0.2511,0.441 v 6e-4 c 0,0.1804 -0.093,0.3478 -0.2477,0.4427 l -3e-4,2e-4 -9.5831,5.8331 c -0.083,0.0508 -0.1761,0.0756 -0.26894,0.0756 -0.09279,0 -0.18594,-0.0248 -0.26883,-0.0755 l 1.6e-4,10e-5 0.05199,-0.0854 -0.05221,0.0852 z m 0,0 0.5751,-0.36565 2e-4,-1.2e-4 c 0.1488,-0.09508 0.2386,-0.25937 0.2386,-0.43595 0,-0.17658 -0.0898,-0.34087 -0.2386,-0.43594 l -2e-4,-1.1e-4 -4.5833,-2.9166 -10e-5,-8e-5 c -0.1694,-0.10741 -0.38526,-0.10741 -0.55464,0 l -1.3e-4,8e-5 -4.58332,2.91668 -1.2e-4,8e-5 C 4.98962,5.90912 4.89976,6.07343 4.89976,6.25 c 0,0.17657 0.08986,0.34087 0.23866,0.43595 l 1.2e-4,7e-5 0.57527,0.36643 -5.562995,3.33765 0.051447,0.0857 -0.051449,-0.0857 c -0.15461429,0.0927 -0.250951,0.2599 -0.25105,0.4413 -9.19e-4,0.1808 0.09312302,0.3492 0.248108,0.4432 H 0.147768 L 0.199762,11.1891 0.147901,11.2746 Z M 9.99976,10.2215 6.33085,7.88672 6.6882,7.67253 l 3.0337,1.93016 1.3e-4,8e-5 c 0.08475,0.05374 0.18176,0.08055 0.27773,0.08055 0.09584,0 0.19294,-0.02673 0.27714,-0.08072 10e-5,-4e-5 10e-5,-8e-5 2e-4,-1.2e-4 L 13.3104,7.67172 13.668,7.88659 Z M 6.37855,6.25 9.99976,3.94602 13.621,6.25 9.99976,8.55398 Z M 5.34071,8.4809 9.03767,10.8334 5.30946,13.2056 1.41562,10.8348 Z m 4.65905,7.5803 -3.7066,-2.2564 3.7066,-2.3588 3.70664,2.3588 z m 8.58424,-5.2255 -3.8939,2.3707 -3.7282,-2.373 3.6969,-2.3525 z"
         style="color:#000000;font-style:normal;font-variant:normal;font-weight:normal;font-stretch:normal;font-size:medium;line-height:normal;font-family:sans-serif;font-variant-ligatures:normal;font-variant-position:normal;font-variant-caps:normal;font-variant-numeric:normal;font-variant-alternates:normal;font-variant-east-asian:normal;font-feature-settings:normal;font-variation-settings:normal;text-indent:0;text-align:start;text-decoration:none;text-decoration-line:none;text-decoration-style:solid;text-decoration-color:#000000;letter-spacing:normal;word-spacing:normal;text-transform:none;writing-mode:lr-tb;direction:ltr;text-orientation:mixed;dominant-baseline:auto;baseline-shift:baseline;text-anchor:start;white-space:normal;shape-padding:0;shape-margin:0;inline-size:0;clip-rule:nonzero;display:inline;overflow:visible;visibility:visible;isolation:auto;mix-blend-mode:normal;color-interpolation:sRGB;color-interpolation-filters:linearRGB;solid-color:#000000;solid-opacity:1;vector-effect:none;fill:#ffffff;fill-opacity:1;fill-rule:nonzero;stroke:none;stroke-width:0.2;stroke-linecap:butt;stroke-linejoin:miter;stroke-miterlimit:4;stroke-dasharray:none;stroke-dashoffset:0;stroke-opacity:1.0;color-rendering:auto;image-rendering:auto;shape-rendering:auto;text-rendering:auto;enable-background:accumulate;stop-color:#000000;stop-opacity:1;" />
      <path
         id="path21"
         d="M 9.6679688 2.8125 L 5.0839844 5.7304688 C 4.9064406 5.8438263 4.7988281 6.039502 4.7988281 6.25 C 4.7988281 6.460498 4.9065315 6.6561427 5.0839844 6.7695312 L 5.0859375 6.7714844 L 5.5234375 7.0507812 L 0.18554688 10.253906 L 0.099609375 10.304688 L 0.013671875 10.355469 L 0.04296875 10.404297 C -0.083643811 10.518801 -0.20055685 10.654905 -0.20117188 10.830078 C -0.20206336 11.005464 -0.086048859 11.143612 0.041015625 11.259766 L -0.029296875 11.375 L -0.072265625 11.445312 L 0.16210938 11.375 L 0.50585938 11.375 L 0.39257812 11.306641 L 1.4707031 10.984375 L 5.3105469 13.324219 L 9.2246094 10.833984 L 6.9082031 9.359375 L 7.9628906 9.0449219 L 10 10.339844 L 10.052734 10.306641 L 13.773438 7.9394531 L 13.144531 9.3261719 L 10.775391 10.833984 L 12.083984 11.667969 L 11.738281 12.433594 L 10 11.328125 L 6.1035156 13.806641 L 10 16.177734 L 10.050781 16.146484 L 10.058594 16.140625 L 9.6464844 17.054688 L 9.640625 17.066406 L 9.7285156 17.113281 L 9.6777344 17.193359 L 9.6796875 17.193359 L 9.7636719 17.246094 L 9.7792969 17.220703 C 9.8519894 17.249302 9.9237349 17.283203 10 17.283203 C 10.110648 17.283203 10.221274 17.253976 10.320312 17.193359 L 19.904297 11.359375 C 20.088449 11.246408 20.199219 11.046799 20.199219 10.832031 L 20.199219 10.830078 C 20.197908 10.614825 20.085452 10.415653 19.900391 10.304688 L 14.474609 7.0488281 L 14.912109 6.7714844 L 14.914062 6.7695312 C 15.091523 6.6561378 15.199219 6.4604834 15.199219 6.25 C 15.199219 6.0395166 15.091527 5.843853 14.914062 5.7304688 L 14.912109 5.7285156 L 14.910156 5.7285156 L 10.335938 2.8164062 L 10.333984 2.8164062 L 10.330078 2.8125 C 10.128828 2.6848948 9.8714867 2.6856425 9.6699219 2.8125 L 9.6679688 2.8125 z M 9.7753906 2.9824219 C 9.9123203 2.8955898 10.085702 2.8955846 10.222656 2.9824219 L 14.808594 5.9003906 C 14.927304 5.977366 14.998047 6.1082677 14.998047 6.25 C 14.998047 6.3917323 14.927308 6.5226234 14.808594 6.5996094 L 14.806641 6.6015625 L 14.283203 6.9335938 L 14.240234 6.9082031 L 14.212891 6.96875 L 11.318359 7.8320312 L 13.806641 6.25 L 10 3.828125 L 6.1914062 6.25 L 6.3242188 6.3339844 L 9.5234375 8.3691406 L 8.4667969 8.6855469 L 6.6894531 7.5546875 L 6.140625 7.8847656 L 7.7402344 8.9023438 L 6.6835938 9.2167969 L 5.3417969 8.3632812 L 5.2890625 8.3945312 L 1.2226562 10.833984 L 1.2402344 10.84375 L 0.18359375 11.160156 C 0.076221503 11.081868 -0.000681016 10.966011 0 10.832031 C 7.9695906e-05 10.686003 0.078281099 10.551413 0.203125 10.476562 L 5.9042969 7.0546875 L 5.1914062 6.6015625 L 5.1894531 6.5996094 C 5.0707307 6.5226182 5 6.3916979 5 6.25 C 5 6.107358 5.07121 5.97518 5.1914062 5.8984375 L 5.1933594 5.8984375 L 9.7753906 2.9824219 z M 10 4.0644531 L 13.433594 6.25 L 10.619141 8.0429688 L 9.7773438 8.2929688 L 6.5644531 6.25 L 10 4.0644531 z M 14.332031 7.1953125 L 19.796875 10.476562 C 19.922014 10.551597 19.999111 10.686084 20 10.832031 C 20 10.978063 19.926029 11.11262 19.800781 11.189453 L 19.798828 11.189453 L 10.216797 17.021484 C 10.149836 17.062468 10.075032 17.083984 10 17.083984 C 9.9540696 17.083984 9.9112104 17.062069 9.8671875 17.046875 L 10.361328 15.957031 L 13.896484 13.806641 L 11.908203 12.542969 L 12.255859 11.775391 L 14.689453 13.324219 L 18.777344 10.835938 L 18.634766 10.75 L 14.658203 8.3632812 L 13.455078 9.1289062 L 14.332031 7.1953125 z M 14.103516 7.2089844 L 13.810547 7.8554688 L 13.308594 7.5546875 L 10.230469 9.5136719 L 10.240234 9.5097656 C 10.240234 9.5097656 10.277344 9.6015625 10.277344 9.6015625 L 10.230469 9.5136719 L 10.222656 9.5175781 C 10.155239 9.5608071 10.077247 9.5839844 10 9.5839844 C 9.9226539 9.5839844 9.8436973 9.5608914 9.7753906 9.5175781 L 8.6894531 8.8261719 L 9.7460938 8.5117188 L 10 8.671875 L 10.701172 8.2265625 L 14.103516 7.2089844 z M 13.3125 7.7890625 L 13.478516 7.8886719 L 10 10.103516 L 8.2167969 8.96875 L 8.4355469 8.9023438 L 9.6679688 9.6875 C 9.769162 9.7516667 9.8854061 9.7832031 10 9.7832031 C 10.10845 9.7832031 10.215381 9.7495075 10.3125 9.6914062 C 10.30952 9.6839412 10.277344 9.6035156 10.277344 9.6035156 L 10.322266 9.6894531 C 10.323536 9.6886631 10.324906 9.6883003 10.326172 9.6875 L 10.330078 9.6875 L 13.3125 7.7890625 z M 6.6875 7.7910156 L 8.2128906 8.7617188 L 7.9941406 8.8261719 L 6.5214844 7.890625 L 6.6875 7.7910156 z M 5.3398438 8.5976562 L 6.4316406 9.2929688 L 1.9414062 10.634766 L 5.3398438 8.5976562 z M 14.660156 8.5976562 L 18.390625 10.835938 L 14.691406 13.087891 L 12.339844 11.591797 L 13.304688 9.4609375 L 14.660156 8.5976562 z M 6.6542969 9.4355469 L 8.8515625 10.833984 L 5.3085938 13.087891 L 1.7265625 10.908203 L 6.6542969 9.4355469 z M 12.994141 9.6582031 L 12.167969 11.482422 L 11.148438 10.833984 L 12.994141 9.6582031 z M 10 11.564453 L 11.654297 12.617188 L 10.205078 15.820312 L 10 15.945312 L 6.4824219 13.802734 L 10 11.564453 z M 11.826172 12.726562 L 13.517578 13.802734 L 10.507812 15.634766 L 11.826172 12.726562 z "
         style="color:#000000;font-style:normal;font-variant:normal;font-weight:normal;font-stretch:normal;font-size:medium;line-height:normal;font-family:sans-serif;font-variant-ligatures:normal;font-variant-position:normal;font-variant-caps:normal;font-variant-numeric:normal;font-variant-alternates:normal;font-variant-east-asian:normal;font-feature-settings:normal;font-variation-settings:normal;text-indent:0;text-align:start;text-decoration:none;text-decoration-line:none;text-decoration-style:solid;text-decoration-color:#000000;letter-spacing:normal;word-spacing:normal;text-transform:none;writing-mode:lr-tb;direction:ltr;text-orientation:mixed;dominant-baseline:auto;baseline-shift:baseline;text-anchor:start;white-space:normal;shape-padding:0;shape-margin:0;inline-size:0;clip-rule:nonzero;display:inline;overflow:visible;visibility:visible;isolation:auto;mix-blend-mode:normal;color-interpolation:sRGB;color-interpolation-filters:linearRGB;solid-color:#000000;solid-opacity:1;vector-effect:none;fill:#ffffff;fill-opacity:1;fill-rule:nonzero;stroke:none;stroke-width:0.2;stroke-linecap:butt;stroke-linejoin:miter;stroke-miterlimit:4;stroke-dasharray:none;stroke-dashoffset:0;stroke-opacity:1.0;color-rendering:auto;image-rendering:auto;shape-rendering:auto;text-rendering:auto;enable-background:accumulate;stop-color:#000000;stop-opacity:1;" />
    </g>
  </g>
  <defs
     id="defs9">
    <clipPath
       id="clip0">
      <rect
         id="rect6"
         fill="white"
         height="20"
         width="20" />
    </clipPath>
  </defs>
</svg>
