<?xml version="1.0" encoding="UTF-8" standalone="no"?>
<svg
   xmlns:dc="http://purl.org/dc/elements/1.1/"
   xmlns:cc="http://creativecommons.org/ns#"
   xmlns:rdf="http://www.w3.org/1999/02/22-rdf-syntax-ns#"
   xmlns:svg="http://www.w3.org/2000/svg"
   xmlns="http://www.w3.org/2000/svg"
   xmlns:sodipodi="http://sodipodi.sourceforge.net/DTD/sodipodi-0.dtd"
   xmlns:inkscape="http://www.inkscape.org/namespaces/inkscape"
   inkscape:version="1.0 (4035a4fb49, 2020-05-01)"
   sodipodi:docname="stock-6.svg"
   id="svg150"
   version="1.1"
   fill="none"
   viewBox="0 0 18 20"
   height="20"
   width="18">
  <metadata
     id="metadata156">
    <rdf:RDF>
      <cc:Work
         rdf:about="">
        <dc:format>image/svg+xml</dc:format>
        <dc:type
           rdf:resource="http://purl.org/dc/dcmitype/StillImage" />
      </cc:Work>
    </rdf:RDF>
  </metadata>
  <defs
     id="defs154" />
  <sodipodi:namedview
     inkscape:current-layer="svg150"
     inkscape:window-maximized="1"
     inkscape:window-y="-8"
     inkscape:window-x="-8"
     inkscape:cy="46.239158"
     inkscape:cx="43.112259"
     inkscape:zoom="3.7565048"
     showgrid="false"
     id="namedview152"
     inkscape:window-height="1017"
     inkscape:window-width="1920"
     inkscape:pageshadow="2"
     inkscape:pageopacity="0"
     guidetolerance="10"
     gridtolerance="10"
     objecttolerance="10"
     borderopacity="1"
     bordercolor="#666666"
     pagecolor="#ffffff" />
  <g
     style="opacity:1"
     id="g158">
    <path
       id="path160"
       d="m 17.0133,16.9308 v 0 l 7e-4,0.0014 v 0 c 0.1721,0.3386 0.2559,0.652 0.2559,0.9811 0,1.111 -0.9036,2.0146 -2.0146,2.0146 -1.111,0 -2.0146,-0.9036 -2.0146,-2.0146 0,-0.2912 0.0615,-0.5734 0.1826,-0.8378 z m 0,0 -4e-4,-8e-4 -2e-4,-4e-4 m 6e-4,0.0012 -6e-4,-0.0012 m 0,0 -10e-5,-2e-4 -2e-4,-4e-4 m 3e-4,6e-4 -3e-4,-6e-4 m 0,0 -1.273,-2.4643 v 0 c -0.0935,-0.181 -0.2801,-0.2948 -0.4839,-0.2948 v 0 m 1.7569,2.7591 -1.7569,-2.7591 m 0,0 v 0 m 0,0 v 0 m 0,0 v 0 m 0,0 v 0 m 0,0 v 0 m 0,0 v 0 m 0,0 v 0 m 0,0 v 0 m 0,0 v 0 m 0,0 v 0 m 0,0 v 0 m 0,0 v 0 m 0,0 v 0 m 0,0 v 0 m 0,0 v 0 m 0,0 v 0 m 0,0 v 0 m 0,0 v 0 m 0,0 v 0 m 0,0 v 0 m 0,0 v 0 m 0,0 v 0 m 0,0 v 0 m 0,0 v 0 m 0,0 v 0 m 0,0 v 0 m 0,0 v 0 m 0,0 v 0 m 0,0 v 0 m 0,0 v 0 m 0,0 v 0 m 0,0 v 0 m 0,0 v 0 m 0,0 v 0 m 0,0 v 0 m 0,0 v 0 m 0,0 v 0 m 0,0 v 0 m 0,0 v 0 m 0,0 v 0 m 0,0 h -10e-5 m 10e-5,0 h -10e-5 m 0,0 v 0 m 0,0 v 0 m 0,0 v 0 m 0,0 v 0 m 0,0 v 0 m 0,0 v 0 m 0,0 v 0 m 0,0 v 0 m 0,0 v 0 m 0,0 v 0 m 0,0 v 0 m 0,0 v 0 m 0,0 v 0 m 0,0 v 0 m 0,0 v 0 m 0,0 v 0 m 0,0 v 0 m 0,0 v 0 m 0,0 v 0 m 0,0 v 0 m 0,0 v 0 m 0,0 v 0 m 0,0 v 0 m 0,0 v 0 m 0,0 v 0 m 0,0 v 0 m 0,0 v 0 m 0,0 v 0 m 0,0 v 0 m 0,0 v 0 m 0,0 v 0 m 0,0 v 0 m 0,0 v 0 m 0,0 v 0 m 0,0 v 0 m 0,0 v 0 m 0,0 v 0 m 0,0 v 0 m 0,0 v 0 m 0,0 v 0 m 0,0 v 0 m 0,0 v 0 m 0,0 v 0 m 0,0 v 0 m 0,0 v 0 m 0,0 v 0 m 0,0 v 0 m 0,0 v 0 m 0,0 v 0 m 0,0 v 0 m 0,0 v 0 m 0,0 v 0 m 0,0 v 0 m 0,0 v 0 m 0,0 v 0 m 0,0 v 0 m 0,0 v 0 m 0,0 v 0 m 0,0 v 0 m 0,0 v 0 m 0,0 v 0 m 0,0 v 0 m 0,0 v 0 m 0,0 v 0 m 0,0 v 0 m 0,0 v 0 m 0,0 v 0 m 0,0 v 0 m 0,0 v 0 m 0,0 v 0 m 0,0 v 0 m 0,0 v 0 m 0,0 v 0 m 0,0 v 0 m 0,0 v 0 m 0,0 v 0 m 0,0 v 0 m 0,0 v 0 m 0,0 v 0 m 0,0 v 0 m 0,0 v 0 m 0,0 v 0 m 0,0 v 0 m 0,0 v 0 m 0,0 v 0 m 0,0 v 0 m 0,0 v 0 m 0,0 v 0 m 0,0 v 0 m 0,0 v 0 m 0,0 v 0 m 0,0 v 0 m 0,0 v 0 m 0,0 v 0 m 0,0 v 0 m 0,0 v 0 m 0,0 v 0 m 0,0 v 0 m 0,0 v 0 m 0,0 v 0 m 0,0 v 0 m 0,0 v 0 m 0,0 v 0 m 0,0 v 0 m 0,0 v 0 m 0,0 v 0 m 0,0 v 0 m 0,0 v 0 m 0,0 v 0 m 0,0 v 0 m 0,0 v 0 m 0,0 v 0 m 0,0 v 0 m 0,0 v 0 m 0,0 v 0 m 0,0 v 0 m 0,0 v 0 m 0,0 v 0 m 0,0 v 0 m 0,0 v 0 m 0,0 v 0 m 0,0 v 0 m 0,0 v 0 m 0,0 v 0 m 0,0 v 0 m 0,0 v 0 m 0,0 v 0 m 0,0 v 0 m 0,0 v 0 m 0,0 v 0 m 0,0 v 0 m 0,0 v 0 m 0,0 v 0 m 0,0 v 0 m 0,0 v 0 m 0,0 v 0 m 0,0 v 0 m 0,0 v 0 m 0,0 v 0 m 0,0 v 0 m 0,0 v 0 m 0,0 v 0 m 0,0 v 0 m 0,0 v 0 m 0,0 v 0 m 0,0 v 0 m 0,0 v 0 m 0,0 v 0 m 0,0 v 0 m 0,0 v 0 m 0,0 v 0 m 0,0 v 0 m 0,0 v 0 m 0,0 v 0 m 0,0 v 0 m 0,0 v 0 m 0,0 v 0 m 0,0 v 0 m 0,0 v 0 m 0,0 v 0 m 0,0 v 0 m 0,0 v 0 m 0,0 v 0 m 0,0 v 0 m 0,0 v 0 m 0,0 v 0 m 0,0 v 0 m 0,0 v 0 m 0,0 v 0 m 0,0 v 0 m 0,0 v 0 m 0,0 v 0 m 0,0 v 0 m 0,0 v 0 m 0,0 v 0 m 0,0 v 0 m 0,0 v 0 m 0,0 v 0 m 0,0 v 0 m 0,0 v 0 m 0,0 v 0 m 0,0 v 0 m 0,0 v 0 m 0,0 v 0 m 0,0 h -10e-5 m 10e-5,0 h -10e-5 m 0,0 v 0 m 0,0 v 0 m 0,0 v 0 m 0,0 v 0 m 0,0 v 0 m 0,0 v 0 m 0,0 v 0 m 0,0 v 0 m 0,0 v 0 m 0,0 v 0 m 0,0 v 0 m 0,0 v 0 m 0,0 v 0 m 0,0 v 0 m 0,0 v 0 m 0,0 v 0 m 0,0 v 0 m 0,0 v 0 m 0,0 v 0 m 0,0 v 0 m 0,0 v 0 m 0,0 v 0 m 0,0 v 0 m 0,0 v 0 m 0,0 v 0 m 0,0 v 0 m 0,0 v 0 m 0,0 v 0 m 0,0 v 0 m 0,0 v 0 m 0,0 v 0 m 0,0 v 0 m 0,0 v 0 m 0,0 v 0 m 0,0 v 0 m 0,0 v 0 m 0,0 v 0 m 0,0 v 0 m 0,0 v 0 m 0,0 v 0 m 0,0 v 0 m 0,0 v 0 m 0,0 v 0 m 0,0 v 0 m 0,0 v 0 m 0,0 v 0 m 0,0 v 0 m 0,0 v 0 m 0,0 v 0 m 0,0 v 0 m 0,0 v 0 m 0,0 v 0 m 0,0 v 0 m 0,0 v 0 m 0,0 v 0 m 0,0 v 0 m 0,0 v 0 m 0,0 v 0 m 0,0 v 0 m 0,0 v 0 m 0,0 v 0 m 0,0 v 0 m 0,0 v 0 m 0,0 v 0 m 0,0 c -0.2036,0 -0.3903,0.1135 -0.4839,0.2944 m 0.4839,-0.2944 -0.4839,0.2944 m 0,0 c -0.8747,1.6902 -1.3304,2.5727 -1.3481,2.6112 z m -0.4408,3.449 c 0,0.5098 0.4149,0.9248 0.9247,0.9248 0.5099,0 0.9248,-0.415 0.9249,-0.9248 z m 0,0 c 0,-0.1315 0.027,-0.2581 0.0806,-0.3774 m -0.0806,0.3774 0.0806,-0.3774 m 0,0 c 0.0446,-0.0886 0.438,-0.8499 0.8438,-1.6345 l 0.7883,1.526 c 0.0987,0.1946 0.1369,0.3421 0.1369,0.4859 z"
       style="color:#000000;font-style:normal;font-variant:normal;font-weight:normal;font-stretch:normal;font-size:medium;line-height:normal;font-family:sans-serif;font-variant-ligatures:normal;font-variant-position:normal;font-variant-caps:normal;font-variant-numeric:normal;font-variant-alternates:normal;font-variant-east-asian:normal;font-feature-settings:normal;font-variation-settings:normal;text-indent:0;text-align:start;text-decoration:none;text-decoration-line:none;text-decoration-style:solid;text-decoration-color:#000000;letter-spacing:normal;word-spacing:normal;text-transform:none;writing-mode:lr-tb;direction:ltr;text-orientation:mixed;dominant-baseline:auto;baseline-shift:baseline;text-anchor:start;white-space:normal;shape-padding:0;shape-margin:0;inline-size:0;clip-rule:nonzero;display:inline;overflow:visible;visibility:visible;isolation:auto;mix-blend-mode:normal;color-interpolation:sRGB;color-interpolation-filters:linearRGB;solid-color:#000000;solid-opacity:1;vector-effect:none;fill:#ffffff;fill-opacity:1;fill-rule:nonzero;stroke:none;stroke-width:0.3;stroke-linecap:butt;stroke-linejoin:miter;stroke-miterlimit:4;stroke-dasharray:none;stroke-dashoffset:0;stroke-opacity:1.0;color-rendering:auto;image-rendering:auto;shape-rendering:auto;text-rendering:auto;enable-background:accumulate;stop-color:#000000;stop-opacity:1;" />
    <path
       id="path162"
       d="M 15.255859 14.019531 C 15.227831 14.019531 15.216871 14.057235 15.189453 14.060547 L 15.177734 14.041016 L 14.693359 14.335938 L 14.705078 14.353516 C 14.689529 14.376351 14.651559 14.369624 14.638672 14.394531 C 14.201311 15.239652 13.868097 15.883515 13.642578 16.320312 C 13.529819 16.538711 13.443725 16.705596 13.384766 16.820312 C 13.380011 16.829564 13.38126 16.827577 13.376953 16.835938 L 13.328125 16.929688 L 13.326172 16.929688 L 13.306641 16.972656 L 13.289062 17.005859 L 13.291016 17.005859 C 13.290359 17.007265 13.287739 17.012302 13.287109 17.013672 C 13.157189 17.29733 13.089844 17.601743 13.089844 17.914062 C 13.089844 19.106395 14.063527 20.078125 15.255859 20.078125 C 16.448192 20.078125 17.419922 19.106395 17.419922 17.914062 C 17.419922 17.560117 17.327945 17.218962 17.148438 16.865234 L 17.148438 16.863281 L 17.146484 16.863281 L 17.146484 16.861328 L 17.146484 16.859375 L 17.103516 16.777344 L 15.873047 14.396484 C 15.779943 14.21625 15.582741 14.148928 15.390625 14.101562 L 15.382812 14.089844 L 15.376953 14.09375 C 15.328341 14.082989 15.30685 14.019531 15.255859 14.019531 z M 15.208984 14.375 L 16.748047 16.791016 L 15.902344 16.826172 L 15.255859 15.574219 L 15.121094 15.832031 C 14.861589 16.333775 14.7435 16.565895 14.582031 16.878906 L 13.673828 16.916016 L 13.910156 16.458984 C 14.131226 16.030805 14.459865 15.391376 14.884766 14.570312 L 15.208984 14.375 z M 15.255859 16.228516 L 15.570312 16.839844 L 14.925781 16.865234 C 15.039577 16.644794 15.101998 16.526112 15.255859 16.228516 z M 16.902344 17.083984 C 17.036701 17.371551 17.119141 17.638291 17.119141 17.914062 C 17.119141 18.94373 16.285527 19.777344 15.255859 19.777344 C 14.226192 19.777344 13.390625 18.94373 13.390625 17.914062 C 13.390625 17.672526 13.453074 17.442718 13.542969 17.220703 L 14.423828 17.185547 C 14.396617 17.238489 14.28578 17.451992 14.277344 17.46875 L 14.273438 17.474609 C 14.272909 17.475785 14.273961 17.477338 14.273438 17.478516 L 14.189453 17.642578 L 14.232422 17.650391 L 14.208984 17.763672 L 14.179688 17.763672 L 14.179688 17.914062 C 14.179688 18.505247 14.664655 18.988281 15.255859 18.988281 C 15.780944 18.988281 16.16772 18.583387 16.259766 18.083984 L 16.330078 18.099609 L 16.330078 17.914062 L 16.330078 17.763672 L 16.289062 17.763672 C 16.26969 17.636001 16.254622 17.510969 16.177734 17.359375 L 16.052734 17.119141 L 16.902344 17.083984 z M 15.722656 17.132812 L 15.910156 17.496094 C 15.958278 17.590973 15.954221 17.645259 15.972656 17.714844 L 14.634766 17.429688 C 14.652664 17.394781 14.736843 17.233362 14.769531 17.169922 L 15.722656 17.132812 z M 14.527344 17.712891 L 14.763672 17.763672 L 14.515625 17.763672 L 14.527344 17.712891 z M 14.628906 18.0625 L 15.880859 18.0625 C 15.781262 18.375394 15.602131 18.6875 15.255859 18.6875 C 14.909577 18.6875 14.72837 18.375528 14.628906 18.0625 z "
       style="color:#000000;font-style:normal;font-variant:normal;font-weight:normal;font-stretch:normal;font-size:medium;line-height:normal;font-family:sans-serif;font-variant-ligatures:normal;font-variant-position:normal;font-variant-caps:normal;font-variant-numeric:normal;font-variant-alternates:normal;font-variant-east-asian:normal;font-feature-settings:normal;font-variation-settings:normal;text-indent:0;text-align:start;text-decoration:none;text-decoration-line:none;text-decoration-style:solid;text-decoration-color:#000000;letter-spacing:normal;word-spacing:normal;text-transform:none;writing-mode:lr-tb;direction:ltr;text-orientation:mixed;dominant-baseline:auto;baseline-shift:baseline;text-anchor:start;white-space:normal;shape-padding:0;shape-margin:0;inline-size:0;clip-rule:nonzero;display:inline;overflow:visible;visibility:visible;isolation:auto;mix-blend-mode:normal;color-interpolation:sRGB;color-interpolation-filters:linearRGB;solid-color:#000000;solid-opacity:1;vector-effect:none;fill:#ffffff;fill-opacity:1;fill-rule:nonzero;stroke:none;stroke-width:0.3;stroke-linecap:butt;stroke-linejoin:miter;stroke-miterlimit:4;stroke-dasharray:none;stroke-dashoffset:0;stroke-opacity:1.0;color-rendering:auto;image-rendering:auto;shape-rendering:auto;text-rendering:auto;enable-background:accumulate;stop-color:#000000;stop-opacity:1;" />
  </g>
  <g
     style="opacity:1"
     id="g164">
    <path
       id="path166"
       d="m 17.2567,11.6104 v 0 c -0.154,0.4142 -0.4621,0.7417 -0.8662,0.9207 l -0.0607,-0.1371 0.0607,0.1371 -2.3235,1.0293 c -0.2133,0.0945 -0.4366,0.1393 -0.6566,0.1393 z m 0,0 c 0.154,-0.4143 0.1348,-0.8635 -0.0542,-1.263 L 16.7068,9.29942 c -0.1261,-0.2667 -0.4414,-0.3845 -0.7115,-0.266 v 10e-6 m 1.2614,2.57697 -1.2614,-2.57697 m 0,0 L 15.6847,9.1697 15.0666,7.93436 C 13.8683,5.53587 10.8883,4.49176 8.45414,5.62551 c -1.2e-4,5e-5 -2.3e-4,1.1e-4 -3.4e-4,1.6e-4 L 6.24464,6.63952 V 4.32825 L 6.63568,2.83093 C 6.67499,2.73648 6.76796,2.67383 6.87159,2.67383 h 4.47591 c 0.8575,0 1.5354,-0.50262 1.9938,-0.99257 0.4605,-0.4922 0.7207,-0.993681 0.7439,-1.03916 v -4e-5 m 1.9101,8.39137 -1.9101,-8.39137 m -2.3153,10.24534 -0.0597,0.0263 v 0 c -0.1328,0.0582 -0.2369,0.1671 -0.2892,0.3022 l -10e-5,10e-5 c -0.0522,0.1352 -0.0485,0.2857 0.0104,0.4182 h 10e-5 l 0.4897,1.1001 v 0 c 0.2696,0.6056 0.8662,0.9654 1.4893,0.9654 z m 0,0 -0.6047,-1.08804 -10e-5,-4e-5 C 10.9519,9.41531 10.4752,9.26533 10.0797,9.45812 L 6.2446,11.3291 v 5.9154 c 0.76026,0.0541 1.36207,0.6897 1.36207,1.4635 v 0.8971 c 0,0.301 -0.244,0.5449 -0.54492,0.5449 H 1.18472 c -0.30098,0 -0.544925,-0.244 -0.544925,-0.5449 V 18.708 c 0,-0.7474 0.561395,-1.3653 1.284575,-1.4554 v -4.3062 c 0,-0.3009 0.244,-0.5449 0.54492,-0.5449 0.30097,0 0.54492,0.244 0.54492,0.5449 v 4.2944 h 2.14062 v -6.2522 c 0,-0.2083 0.11879,-0.3984 0.30599,-0.4897 h 10e-6 l 4.14113,-2.02027 3e-5,-2e-5 C 10.5181,8.03194 11.6231,8.37954 12.1178,9.27002 v 3e-5 l 0.6545,1.17755 1.9132,-0.8395 -0.5936,-1.18641 -1e-4,-7e-5 C 13.1537,6.54406 10.8168,5.72705 8.91193,6.61445 l -7.8e-4,3.6e-4 -2.98409,1.3695 c -2e-5,1e-5 -3e-5,2e-5 -5e-5,3e-5 C 5.75838,8.06178 5.56183,8.04803 5.40558,7.94779 Z M 14.0852,0.64206 c 0.086,-0.168919 0.078,-0.370391 -0.0211,-0.531984 M 14.0852,0.64206 14.0641,0.110076 m -10.49924,0.854205 -1e-5,10e-7 C 3.25171,0.993302 3.01413,1.25443 3.01413,1.57566 V 3.71254 H 5.2791 l 0.30908,-1.18345 2e-5,-7e-5 z m 0,0 C 3.74029,0.948014 3.91527,0.939805 4.08479,0.939805 M 3.56486,0.964281 4.08479,0.939805 m 8.69491,11.412295 0.137,-0.061 c 0.1203,0.2702 0.4385,0.3927 0.7088,0.2729 v 0 l 2.3235,-1.0293 c 0.134,-0.0593 0.2352,-0.1669 0.2862,-0.3041 v -1e-4 z m 0,0 0.137,-0.061 -0.2669,-0.5996 m 0.1299,0.6606 -0.1299,-0.6606 M 14.0641,0.110076 C 13.9651,-0.051549 13.7891,-0.15 13.5996,-0.15 M 14.0641,0.110076 13.5996,-0.15 m 0,0 H 4.08476 m 9.51484,0 H 4.08476 m 0,0 c -0.20327,0 -0.41199,0.009796 -0.62048,0.029115 z m 3e-5,1.089805 h 8.45531 m -8.45531,0 h 8.45531 m 0,0 C 12.4189,1.06957 12.2824,1.19529 12.1336,1.30079 11.8923,1.47187 11.6272,1.58402 11.3475,1.58402 H 6.87163 c -0.57263,0 -1.08337,0.36322 -1.271,0.90406 z M 12.6498,11.6915 15.9481,10.2442 Z M 3.46427,-0.120884 C 2.58621,-0.0395738 1.92429,0.690937 1.92429,1.57566 V 4.2575 c 0,0.00224 5e-5,0.0043 1.1e-4,0.00609 v 5.21137 c 0,0.30092 0.24395,0.54494 0.54493,0.54494 0.30091,0 0.54492,-0.24396 0.54492,-0.54494 V 4.8025 h 2.14058 v 2.6866 c 0,0.18561 0.09448,0.35846 0.25072,0.45867 z M 6.51687,18.708 v 0.3522 H 1.72964 V 18.708 c 0,-0.2079 0.1694,-0.3773 0.3773,-0.3773 h 4.03258 c 0.20794,0 0.37735,0.1694 0.37735,0.3773 z"
       style="color:#000000;font-style:normal;font-variant:normal;font-weight:normal;font-stretch:normal;font-size:medium;line-height:normal;font-family:sans-serif;font-variant-ligatures:normal;font-variant-position:normal;font-variant-caps:normal;font-variant-numeric:normal;font-variant-alternates:normal;font-variant-east-asian:normal;font-feature-settings:normal;font-variation-settings:normal;text-indent:0;text-align:start;text-decoration:none;text-decoration-line:none;text-decoration-style:solid;text-decoration-color:#000000;letter-spacing:normal;word-spacing:normal;text-transform:none;writing-mode:lr-tb;direction:ltr;text-orientation:mixed;dominant-baseline:auto;baseline-shift:baseline;text-anchor:start;white-space:normal;shape-padding:0;shape-margin:0;inline-size:0;clip-rule:nonzero;display:inline;overflow:visible;visibility:visible;isolation:auto;mix-blend-mode:normal;color-interpolation:sRGB;color-interpolation-filters:linearRGB;solid-color:#000000;solid-opacity:1;vector-effect:none;fill:#ffffff;fill-opacity:1;fill-rule:nonzero;stroke:none;stroke-width:0.3;stroke-linecap:butt;stroke-linejoin:miter;stroke-miterlimit:4;stroke-dasharray:none;stroke-dashoffset:0;stroke-opacity:1.0;color-rendering:auto;image-rendering:auto;shape-rendering:auto;text-rendering:auto;enable-background:accumulate;stop-color:#000000;stop-opacity:1;" />
    <path
       id="path168"
       d="M 4.078125 -0.30078125 L 3.5800781 -0.27734375 L 3.5800781 -0.28125 L 3.4902344 -0.2734375 L 3.4570312 -0.27148438 L 3.4570312 -0.26953125 L 3.4511719 -0.26953125 C 2.4978666 -0.18125318 1.7734375 0.61663223 1.7734375 1.5761719 L 1.7734375 4.2578125 C 1.7734375 4.2599881 1.7734025 4.2618484 1.7734375 4.2636719 L 1.7734375 9.4746094 C 1.7734375 9.8565974 2.0866948 10.169922 2.46875 10.169922 C 2.8507341 10.169922 3.1640625 9.8566612 3.1640625 9.4746094 L 3.1640625 4.953125 L 4.53125 4.953125 L 5.0039062 6.9199219 L 5.0039062 7.4882812 C 5.0039062 7.6687571 5.1262987 7.8077775 5.2480469 7.9355469 L 5.2597656 7.9824219 L 5.2695312 7.9746094 C 5.2986591 8.001346 5.2903401 8.0524895 5.3242188 8.0742188 L 5.3417969 8.0839844 L 5.6386719 8.2753906 L 5.6230469 8.2148438 L 7.7695312 9.2050781 L 5.3945312 10.363281 C 5.1560707 10.479582 5.0039062 10.722948 5.0039062 10.988281 L 5.0039062 17.089844 L 3.1640625 17.089844 L 3.1640625 12.947266 C 3.1640625 12.565292 2.8507912 12.251953 2.46875 12.251953 C 2.0867453 12.251953 1.7734375 12.565276 1.7734375 12.947266 L 1.7734375 17.173828 C 1.0525677 17.336643 0.49023438 17.938766 0.49023438 18.707031 L 0.49023438 19.605469 C 0.49023438 19.987441 0.80349836 20.300781 1.1855469 20.300781 L 7.0625 20.300781 C 7.4444714 20.300781 7.7558594 19.987532 7.7558594 19.605469 L 7.7558594 18.707031 C 7.7558594 17.910966 7.1544384 17.294154 6.3945312 17.162109 L 6.3945312 11.421875 L 9.3984375 9.9570312 L 11.503906 10.929688 C 11.422278 11.002387 11.321403 11.058387 11.28125 11.162109 C 11.21472 11.334424 11.219843 11.526418 11.294922 11.695312 L 11.333984 11.785156 L 11.783203 12.794922 C 12.077264 13.455468 12.729313 13.849609 13.410156 13.849609 L 13.671875 13.849609 L 13.642578 13.800781 C 13.805664 13.778933 13.969672 13.766947 14.126953 13.697266 L 16.314453 12.728516 L 16.451172 12.667969 L 16.587891 12.607422 L 16.5625 12.548828 C 16.892442 12.363792 17.157949 12.095476 17.314453 11.75 L 17.328125 11.742188 L 17.324219 11.738281 C 17.338921 11.705053 17.383723 11.696433 17.396484 11.662109 L 17.537109 11.287109 L 17.384766 11.371094 C 17.454387 11.004672 17.500347 10.626596 17.337891 10.283203 L 16.841797 9.234375 C 16.716884 8.9701857 16.411856 8.9524447 16.134766 8.9707031 C 16.134094 8.9707474 16.133485 8.9706569 16.132812 8.9707031 L 14.234375 0.61523438 L 14.232422 0.609375 L 14.214844 0.10351562 L 14.195312 0.10351562 C 14.184511 0.080561179 14.204839 0.05315301 14.191406 0.03125 C 14.177754 0.0089623294 14.142809 0.016444243 14.126953 -0.00390625 L 14.136719 -0.021484375 L 13.673828 -0.28125 L 13.664062 -0.26367188 C 13.638109 -0.26663196 13.626071 -0.30078125 13.599609 -0.30078125 L 4.0839844 -0.30078125 C 4.0820623 -0.30078125 4.0800479 -0.30078296 4.078125 -0.30078125 z M 11.28125 11.162109 L 11.314453 11.109375 L 11.292969 11.132812 L 11.28125 11.162109 z M 4.0839844 0 L 4.0917969 0 L 13.560547 0 L 13.917969 0.19921875 L 13.933594 0.59960938 C 13.902912 0.65906112 13.666324 1.1143538 13.232422 1.578125 C 12.789462 2.0515727 12.146542 2.5234375 11.347656 2.5234375 L 6.8710938 2.5234375 C 6.7070083 2.5234375 6.5605534 2.6232532 6.4980469 2.7734375 L 6.4941406 2.7832031 L 6.09375 4.3085938 L 6.09375 6.8730469 L 8.5117188 5.7636719 L 8.515625 5.7636719 L 8.515625 5.7617188 L 8.5175781 5.7617188 C 10.877311 4.6626342 13.769999 5.676838 14.931641 8.0019531 L 15.615234 9.3652344 L 15.923828 9.2285156 L 17.058594 11.546875 L 13.466797 13.498047 L 12.873047 12.478516 L 13.001953 12.4375 C 13.197681 12.622394 13.425467 12.816442 13.685547 12.701172 L 16.009766 11.671875 C 16.179612 11.596711 16.310344 11.45714 16.375 11.283203 L 16.384766 11.257812 L 16.384766 11.023438 L 13.005859 12.121094 L 12.992188 12.09375 L 12.847656 11.767578 L 16.007812 10.380859 L 15.888672 10.107422 L 12.589844 11.554688 L 12.650391 11.691406 L 12.501953 11.720703 L 12.539062 11.908203 L 11.900391 10.814453 L 11.876953 10.773438 L 11.296875 9.7265625 L 11.294922 9.7246094 C 11.042996 9.2740319 10.478503 9.0976325 10.013672 9.3242188 L 9.3945312 9.6269531 L 8.46875 9.1992188 L 9.6699219 8.6132812 C 10.515392 8.2022657 11.529971 8.5222881 11.986328 9.34375 L 11.984375 9.3378906 L 12.707031 10.640625 L 14.890625 9.6816406 L 14.226562 8.3554688 L 14.208984 8.3203125 L 14.1875 8.3046875 C 13.193691 6.3955415 10.807 5.5657386 8.8476562 6.4785156 L 5.8652344 7.8476562 C 5.7574153 7.89717 5.636576 7.8770783 5.53125 7.8261719 L 5.3046875 6.8867188 L 5.3046875 4.6523438 L 4.7675781 4.6523438 L 4.578125 3.8632812 L 5.3945312 3.8632812 L 5.7207031 2.6152344 L 9.6679688 1.734375 L 11.347656 1.734375 C 11.667453 1.734375 11.962349 1.6069996 12.220703 1.4238281 C 12.380062 1.3108421 12.523831 1.1784722 12.650391 1.0429688 L 12.980469 0.6875 L 12.525391 0.7890625 L 4.0839844 0.7890625 C 4.0820726 0.7890625 4.080038 0.78906047 4.078125 0.7890625 L 3.8398438 0.80078125 L 3.6523438 0.021484375 L 3.78125 0.015625 C 3.8826234 0.010867262 3.9847435 0 4.0839844 0 z M 11.294922 9.7246094 L 11.269531 9.6796875 L 11.220703 9.6601562 L 11.294922 9.7246094 z M 3.359375 0.087890625 L 3.5390625 0.828125 C 3.1605241 0.87354919 2.8632812 1.1879153 2.8632812 1.5761719 L 2.8632812 3.8632812 L 4.2695312 3.8632812 L 4.4589844 4.6523438 L 2.8632812 4.6523438 L 2.8632812 9.4746094 C 2.8632812 9.6945175 2.6885859 9.8691406 2.46875 9.8691406 C 2.2488452 9.8691406 2.0742188 9.6944613 2.0742188 9.4746094 L 2.0742188 4.2617188 L 2.0742188 4.2578125 L 2.0742188 1.5761719 C 2.0742188 0.81427911 2.6279834 0.22201539 3.359375 0.087890625 z M 14.013672 0.99804688 L 15.822266 8.9453125 L 15.755859 8.9746094 L 15.201172 7.8671875 C 13.966213 5.3953227 10.899212 4.3218189 8.390625 5.4902344 L 8.3925781 5.4882812 L 8.390625 5.4882812 L 6.3945312 6.40625 L 6.3945312 4.3476562 L 6.7773438 2.8867188 C 6.7944094 2.8503614 6.8295192 2.8242188 6.8710938 2.8242188 L 11.347656 2.8242188 C 12.263771 2.8242188 12.977332 2.2896555 13.451172 1.7832031 C 13.799789 1.4105876 13.902061 1.1923815 14.013672 0.99804688 z M 4.0839844 1.0898438 L 4.0917969 1.0898438 L 11.177734 1.0898438 L 9.6367188 1.4335938 L 6.8710938 1.4335938 C 6.2905389 1.4335938 5.800221 1.7968881 5.5546875 2.3125 L 3.9785156 1.0957031 L 4.0839844 1.0898438 z M 3.5507812 1.1425781 L 3.6289062 1.203125 L 4.1953125 3.5625 L 3.1640625 3.5625 L 3.1640625 1.5761719 C 3.1640625 1.3448533 3.3361723 1.1833394 3.5507812 1.1425781 z M 11.869141 1.2421875 C 11.697917 1.3355235 11.526419 1.4335938 11.347656 1.4335938 L 11.015625 1.4335938 L 11.869141 1.2421875 z M 4.0078125 1.4960938 L 5.4101562 2.5820312 L 5.3710938 2.6933594 L 5.3925781 2.6894531 L 5.1640625 3.5625 L 4.5039062 3.5625 L 4.0078125 1.4960938 z M 6.8710938 1.734375 L 8.2890625 1.734375 L 6.2226562 2.1953125 C 6.4345358 2.013688 6.5786438 1.734375 6.8710938 1.734375 z M 4.8398438 4.953125 L 5.0039062 4.953125 L 5.0039062 5.6367188 L 4.8398438 4.953125 z M 10.398438 6.4082031 C 11.84586 6.3543566 13.281012 7.1352623 13.957031 8.4882812 L 13.974609 8.5234375 L 14.480469 9.5351562 L 12.837891 10.255859 L 12.267578 9.2304688 L 12.248047 9.1972656 C 11.715344 8.2383794 10.523483 7.8628215 9.5371094 8.34375 L 9.5273438 8.3476562 L 8.1171875 9.0351562 L 6.0644531 8.0878906 L 8.9746094 6.7519531 L 8.9746094 6.75 C 9.4321985 6.5368282 9.9159635 6.426152 10.398438 6.4082031 z M 16.269531 9.25 C 16.382249 9.2764734 16.516562 9.2495998 16.570312 9.3632812 L 17.066406 10.412109 C 17.143508 10.575083 17.073169 10.752333 17.087891 10.925781 L 16.269531 9.25 z M 8.1210938 9.3671875 L 9.046875 9.7949219 L 6.09375 11.236328 L 6.09375 17.384766 L 6.234375 17.394531 C 6.9172534 17.443125 7.4570313 18.011005 7.4570312 18.707031 L 7.4570312 19.605469 C 7.4570312 19.825406 7.2823686 20 7.0625 20 L 1.1855469 20 C 0.96563539 20 0.7890625 19.825297 0.7890625 19.605469 L 0.7890625 18.707031 C 0.7890625 18.034744 1.2942192 17.483219 1.9433594 17.402344 L 2.0742188 17.384766 L 2.0742188 12.947266 C 2.0742188 12.727456 2.2489147 12.550781 2.46875 12.550781 C 2.6886488 12.550781 2.8632812 12.727439 2.8632812 12.947266 L 2.8632812 17.390625 L 5.3046875 17.390625 L 5.3046875 10.988281 C 5.3046875 10.83701 5.3914062 10.699111 5.5273438 10.632812 L 8.1210938 9.3671875 z M 10.144531 9.59375 C 10.469815 9.4351875 10.858017 9.5575062 11.033203 9.8730469 L 11.060547 9.9179688 L 11.416016 10.560547 L 9.7460938 9.7890625 L 10.144531 9.59375 z M 11.720703 11.101562 L 12.990234 13.277344 C 12.628717 13.144553 12.227601 13.053466 12.058594 12.673828 L 11.568359 11.574219 C 11.568086 11.573603 11.56863 11.572882 11.568359 11.572266 C 11.526421 11.476612 11.522919 11.366988 11.560547 11.269531 C 11.589625 11.194417 11.655026 11.146291 11.720703 11.101562 z M 15.027344 11.779297 L 13.564453 12.427734 C 13.470772 12.469255 13.409787 12.365089 13.320312 12.333984 L 15.027344 11.779297 z M 16.541016 12.169922 C 16.456051 12.231877 16.428942 12.350738 16.330078 12.394531 L 16.193359 12.455078 L 15.236328 12.878906 L 16.541016 12.169922 z M 2.1074219 18.181641 C 1.8180404 18.181641 1.5800781 18.41765 1.5800781 18.707031 L 1.5800781 19.210938 L 6.6660156 19.210938 L 6.6660156 18.707031 C 6.6660156 18.417645 6.4280777 18.181641 6.1386719 18.181641 L 2.1074219 18.181641 z M 2.1074219 18.480469 L 6.1386719 18.480469 C 6.2651461 18.480469 6.3671875 18.580618 6.3671875 18.707031 L 6.3671875 18.910156 L 1.8789062 18.910156 L 1.8789062 18.707031 C 1.8789062 18.580613 1.9810034 18.480469 2.1074219 18.480469 z "
       style="color:#000000;font-style:normal;font-variant:normal;font-weight:normal;font-stretch:normal;font-size:medium;line-height:normal;font-family:sans-serif;font-variant-ligatures:normal;font-variant-position:normal;font-variant-caps:normal;font-variant-numeric:normal;font-variant-alternates:normal;font-variant-east-asian:normal;font-feature-settings:normal;font-variation-settings:normal;text-indent:0;text-align:start;text-decoration:none;text-decoration-line:none;text-decoration-style:solid;text-decoration-color:#000000;letter-spacing:normal;word-spacing:normal;text-transform:none;writing-mode:lr-tb;direction:ltr;text-orientation:mixed;dominant-baseline:auto;baseline-shift:baseline;text-anchor:start;white-space:normal;shape-padding:0;shape-margin:0;inline-size:0;clip-rule:nonzero;display:inline;overflow:visible;visibility:visible;isolation:auto;mix-blend-mode:normal;color-interpolation:sRGB;color-interpolation-filters:linearRGB;solid-color:#000000;solid-opacity:1;vector-effect:none;fill:#ffffff;fill-opacity:1;fill-rule:nonzero;stroke:none;stroke-width:0.3;stroke-linecap:butt;stroke-linejoin:miter;stroke-miterlimit:4;stroke-dasharray:none;stroke-dashoffset:0;stroke-opacity:1.0;color-rendering:auto;image-rendering:auto;shape-rendering:auto;text-rendering:auto;enable-background:accumulate;stop-color:#000000;stop-opacity:1;" />
  </g>
  <g
     style="opacity:1"
     id="g170">
    <path
       id="path172"
       d="m 1.96566,11.3879 c 0.18509,0.4509 0.83855,0.4366 1.01146,-0.0123 v 0 C 3.16038,10.8998 2.62613,10.4504 2.18884,10.7123 1.95971,10.8495 1.86304,11.1411 1.96566,11.3879 Z"
       style="color:#000000;font-style:normal;font-variant:normal;font-weight:normal;font-stretch:normal;font-size:medium;line-height:normal;font-family:sans-serif;font-variant-ligatures:normal;font-variant-position:normal;font-variant-caps:normal;font-variant-numeric:normal;font-variant-alternates:normal;font-variant-east-asian:normal;font-feature-settings:normal;font-variation-settings:normal;text-indent:0;text-align:start;text-decoration:none;text-decoration-line:none;text-decoration-style:solid;text-decoration-color:#000000;letter-spacing:normal;word-spacing:normal;text-transform:none;writing-mode:lr-tb;direction:ltr;text-orientation:mixed;dominant-baseline:auto;baseline-shift:baseline;text-anchor:start;white-space:normal;shape-padding:0;shape-margin:0;inline-size:0;clip-rule:nonzero;display:inline;overflow:visible;visibility:visible;isolation:auto;mix-blend-mode:normal;color-interpolation:sRGB;color-interpolation-filters:linearRGB;solid-color:#000000;solid-opacity:1;vector-effect:none;fill:#ffffff;fill-opacity:1;fill-rule:nonzero;stroke:none;stroke-width:0.3;stroke-linecap:butt;stroke-linejoin:miter;stroke-miterlimit:4;stroke-dasharray:none;stroke-dashoffset:0;stroke-opacity:1.0;color-rendering:auto;image-rendering:auto;shape-rendering:auto;text-rendering:auto;enable-background:accumulate;stop-color:#000000;stop-opacity:1;" />
    <path
       id="path174"
       d="M 2.1113281 10.583984 C 1.8177821 10.759756 1.6966017 11.129 1.828125 11.445312 C 2.0617782 12.010134 2.8993303 11.995277 3.1171875 11.429688 C 3.2320827 11.131384 3.1201049 10.827339 2.9121094 10.652344 C 2.7041138 10.477348 2.3855189 10.419767 2.1113281 10.583984 z M 2.265625 10.841797 C 2.4287243 10.744114 2.5961131 10.779633 2.71875 10.882812 C 2.8413869 10.985992 2.9062554 11.144769 2.8378906 11.322266 C 2.7101602 11.653873 2.2410851 11.665213 2.1035156 11.330078 C 2.029799 11.15279 2.100911 10.940425 2.265625 10.841797 z "
       style="color:#000000;font-style:normal;font-variant:normal;font-weight:normal;font-stretch:normal;font-size:medium;line-height:normal;font-family:sans-serif;font-variant-ligatures:normal;font-variant-position:normal;font-variant-caps:normal;font-variant-numeric:normal;font-variant-alternates:normal;font-variant-east-asian:normal;font-feature-settings:normal;font-variation-settings:normal;text-indent:0;text-align:start;text-decoration:none;text-decoration-line:none;text-decoration-style:solid;text-decoration-color:#000000;letter-spacing:normal;word-spacing:normal;text-transform:none;writing-mode:lr-tb;direction:ltr;text-orientation:mixed;dominant-baseline:auto;baseline-shift:baseline;text-anchor:start;white-space:normal;shape-padding:0;shape-margin:0;inline-size:0;clip-rule:nonzero;display:inline;overflow:visible;visibility:visible;isolation:auto;mix-blend-mode:normal;color-interpolation:sRGB;color-interpolation-filters:linearRGB;solid-color:#000000;solid-opacity:1;vector-effect:none;fill:#ffffff;fill-opacity:1;fill-rule:nonzero;stroke:none;stroke-width:0.3;stroke-linecap:butt;stroke-linejoin:miter;stroke-miterlimit:4;stroke-dasharray:none;stroke-dashoffset:0;stroke-opacity:1.0;color-rendering:auto;image-rendering:auto;shape-rendering:auto;text-rendering:auto;enable-background:accumulate;stop-color:#000000;stop-opacity:1;" />
  </g>
</svg>
