<?xml version="1.0" encoding="UTF-8" standalone="no"?>
<svg
   xmlns:dc="http://purl.org/dc/elements/1.1/"
   xmlns:cc="http://creativecommons.org/ns#"
   xmlns:rdf="http://www.w3.org/1999/02/22-rdf-syntax-ns#"
   xmlns:svg="http://www.w3.org/2000/svg"
   xmlns="http://www.w3.org/2000/svg"
   xmlns:sodipodi="http://sodipodi.sourceforge.net/DTD/sodipodi-0.dtd"
   xmlns:inkscape="http://www.inkscape.org/namespaces/inkscape"
   inkscape:version="1.0 (4035a4fb49, 2020-05-01)"
   sodipodi:docname="stock-5.svg"
   id="svg260"
   version="1.1"
   fill="none"
   viewBox="0 0 20 20"
   height="20"
   width="20">
  <metadata
     id="metadata264">
    <rdf:RDF>
      <cc:Work
         rdf:about="">
        <dc:format>image/svg+xml</dc:format>
        <dc:type
           rdf:resource="http://purl.org/dc/dcmitype/StillImage" />
      </cc:Work>
    </rdf:RDF>
  </metadata>
  <sodipodi:namedview
     inkscape:current-layer="g253"
     inkscape:window-maximized="1"
     inkscape:window-y="-8"
     inkscape:window-x="-8"
     inkscape:cy="11.991652"
     inkscape:cx="16.163838"
     inkscape:zoom="21.25"
     showgrid="false"
     id="namedview262"
     inkscape:window-height="1017"
     inkscape:window-width="1920"
     inkscape:pageshadow="2"
     inkscape:pageopacity="0"
     guidetolerance="10"
     gridtolerance="10"
     objecttolerance="10"
     borderopacity="1"
     bordercolor="#666666"
     pagecolor="#ffffff" />
  <g
     id="g253"
     clip-path="url(#clip0)">
    <g
       style="opacity:1"
       id="g266">
      <path
         id="path268"
         d="m 10.1748,2.2511 -10e-5,-3e-5 L 6.40316,0.860942 H 15.9241 V 19.1391 h -9.521 l 3.7716,-1.3902 v 0 c 0.1988,-0.0732 0.3306,-0.2627 0.3306,-0.4742 V 2.7254 c 0,-0.21172 -0.132,-0.401 -0.3305,-0.4743 z M 16.4296,-0.15 H 3.57011 C 3.29092,-0.15 3.0646,0.0763235 3.0646,0.35551 V 19.6445 c 0,0.2792 0.22622,0.5055 0.50543,0.5055 H 16.4296 c 0.2792,0 0.5054,-0.2264 0.5054,-0.5055 V 0.35557 0.35551 C 16.9351,0.0763147 16.7087,-0.15 16.4296,-0.15 Z M 9.49436,16.9221 4.07554,18.9194 V 1.08054 L 9.49436,3.0778 Z"
         style="color:#000000;font-style:normal;font-variant:normal;font-weight:normal;font-stretch:normal;font-size:medium;line-height:normal;font-family:sans-serif;font-variant-ligatures:normal;font-variant-position:normal;font-variant-caps:normal;font-variant-numeric:normal;font-variant-alternates:normal;font-variant-east-asian:normal;font-feature-settings:normal;font-variation-settings:normal;text-indent:0;text-align:start;text-decoration:none;text-decoration-line:none;text-decoration-style:solid;text-decoration-color:#000000;letter-spacing:normal;word-spacing:normal;text-transform:none;writing-mode:lr-tb;direction:ltr;text-orientation:mixed;dominant-baseline:auto;baseline-shift:baseline;text-anchor:start;white-space:normal;shape-padding:0;shape-margin:0;inline-size:0;clip-rule:nonzero;display:inline;overflow:visible;visibility:visible;isolation:auto;mix-blend-mode:normal;color-interpolation:sRGB;color-interpolation-filters:linearRGB;solid-color:#000000;solid-opacity:1;vector-effect:none;fill:#ffffff;fill-opacity:1;fill-rule:nonzero;stroke:none;stroke-width:0.3;stroke-linecap:butt;stroke-linejoin:miter;stroke-miterlimit:4;stroke-dasharray:none;stroke-dashoffset:0;stroke-opacity:1.0;color-rendering:auto;image-rendering:auto;shape-rendering:auto;text-rendering:auto;enable-background:accumulate;stop-color:#000000;stop-opacity:1;" />
      <path
         id="path270"
         d="M 3.5703125 -0.30078125 C 3.2100582 -0.30078125 2.9140625 -0.0047818448 2.9140625 0.35546875 L 2.9140625 19.644531 C 2.9140625 20.004756 3.2100524 20.300781 3.5703125 20.300781 L 16.429688 20.300781 C 16.789976 20.300781 17.085938 20.004677 17.085938 19.644531 L 17.085938 0.35546875 C 17.086067 -0.0048457612 16.789875 -0.30078125 16.429688 -0.30078125 L 3.5703125 -0.30078125 z M 3.5703125 0 L 16.429688 0 C 16.6277 0 16.785227 0.15739266 16.785156 0.35546875 L 16.785156 19.644531 C 16.785156 19.842585 16.627799 20 16.429688 20 L 3.5703125 20 C 3.3721526 20 3.2148438 19.842707 3.2148438 19.644531 L 3.2148438 0.35546875 C 3.2148438 0.15734634 3.3721868 -7.4014868e-17 3.5703125 0 z M 6.4023438 0.7109375 L 6.3515625 1.0019531 L 10.126953 2.3925781 L 10.123047 2.3925781 C 10.263101 2.4442958 10.355469 2.5752359 10.355469 2.7246094 L 10.355469 17.275391 C 10.355469 17.424574 10.263249 17.555798 10.123047 17.607422 L 6.3515625 18.998047 L 6.4023438 19.289062 L 16.074219 19.289062 L 16.074219 0.7109375 L 6.4023438 0.7109375 z M 3.9257812 0.86523438 L 3.9257812 19.134766 L 9.6445312 17.027344 L 9.6445312 16.921875 L 9.6445312 2.9726562 L 3.9257812 0.86523438 z M 7.2441406 1.0117188 L 15.773438 1.0117188 L 15.773438 18.988281 L 7.2441406 18.988281 L 10.226562 17.888672 C 10.483045 17.793453 10.65625 17.548623 10.65625 17.275391 L 10.65625 2.7246094 C 10.65625 2.4505429 10.483508 2.2062104 10.226562 2.1113281 L 10.222656 2.109375 L 10.21875 2.1074219 L 7.2441406 1.0117188 z M 4.2246094 1.2949219 L 9.34375 3.1816406 L 9.34375 16.818359 L 4.2246094 18.705078 L 4.2246094 1.2949219 z "
         style="color:#000000;font-style:normal;font-variant:normal;font-weight:normal;font-stretch:normal;font-size:medium;line-height:normal;font-family:sans-serif;font-variant-ligatures:normal;font-variant-position:normal;font-variant-caps:normal;font-variant-numeric:normal;font-variant-alternates:normal;font-variant-east-asian:normal;font-feature-settings:normal;font-variation-settings:normal;text-indent:0;text-align:start;text-decoration:none;text-decoration-line:none;text-decoration-style:solid;text-decoration-color:#000000;letter-spacing:normal;word-spacing:normal;text-transform:none;writing-mode:lr-tb;direction:ltr;text-orientation:mixed;dominant-baseline:auto;baseline-shift:baseline;text-anchor:start;white-space:normal;shape-padding:0;shape-margin:0;inline-size:0;clip-rule:nonzero;display:inline;overflow:visible;visibility:visible;isolation:auto;mix-blend-mode:normal;color-interpolation:sRGB;color-interpolation-filters:linearRGB;solid-color:#000000;solid-opacity:1;vector-effect:none;fill:#ffffff;fill-opacity:1;fill-rule:nonzero;stroke:none;stroke-width:0.3;stroke-linecap:butt;stroke-linejoin:miter;stroke-miterlimit:4;stroke-dasharray:none;stroke-dashoffset:0;stroke-opacity:1.0;color-rendering:auto;image-rendering:auto;shape-rendering:auto;text-rendering:auto;enable-background:accumulate;stop-color:#000000;stop-opacity:1;" />
    </g>
    <g
       style="opacity:1"
       id="g272">
      <path
         id="path274"
         d="m 8.48993,8.76752 c -0.50674,0 -0.90375,0.5414 -0.90375,1.23258 0,0.6912 0.39701,1.2326 0.90375,1.2326 0.50682,0 0.90375,-0.5414 0.90375,-1.2326 0,-0.69118 -0.39693,-1.23258 -0.90375,-1.23258 z m -8e-5,1.75408 C 8.44356,10.5101 8.29712,10.3299 8.29712,10.0001 c 0,-0.32978 0.14644,-0.50985 0.19273,-0.52148 0.04638,0.01171 0.19289,0.1921 0.19289,0.52148 0,0.3294 -0.14651,0.5098 -0.19289,0.5215 z"
         style="color:#000000;font-style:normal;font-variant:normal;font-weight:normal;font-stretch:normal;font-size:medium;line-height:normal;font-family:sans-serif;font-variant-ligatures:normal;font-variant-position:normal;font-variant-caps:normal;font-variant-numeric:normal;font-variant-alternates:normal;font-variant-east-asian:normal;font-feature-settings:normal;font-variation-settings:normal;text-indent:0;text-align:start;text-decoration:none;text-decoration-line:none;text-decoration-style:solid;text-decoration-color:#000000;letter-spacing:normal;word-spacing:normal;text-transform:none;writing-mode:lr-tb;direction:ltr;text-orientation:mixed;dominant-baseline:auto;baseline-shift:baseline;text-anchor:start;white-space:normal;shape-padding:0;shape-margin:0;inline-size:0;clip-rule:nonzero;display:inline;overflow:visible;visibility:visible;isolation:auto;mix-blend-mode:normal;color-interpolation:sRGB;color-interpolation-filters:linearRGB;solid-color:#000000;solid-opacity:1;vector-effect:none;fill:#ffffff;fill-opacity:1;fill-rule:nonzero;stroke-width:1;stroke-linecap:butt;stroke-linejoin:miter;stroke-miterlimit:4;stroke-dasharray:none;stroke-dashoffset:0;stroke-opacity:1.0;color-rendering:auto;image-rendering:auto;shape-rendering:auto;text-rendering:auto;enable-background:accumulate;stop-color:#000000;stop-opacity:1;stroke:none;" />
      <path
         id="path276"
         d="M 8.4902344 8.2675781 C 8.058798 8.2675781 7.6811454 8.5064954 7.4453125 8.828125 C 7.2094796 9.1497546 7.0859375 9.5586776 7.0859375 10 C 7.0859375 10.44133 7.2094797 10.850242 7.4453125 11.171875 C 7.6811453 11.493508 8.058798 11.732422 8.4902344 11.732422 C 8.9216826 11.732422 9.2993297 11.493519 9.5351562 11.171875 C 9.7709828 10.850231 9.8945312 10.44131 9.8945312 10 C 9.8945312 9.5586969 9.7709829 9.1497658 9.5351562 8.828125 C 9.2993296 8.5064842 8.9216826 8.2675781 8.4902344 8.2675781 z "
         style="color:#000000;font-style:normal;font-variant:normal;font-weight:normal;font-stretch:normal;font-size:medium;line-height:normal;font-family:sans-serif;font-variant-ligatures:normal;font-variant-position:normal;font-variant-caps:normal;font-variant-numeric:normal;font-variant-alternates:normal;font-variant-east-asian:normal;font-feature-settings:normal;font-variation-settings:normal;text-indent:0;text-align:start;text-decoration:none;text-decoration-line:none;text-decoration-style:solid;text-decoration-color:#000000;letter-spacing:normal;word-spacing:normal;text-transform:none;writing-mode:lr-tb;direction:ltr;text-orientation:mixed;dominant-baseline:auto;baseline-shift:baseline;text-anchor:start;white-space:normal;shape-padding:0;shape-margin:0;inline-size:0;clip-rule:nonzero;display:inline;overflow:visible;visibility:visible;isolation:auto;mix-blend-mode:normal;color-interpolation:sRGB;color-interpolation-filters:linearRGB;solid-color:#000000;solid-opacity:1;vector-effect:none;fill-opacity:1;fill-rule:nonzero;stroke-width:1;stroke-linecap:butt;stroke-linejoin:miter;stroke-miterlimit:4;stroke-dasharray:none;stroke-dashoffset:0;stroke-opacity:1.0;color-rendering:auto;image-rendering:auto;shape-rendering:auto;text-rendering:auto;enable-background:accumulate;stop-color:#000000;stop-opacity:1;stroke:none;" />
    </g>
  </g>
  <defs
     id="defs258">
    <clipPath
       id="clip0">
      <rect
         id="rect255"
         fill="white"
         height="20"
         width="20" />
    </clipPath>
  </defs>
</svg>
