<?xml version="1.0" encoding="UTF-8" standalone="no"?>
<svg
   xmlns:dc="http://purl.org/dc/elements/1.1/"
   xmlns:cc="http://creativecommons.org/ns#"
   xmlns:rdf="http://www.w3.org/1999/02/22-rdf-syntax-ns#"
   xmlns:svg="http://www.w3.org/2000/svg"
   xmlns="http://www.w3.org/2000/svg"
   xmlns:sodipodi="http://sodipodi.sourceforge.net/DTD/sodipodi-0.dtd"
   xmlns:inkscape="http://www.inkscape.org/namespaces/inkscape"
   inkscape:version="1.0 (4035a4fb49, 2020-05-01)"
   sodipodi:docname="stock-4.svg"
   id="svg28"
   version="1.1"
   fill="none"
   viewBox="0 0 20 20"
   height="20"
   width="20">
  <metadata
     id="metadata32">
    <rdf:RDF>
      <cc:Work
         rdf:about="">
        <dc:format>image/svg+xml</dc:format>
        <dc:type
           rdf:resource="http://purl.org/dc/dcmitype/StillImage" />
      </cc:Work>
    </rdf:RDF>
  </metadata>
  <sodipodi:namedview
     inkscape:current-layer="g21"
     inkscape:window-maximized="1"
     inkscape:window-y="-8"
     inkscape:window-x="-8"
     inkscape:cy="11.297941"
     inkscape:cx="10"
     inkscape:zoom="42.5"
     showguides="true"
     showgrid="false"
     id="namedview30"
     inkscape:window-height="1017"
     inkscape:window-width="1920"
     inkscape:pageshadow="2"
     inkscape:pageopacity="0"
     guidetolerance="10"
     gridtolerance="10"
     objecttolerance="10"
     borderopacity="1"
     bordercolor="#666666"
     pagecolor="#ffffff" />
  <g
     id="g21"
     clip-path="url(#clip0)">
    <g
       style="opacity:1"
       id="g34">
      <path
         id="path36"
         d="m 7.41512,12.4723 h -10e-6 l 1.11916,2.7562 c 5e-5,2e-4 10e-5,3e-4 1.5e-4,4e-4 0.25782,0.626 0.2061,1.3368 -0.13973,1.9188 -0.3193,0.5486 -0.88146,0.9115 -1.51275,0.977 h -1.9e-4 c -0.07304,0.0075 -0.14666,0.0113 -0.22036,0.0113 -0.07385,0 -0.14771,-0.0038 -0.22123,-0.0115 h -3e-5 L 6.45569,17.9753 C 5.8721,17.9146 5.35268,17.5788 5.05755,17.0717 Z m 0,0 -5.4e-4,-0.0013 C 7.2875,12.1663 6.98914,11.9683 6.65909,11.9693 6.32887,11.9702 6.03183,12.17 5.90647,12.4754 v 0 l -3.4e-4,8e-4 -0.86339,2.141 -0.25391,0.6109 v 0 l -1.7e-4,4e-4 c -0.25802,0.6262 -0.20614,1.337 0.13959,1.9192 z m 0.14897,4.1816 h -2e-5 l -0.00102,0.0017 c -0.1642,0.2843 -0.45428,0.4731 -0.78057,0.5081 -0.08064,0.0083 -0.16197,0.0083 -0.24261,0 C 6.21375,17.1286 5.92393,16.9398 5.7597,16.6556 h 2e-5 L 5.75871,16.6539 C 5.56819,16.3339 5.53943,15.9428 5.68113,15.5984 l 3.1e-4,-8e-4 0.97826,-2.4158 0.7275,1.8041 h -10e-6 l 6.1e-4,0.0015 0.254,0.611 c 4e-5,10e-5 8e-5,10e-5 1.1e-4,2e-4 0.14157,0.3444 0.11277,0.7354 -0.07782,1.0553 z"
         style="color:#000000;font-style:normal;font-variant:normal;font-weight:normal;font-stretch:normal;font-size:medium;line-height:normal;font-family:sans-serif;font-variant-ligatures:normal;font-variant-position:normal;font-variant-caps:normal;font-variant-numeric:normal;font-variant-alternates:normal;font-variant-east-asian:normal;font-feature-settings:normal;font-variation-settings:normal;text-indent:0;text-align:start;text-decoration:none;text-decoration-line:none;text-decoration-style:solid;text-decoration-color:#000000;letter-spacing:normal;word-spacing:normal;text-transform:none;writing-mode:lr-tb;direction:ltr;text-orientation:mixed;dominant-baseline:auto;baseline-shift:baseline;text-anchor:start;white-space:normal;shape-padding:0;shape-margin:0;inline-size:0;clip-rule:nonzero;display:inline;overflow:visible;visibility:visible;isolation:auto;mix-blend-mode:normal;color-interpolation:sRGB;color-interpolation-filters:linearRGB;solid-color:#000000;solid-opacity:1;vector-effect:none;fill:#ffffff;fill-opacity:1;fill-rule:nonzero;stroke:none;stroke-width:0.3;stroke-linecap:butt;stroke-linejoin:miter;stroke-miterlimit:4;stroke-dasharray:none;stroke-dashoffset:0;stroke-opacity:1.0;color-rendering:auto;image-rendering:auto;shape-rendering:auto;text-rendering:auto;enable-background:accumulate;stop-color:#000000;stop-opacity:1;" />
      <path
         id="path38"
         d="M 6.6582031 11.818359 C 6.2677238 11.819424 5.9158191 12.056827 5.7675781 12.417969 L 4.9042969 14.560547 L 4.6503906 15.169922 L 4.6503906 15.171875 C 4.3744403 15.841591 4.4290945 16.601988 4.7988281 17.224609 L 4.9355469 17.453125 L 5.0546875 17.228516 C 5.3498172 17.653494 5.791398 17.934311 6.2988281 18.033203 L 6.2734375 18.275391 L 6.4394531 18.275391 L 6.4238281 18.273438 C 6.5026144 18.281689 6.5831138 18.285156 6.6621094 18.285156 C 6.7409654 18.285156 6.8183775 18.281458 6.8964844 18.273438 C 7.5752517 18.203011 8.180101 17.812554 8.5234375 17.222656 C 8.8916666 16.601701 8.9475317 15.843725 8.6738281 15.175781 C 8.6767943 15.183806 8.6797139 15.191512 8.6796875 15.191406 L 8.6777344 15.181641 L 8.6738281 15.171875 L 8.671875 15.166016 L 7.5800781 12.480469 L 7.5527344 12.414062 L 7.4316406 12.113281 L 7.3476562 12.277344 C 7.1666677 12.048487 6.9590046 11.817448 6.6582031 11.818359 z M 6.8964844 18.273438 L 6.8808594 18.275391 L 6.890625 18.275391 L 6.8964844 18.273438 z M 6.6601562 12.119141 C 6.9103754 12.118383 7.1159774 12.28121 7.2304688 12.5 L 6.8417969 13.232422 L 6.6601562 12.78125 L 5.5429688 15.541016 C 5.5275096 15.578589 5.5626467 15.617805 5.5507812 15.65625 L 5.0253906 16.644531 C 4.8806063 16.197872 4.7456524 15.7303 4.9277344 15.287109 C 4.927995 15.286475 4.9274731 15.28579 4.9277344 15.285156 L 5.1816406 14.673828 L 6.0449219 12.533203 C 6.1474009 12.283545 6.3901955 12.119876 6.6601562 12.119141 z M 7.3984375 12.833984 L 8.3945312 15.285156 L 8.3886719 15.265625 C 8.3887061 15.265762 8.3930927 15.277958 8.3964844 15.287109 C 8.635501 15.869145 8.5870619 16.529364 8.265625 17.070312 L 8.265625 17.072266 C 7.9703615 17.579568 7.4510001 17.914035 6.8671875 17.974609 C 6.7992144 17.981589 6.7306533 17.986328 6.6621094 17.986328 C 6.6432998 17.986328 6.6242629 17.982953 6.6054688 17.982422 L 6.6210938 17.841797 L 6.4707031 17.826172 C 5.9589503 17.772944 5.5224474 17.464073 5.2460938 17.033203 L 5.5097656 16.521484 L 5.6289062 16.730469 C 5.6293825 16.731293 5.6303813 16.731599 5.6308594 16.732422 C 5.819192 17.056521 6.1507634 17.272389 6.5234375 17.3125 L 6.5253906 17.3125 C 6.6162486 17.321852 6.7060171 17.321852 6.796875 17.3125 L 6.7988281 17.3125 C 7.1716758 17.272506 7.5030717 17.056694 7.6914062 16.732422 L 7.6933594 16.730469 C 7.905225 16.374858 7.9316692 15.940819 7.7792969 15.556641 C 7.7683493 15.55992 7.6425781 15.597656 7.6425781 15.597656 L 7.78125 15.541016 L 7.5273438 14.929688 L 7.5253906 14.929688 L 6.9960938 13.617188 L 7.3984375 12.833984 z M 6.8164062 13.970703 L 7.2480469 15.041016 L 7.2480469 15.044922 L 7.5 15.648438 L 7.5019531 15.654297 L 7.5039062 15.65625 C 7.6275782 15.957109 7.6020304 16.296734 7.4355469 16.576172 L 7.4335938 16.580078 C 7.2935639 16.822529 7.045662 16.98329 6.7675781 17.013672 C 6.6978021 17.020854 6.6264279 17.020722 6.5566406 17.013672 L 6.5546875 17.013672 C 6.2767695 16.983208 6.0287621 16.822504 5.8886719 16.580078 L 5.8867188 16.578125 C 5.7611809 16.36727 5.7974126 16.120079 5.8359375 15.882812 L 6.8164062 13.970703 z M 5.6015625 16.341797 C 5.6145975 16.396798 5.5932183 16.452611 5.6132812 16.505859 L 5.5175781 16.505859 L 5.6015625 16.341797 z "
         style="color:#000000;font-style:normal;font-variant:normal;font-weight:normal;font-stretch:normal;font-size:medium;line-height:normal;font-family:sans-serif;font-variant-ligatures:normal;font-variant-position:normal;font-variant-caps:normal;font-variant-numeric:normal;font-variant-alternates:normal;font-variant-east-asian:normal;font-feature-settings:normal;font-variation-settings:normal;text-indent:0;text-align:start;text-decoration:none;text-decoration-line:none;text-decoration-style:solid;text-decoration-color:#000000;letter-spacing:normal;word-spacing:normal;text-transform:none;writing-mode:lr-tb;direction:ltr;text-orientation:mixed;dominant-baseline:auto;baseline-shift:baseline;text-anchor:start;white-space:normal;shape-padding:0;shape-margin:0;inline-size:0;clip-rule:nonzero;display:inline;overflow:visible;visibility:visible;isolation:auto;mix-blend-mode:normal;color-interpolation:sRGB;color-interpolation-filters:linearRGB;solid-color:#000000;solid-opacity:1;vector-effect:none;fill:#ffffff;fill-opacity:1;fill-rule:nonzero;stroke:none;stroke-width:0.3;stroke-linecap:butt;stroke-linejoin:miter;stroke-miterlimit:4;stroke-dasharray:none;stroke-dashoffset:0;stroke-opacity:1.0;color-rendering:auto;image-rendering:auto;shape-rendering:auto;text-rendering:auto;enable-background:accumulate;stop-color:#000000;stop-opacity:1;" />
    </g>
    <g
       style="opacity:1"
       id="g40">
      <path
         id="path42"
         d="m 1.99788,11.1747 c -0.26673,0 -0.48296,0.2163 -0.48296,0.4831 v 0.3331 c 0,0.2667 0.21627,0.483 0.48296,0.483 0.26679,0 0.48311,-0.2163 0.48311,-0.483 v -0.3331 c 0,-0.2669 -0.21627,-0.4831 -0.48311,-0.4831 z"
         style="color:#000000;font-style:normal;font-variant:normal;font-weight:normal;font-stretch:normal;font-size:medium;line-height:normal;font-family:sans-serif;font-variant-ligatures:normal;font-variant-position:normal;font-variant-caps:normal;font-variant-numeric:normal;font-variant-alternates:normal;font-variant-east-asian:normal;font-feature-settings:normal;font-variation-settings:normal;text-indent:0;text-align:start;text-decoration:none;text-decoration-line:none;text-decoration-style:solid;text-decoration-color:#000000;letter-spacing:normal;word-spacing:normal;text-transform:none;writing-mode:lr-tb;direction:ltr;text-orientation:mixed;dominant-baseline:auto;baseline-shift:baseline;text-anchor:start;white-space:normal;shape-padding:0;shape-margin:0;inline-size:0;clip-rule:nonzero;display:inline;overflow:visible;visibility:visible;isolation:auto;mix-blend-mode:normal;color-interpolation:sRGB;color-interpolation-filters:linearRGB;solid-color:#000000;solid-opacity:1;vector-effect:none;fill:#ffffff;fill-opacity:1;fill-rule:nonzero;stroke:none;stroke-width:0.3;stroke-linecap:butt;stroke-linejoin:miter;stroke-miterlimit:4;stroke-dasharray:none;stroke-dashoffset:0;stroke-opacity:1.0;color-rendering:auto;image-rendering:auto;shape-rendering:auto;text-rendering:auto;enable-background:accumulate;stop-color:#000000;stop-opacity:1;" />
      <path
         id="path44"
         d="M 1.9980469 11.025391 C 1.6502236 11.025391 1.3652344 11.310357 1.3652344 11.658203 L 1.3652344 11.990234 C 1.3652344 12.338025 1.6502515 12.623047 1.9980469 12.623047 C 2.3459119 12.623047 2.6308594 12.338044 2.6308594 11.990234 L 2.6308594 11.658203 C 2.6308594 11.310273 2.3459092 11.025391 1.9980469 11.025391 z M 1.9980469 11.324219 C 2.1838645 11.324219 2.3300781 11.472333 2.3300781 11.658203 L 2.3300781 11.990234 C 2.3300781 12.175825 2.1837619 12.324219 1.9980469 12.324219 C 1.8124623 12.324219 1.6640625 12.175843 1.6640625 11.990234 L 1.6640625 11.658203 C 1.6640625 11.472449 1.8124101 11.324219 1.9980469 11.324219 z "
         style="color:#000000;font-style:normal;font-variant:normal;font-weight:normal;font-stretch:normal;font-size:medium;line-height:normal;font-family:sans-serif;font-variant-ligatures:normal;font-variant-position:normal;font-variant-caps:normal;font-variant-numeric:normal;font-variant-alternates:normal;font-variant-east-asian:normal;font-feature-settings:normal;font-variation-settings:normal;text-indent:0;text-align:start;text-decoration:none;text-decoration-line:none;text-decoration-style:solid;text-decoration-color:#000000;letter-spacing:normal;word-spacing:normal;text-transform:none;writing-mode:lr-tb;direction:ltr;text-orientation:mixed;dominant-baseline:auto;baseline-shift:baseline;text-anchor:start;white-space:normal;shape-padding:0;shape-margin:0;inline-size:0;clip-rule:nonzero;display:inline;overflow:visible;visibility:visible;isolation:auto;mix-blend-mode:normal;color-interpolation:sRGB;color-interpolation-filters:linearRGB;solid-color:#000000;solid-opacity:1;vector-effect:none;fill:#ffffff;fill-opacity:1;fill-rule:nonzero;stroke:none;stroke-width:0.3;stroke-linecap:butt;stroke-linejoin:miter;stroke-miterlimit:4;stroke-dasharray:none;stroke-dashoffset:0;stroke-opacity:1.0;color-rendering:auto;image-rendering:auto;shape-rendering:auto;text-rendering:auto;enable-background:accumulate;stop-color:#000000;stop-opacity:1;" />
    </g>
    <g
       style="opacity:1"
       id="g46">
      <path
         id="path48"
         d="m 1.99787,12.8401 c -0.26673,0 -0.48295,0.2163 -0.48295,0.4831 v 4.3297 c 0,0.2668 0.21622,0.4831 0.48295,0.4831 0.26683,0 0.4831,-0.2163 0.4831,-0.4831 v -4.3297 c 0,-0.2669 -0.21627,-0.4831 -0.4831,-0.4831 z"
         style="color:#000000;font-style:normal;font-variant:normal;font-weight:normal;font-stretch:normal;font-size:medium;line-height:normal;font-family:sans-serif;font-variant-ligatures:normal;font-variant-position:normal;font-variant-caps:normal;font-variant-numeric:normal;font-variant-alternates:normal;font-variant-east-asian:normal;font-feature-settings:normal;font-variation-settings:normal;text-indent:0;text-align:start;text-decoration:none;text-decoration-line:none;text-decoration-style:solid;text-decoration-color:#000000;letter-spacing:normal;word-spacing:normal;text-transform:none;writing-mode:lr-tb;direction:ltr;text-orientation:mixed;dominant-baseline:auto;baseline-shift:baseline;text-anchor:start;white-space:normal;shape-padding:0;shape-margin:0;inline-size:0;clip-rule:nonzero;display:inline;overflow:visible;visibility:visible;isolation:auto;mix-blend-mode:normal;color-interpolation:sRGB;color-interpolation-filters:linearRGB;solid-color:#000000;solid-opacity:1;vector-effect:none;fill:#ffffff;fill-opacity:1;fill-rule:nonzero;stroke:none;stroke-width:0.3;stroke-linecap:butt;stroke-linejoin:miter;stroke-miterlimit:4;stroke-dasharray:none;stroke-dashoffset:0;stroke-opacity:1.0;color-rendering:auto;image-rendering:auto;shape-rendering:auto;text-rendering:auto;enable-background:accumulate;stop-color:#000000;stop-opacity:1;" />
      <path
         id="path50"
         d="M 1.9980469 12.689453 C 1.6502236 12.689453 1.3652344 12.974424 1.3652344 13.322266 L 1.3652344 17.652344 C 1.3652344 18.000186 1.6502236 18.285156 1.9980469 18.285156 C 2.3459397 18.285156 2.6308594 18.000204 2.6308594 17.652344 L 2.6308594 13.322266 C 2.6308594 12.974335 2.3459023 12.689453 1.9980469 12.689453 z M 1.9980469 12.990234 C 2.1838515 12.990234 2.3300781 13.136396 2.3300781 13.322266 L 2.3300781 17.652344 C 2.3300781 17.838083 2.183814 17.986328 1.9980469 17.986328 C 1.8124101 17.986328 1.6640625 17.838102 1.6640625 17.652344 L 1.6640625 13.322266 C 1.6640625 13.136508 1.8124101 12.990234 1.9980469 12.990234 z "
         style="color:#000000;font-style:normal;font-variant:normal;font-weight:normal;font-stretch:normal;font-size:medium;line-height:normal;font-family:sans-serif;font-variant-ligatures:normal;font-variant-position:normal;font-variant-caps:normal;font-variant-numeric:normal;font-variant-alternates:normal;font-variant-east-asian:normal;font-feature-settings:normal;font-variation-settings:normal;text-indent:0;text-align:start;text-decoration:none;text-decoration-line:none;text-decoration-style:solid;text-decoration-color:#000000;letter-spacing:normal;word-spacing:normal;text-transform:none;writing-mode:lr-tb;direction:ltr;text-orientation:mixed;dominant-baseline:auto;baseline-shift:baseline;text-anchor:start;white-space:normal;shape-padding:0;shape-margin:0;inline-size:0;clip-rule:nonzero;display:inline;overflow:visible;visibility:visible;isolation:auto;mix-blend-mode:normal;color-interpolation:sRGB;color-interpolation-filters:linearRGB;solid-color:#000000;solid-opacity:1;vector-effect:none;fill:#ffffff;fill-opacity:1;fill-rule:nonzero;stroke:none;stroke-width:0.3;stroke-linecap:butt;stroke-linejoin:miter;stroke-miterlimit:4;stroke-dasharray:none;stroke-dashoffset:0;stroke-opacity:1.0;color-rendering:auto;image-rendering:auto;shape-rendering:auto;text-rendering:auto;enable-background:accumulate;stop-color:#000000;stop-opacity:1;" />
    </g>
    <mask
       fill="black"
       height="22"
       width="22"
       y="-0.999268"
       x="-1"
       maskUnits="userSpaceOnUse"
       id="path-5-outside-1">
      <rect
         id="rect8"
         height="22"
         width="22"
         y="-0.999268"
         x="-1"
         fill="white" />
      <path
         id="path10"
         d="M18.1219 10.8173C17.306 10.3976 16.6001 10.0254 16.3445 9.2059L17.8632 7.68716C17.9882 7.56222 18.0584 7.3928 18.0584 7.2161C18.0584 7.03939 17.9882 6.86997 17.8632 6.74504L15.7439 4.62534C15.5885 4.47003 15.3666 4.40151 15.1507 4.44197L12.2407 0.285043C12.1277 0.123683 11.9493 0.0204495 11.7531 0.0032439C11.5569 -0.0138067 11.3633 0.0565656 11.2239 0.195915L7.44319 3.97665C7.23362 4.1873 7.18836 4.5111 7.33189 4.7712L7.82124 5.65225L6.94035 5.16259C6.6801 5.01936 6.3566 5.06478 6.14564 5.27404L5.19112 6.22871C5.14989 6.27103 5.11439 6.31877 5.08587 6.37054C3.63673 6.45006 0 6.77154 0 7.99422V9.32649C0.0108504 9.56644 0.134389 9.78701 0.333106 9.92187V18.3817C0.335121 18.4006 0.338841 18.4192 0.344421 18.4375L0.345196 18.442C0.349691 18.4718 0.358217 18.5008 0.370462 18.5281C0.76991 19.6709 4.44074 19.9845 6.66119 19.9845C9.01168 19.9845 12.9894 19.6337 12.9894 18.3191V12.561L14.2011 11.3493C15.0205 11.6049 15.3928 12.3107 15.8125 13.1268C16.0317 13.5975 16.3056 14.0407 16.6285 14.4472C16.9217 14.7884 17.3449 14.9902 17.7944 15.0036C17.8149 15.0042 17.8353 15.0046 17.8558 15.0046C18.3019 15.0042 18.7297 14.8272 19.0455 14.512L19.5075 14.0503C19.8375 13.7193 20.0155 13.2664 19.9989 12.7992C19.9857 12.3497 19.7838 11.9265 19.4427 11.6334C19.036 11.3104 18.5927 11.0365 18.1219 10.8173ZM17.3925 7.21579L12.2111 12.3973L10.0916 10.2776L15.273 5.0964L17.3925 7.21579ZM0.862603 9.48119C0.78696 9.44383 0.719998 9.39082 0.666367 9.32572L0.666057 9.32587V8.80474C0.797501 8.86923 0.93282 8.92534 1.07124 8.97308L1.08581 8.97804L1.0869 8.97851C2.26416 9.40492 4.34541 9.6596 6.66119 9.6596C7.32321 9.6596 7.98493 9.63542 8.63223 9.59186L9.43748 10.1556C9.43562 10.1652 9.43608 10.1751 9.43469 10.1849C8.51318 10.2793 7.5875 10.3263 6.66119 10.3257C4.07927 10.3257 1.69653 9.97922 0.862603 9.48119ZM6.82859 8.32919L7.747 8.972C7.38661 8.98564 7.02405 8.99339 6.66119 8.99339C5.27048 9.00548 3.88133 8.89403 2.51015 8.66028C3.88133 8.42669 5.27048 8.31524 6.66119 8.32733C6.71807 8.32826 6.7731 8.32872 6.82844 8.32919H6.82859ZM6.6167 5.74494L8.51675 6.80053C8.6468 6.87292 8.80893 6.85013 8.91418 6.74504C9.01928 6.63979 9.04206 6.4775 8.96968 6.3476L7.91425 4.44755L9.36277 2.99903L11.4843 5.54499C11.5595 5.63954 11.6801 5.68589 11.7991 5.6662C11.9183 5.64652 12.0175 5.5639 12.0583 5.45028C12.0992 5.33666 12.0754 5.20971 11.996 5.11872L9.83569 2.52611L11.695 0.666821L14.6041 4.82297L9.81802 9.60907L5.66202 6.69978L6.6167 5.74494ZM5.08912 7.03877C5.13733 7.12046 5.20243 7.19099 5.28009 7.24555L5.88849 7.67119C3.95309 7.71955 2.24757 7.94865 1.19276 8.30625C0.996217 8.2475 0.815946 8.14411 0.666057 8.00399V8.00228C0.767585 7.73691 2.16356 7.19874 5.08912 7.03877ZM6.66119 19.3184C3.13544 19.3184 1.10472 18.6665 0.999162 18.3154V10.2774C2.14775 10.7178 4.26651 10.9917 6.66119 10.9917C7.67616 10.9931 8.6902 10.9382 9.69897 10.8271L11.7401 12.8682C11.8647 12.9936 12.0343 13.0638 12.2111 13.0634C12.2488 13.0629 12.2863 13.0592 12.3234 13.0524V18.3146C12.2211 18.6656 10.1902 19.3184 6.66119 19.3184ZM19.0365 13.5794L18.5746 14.0413C18.3744 14.2402 18.101 14.3474 17.8191 14.3378C17.5548 14.3307 17.3057 14.2126 17.1329 14.0125C16.845 13.6451 16.6007 13.2456 16.4048 12.822C16.0191 12.0721 15.5902 11.2382 14.7207 10.8297L15.8248 9.72548C16.2332 10.5952 17.067 11.024 17.8171 11.4098C18.2407 11.6057 18.6401 11.85 19.0075 12.1378C19.2076 12.3107 19.3257 12.5596 19.333 12.8239C19.3429 13.106 19.2357 13.3794 19.0365 13.5794Z" />
    </mask>
    <g
       style="opacity:1"
       id="g52">
      <path
         id="path54"
         d="M 18.1219,10.8173 C 17.306,10.3976 16.6001,10.0254 16.3445,9.2059 l 1.5187,-1.51874 c 0.125,-0.12494 0.1952,-0.29436 0.1952,-0.47106 0,-0.17671 -0.0702,-0.34613 -0.1952,-0.47106 L 15.7439,4.62534 C 15.5885,4.47003 15.3666,4.40151 15.1507,4.44197 l -2.91,-4.156927 C 12.1277,0.123683 11.9493,0.0204495 11.7531,0.0032439 11.5569,-0.0138067 11.3633,0.0565656 11.2239,0.195915 L 7.44319,3.97665 C 7.23362,4.1873 7.18836,4.5111 7.33189,4.7712 L 7.82124,5.65225 6.94035,5.16259 C 6.6801,5.01936 6.3566,5.06478 6.14564,5.27404 L 5.19112,6.22871 C 5.14989,6.27103 5.11439,6.31877 5.08587,6.37054 3.63673,6.45006 0,6.77154 0,7.99422 v 1.33227 c 0.0108504,0.23995 0.134389,0.46052 0.333106,0.59538 v 8.45983 c 0.002015,0.0189 0.005735,0.0375 0.011315,0.0558 l 7.75e-4,0.0045 c 0.004495,0.0298 0.013021,0.0588 0.025266,0.0861 0.399448,1.1428 4.070278,1.4564 6.290728,1.4564 2.35049,0 6.32821,-0.3508 6.32821,-1.6654 V 12.561 l 1.2117,-1.2117 c 0.8194,0.2556 1.1917,0.9614 1.6114,1.7775 0.2192,0.4707 0.4931,0.9139 0.816,1.3204 0.2932,0.3412 0.7164,0.543 1.1659,0.5564 0.0205,6e-4 0.0409,10e-4 0.0614,10e-4 0.4461,-4e-4 0.8739,-0.1774 1.1897,-0.4926 l 0.462,-0.4617 c 0.33,-0.331 0.508,-0.7839 0.4914,-1.2511 -0.0132,-0.4495 -0.2151,-0.8727 -0.5562,-1.1658 -0.4067,-0.323 -0.85,-0.5969 -1.3208,-0.8161 z M 17.3925,7.21579 12.2111,12.3973 10.0916,10.2776 15.273,5.0964 Z M 0.862603,9.48119 C 0.78696,9.44383 0.719998,9.39082 0.666367,9.32572 l -3.1e-4,1.5e-4 V 8.80474 C 0.797501,8.86923 0.93282,8.92534 1.07124,8.97308 l 0.01457,0.00496 0.00109,4.7e-4 c 1.17726,0.42641 3.25851,0.68109 5.57429,0.68109 0.66202,0 1.32374,-0.02418 1.97104,-0.06774 l 0.80525,0.56374 c -0.00186,0.0096 -0.0014,0.0195 -0.00279,0.0293 -0.92151,0.0944 -1.84719,0.1414 -2.7735,0.1408 -2.58192,0 -4.96466,-0.34648 -5.798587,-0.84451 z M 6.82859,8.32919 7.747,8.972 C 7.38661,8.98564 7.02405,8.99339 6.66119,8.99339 5.27048,9.00548 3.88133,8.89403 2.51015,8.66028 3.88133,8.42669 5.27048,8.31524 6.66119,8.32733 6.71807,8.32826 6.7731,8.32872 6.82844,8.32919 Z M 6.6167,5.74494 8.51675,6.80053 C 8.6468,6.87292 8.80893,6.85013 8.91418,6.74504 9.01928,6.63979 9.04206,6.4775 8.96968,6.3476 L 7.91425,4.44755 9.36277,2.99903 11.4843,5.54499 c 0.0752,0.09455 0.1958,0.1409 0.3148,0.12121 C 11.9183,5.64652 12.0175,5.5639 12.0583,5.45028 12.0992,5.33666 12.0754,5.20971 11.996,5.11872 L 9.83569,2.52611 11.695,0.666821 14.6041,4.82297 9.81802,9.60907 5.66202,6.69978 Z M 5.08912,7.03877 c 0.04821,0.08169 0.11331,0.15222 0.19097,0.20678 l 0.6084,0.42564 C 3.95309,7.71955 2.24757,7.94865 1.19276,8.30625 0.996217,8.2475 0.815946,8.14411 0.666057,8.00399 V 8.00228 C 0.767585,7.73691 2.16356,7.19874 5.08912,7.03877 Z M 6.66119,19.3184 c -3.52575,0 -5.55647,-0.6519 -5.662028,-1.003 v -8.038 c 1.148588,0.4404 3.267348,0.7143 5.662028,0.7143 1.01497,0.0014 2.02901,-0.0535 3.03778,-0.1646 l 2.04113,2.0411 c 0.1246,0.1254 0.2942,0.1956 0.471,0.1952 0.0377,-5e-4 0.0752,-0.0042 0.1123,-0.011 v 5.2622 c -0.1023,0.351 -2.1332,1.0038 -5.66221,1.0038 z m 12.37531,-5.739 -0.4619,0.4619 c -0.2002,0.1989 -0.4736,0.3061 -0.7555,0.2965 -0.2643,-0.0071 -0.5134,-0.1252 -0.6862,-0.3253 -0.2879,-0.3674 -0.5322,-0.7669 -0.7281,-1.1905 -0.3857,-0.7499 -0.8146,-1.5838 -1.6841,-1.9923 l 1.1041,-1.10422 c 0.4084,0.86972 1.2422,1.29852 1.9923,1.68432 0.4236,0.1959 0.823,0.4402 1.1904,0.728 0.2001,0.1729 0.3182,0.4218 0.3255,0.6861 0.0099,0.2821 -0.0973,0.5555 -0.2965,0.7555 z"
         style="color:#000000;font-style:normal;font-variant:normal;font-weight:normal;font-stretch:normal;font-size:medium;line-height:normal;font-family:sans-serif;font-variant-ligatures:normal;font-variant-position:normal;font-variant-caps:normal;font-variant-numeric:normal;font-variant-alternates:normal;font-variant-east-asian:normal;font-feature-settings:normal;font-variation-settings:normal;text-indent:0;text-align:start;text-decoration:none;text-decoration-line:none;text-decoration-style:solid;text-decoration-color:#000000;letter-spacing:normal;word-spacing:normal;text-transform:none;writing-mode:lr-tb;direction:ltr;text-orientation:mixed;dominant-baseline:auto;baseline-shift:baseline;text-anchor:start;white-space:normal;shape-padding:0;shape-margin:0;inline-size:0;clip-rule:nonzero;display:inline;overflow:visible;visibility:visible;isolation:auto;mix-blend-mode:normal;color-interpolation:sRGB;color-interpolation-filters:linearRGB;solid-color:#000000;solid-opacity:1;vector-effect:none;fill:#ffffff;fill-opacity:1;fill-rule:nonzero;stroke-width:1;stroke-linecap:butt;stroke-linejoin:miter;stroke-miterlimit:4;stroke-dasharray:none;stroke-dashoffset:0;stroke-opacity:1.0;color-rendering:auto;image-rendering:auto;shape-rendering:auto;text-rendering:auto;enable-background:accumulate;stop-color:#000000;stop-opacity:1;stroke:none;" />
      <path
         id="path56"
         d="M 11.796875 -0.49414062 C 11.454195 -0.52392099 11.11467 -0.4016908 10.871094 -0.15820312 L 7.0898438 3.6230469 L 7.0878906 3.6230469 C 6.7896349 3.9228396 6.8225874 4.3635984 6.9296875 4.7597656 C 6.5332754 4.652322 6.0931651 4.6221446 5.7929688 4.9199219 L 4.8359375 5.8769531 L 4.8320312 5.8789062 C 4.8258409 5.8852603 4.8224494 5.8938979 4.8164062 5.9003906 C 4.060653 5.9466115 2.9457521 6.0303292 1.890625 6.265625 C 1.319412 6.3930068 0.78575458 6.5538397 0.34765625 6.7988281 C -0.090442083 7.0438166 -0.5 7.4406046 -0.5 7.9941406 L -0.5 9.3378906 L -0.5 9.3496094 C -0.48915019 9.5895464 -0.29943742 9.752715 -0.16601562 9.9453125 L -0.16601562 18.408203 L -0.1640625 18.435547 C -0.16124432 18.46198 -0.15406293 18.488815 -0.1484375 18.515625 C -0.14834378 18.516246 -0.14853261 18.516957 -0.1484375 18.517578 C -0.13885215 18.580168 -0.11912341 18.640564 -0.095703125 18.699219 C 0.082438942 19.198151 0.51801902 19.48041 1.0097656 19.695312 C 1.5042469 19.91141 2.1000803 20.062949 2.7460938 20.177734 C 4.0381206 20.407306 5.5283456 20.484375 6.6621094 20.484375 C 7.8622286 20.484375 9.460245 20.397403 10.802734 20.134766 C 11.473979 20.003447 12.080434 19.834503 12.566406 19.576172 C 13.052378 19.317841 13.490234 18.89916 13.490234 18.318359 L 13.490234 12.767578 L 14.271484 11.986328 C 14.716333 12.232747 15.011757 12.664339 15.367188 13.355469 L 15.359375 13.337891 C 15.59516 13.844204 15.888988 14.320545 16.236328 14.757812 L 16.242188 14.765625 L 16.25 14.773438 C 16.634688 15.221103 17.189691 15.48633 17.779297 15.503906 C 17.802997 15.5046 17.828465 15.503906 17.855469 15.503906 C 18.433539 15.503388 18.98908 15.273814 19.398438 14.865234 L 19.861328 14.404297 L 19.861328 14.402344 C 20.288418 13.973959 20.519009 13.387951 20.498047 12.783203 C 20.480229 12.194063 20.216635 11.638093 19.769531 11.253906 L 19.761719 11.248047 L 19.753906 11.242188 C 19.316442 10.894754 18.83844 10.59906 18.332031 10.363281 L 18.351562 10.373047 C 17.659813 10.01721 17.226659 9.7211223 16.980469 9.2753906 L 18.216797 8.0410156 C 18.435442 7.8224759 18.558594 7.5259247 18.558594 7.2167969 C 18.558594 6.9076665 18.435458 6.6091638 18.216797 6.390625 L 16.097656 4.2714844 C 15.945898 4.1198136 15.72023 4.1421766 15.517578 4.0917969 L 12.650391 -0.001953125 C 12.453029 -0.28377806 12.140184 -0.46403446 11.796875 -0.49414062 z M 11.626953 1.4414062 L 13.953125 4.765625 L 9.7617188 8.9589844 L 6.4355469 6.6328125 L 6.703125 6.3652344 L 8.2734375 7.2382812 C 8.596756 7.4182507 9.006226 7.3605642 9.2675781 7.0996094 L 9.2675781 7.0976562 C 9.5282398 6.8366226 9.5852659 6.4287176 9.40625 6.1054688 L 8.5351562 4.5351562 L 9.3300781 3.7402344 L 11.099609 5.8652344 L 11.09375 5.8554688 C 11.281507 6.0915387 11.583506 6.209357 11.880859 6.1601562 C 12.177976 6.1111021 12.42743 5.9028188 12.529297 5.6191406 C 12.631332 5.335687 12.571383 5.0163503 12.373047 4.7890625 L 10.511719 2.5566406 L 11.626953 1.4414062 z M 15.273438 5.8027344 L 16.685547 7.2148438 L 12.210938 11.689453 L 10.798828 10.277344 L 15.273438 5.8027344 z M 2.4257812 8.6367188 L 2.4257812 8.6484375 C 2.412096 8.6453719 2.3885375 8.6456699 2.375 8.6425781 C 2.3890413 8.6394555 2.4115894 8.6398134 2.4257812 8.6367188 z M 15.804688 10.451172 C 16.328494 11.103458 16.997578 11.549899 17.587891 11.853516 L 17.597656 11.859375 L 17.607422 11.863281 C 17.98986 12.040145 18.348977 12.262838 18.681641 12.521484 C 18.772826 12.60258 18.830613 12.715837 18.833984 12.837891 L 18.833984 12.839844 L 18.833984 12.841797 C 18.83905 12.986145 18.783357 13.124438 18.681641 13.226562 L 18.220703 13.6875 C 18.118371 13.788437 17.979675 13.842786 17.835938 13.837891 L 17.833984 13.837891 L 17.832031 13.837891 C 17.711138 13.834643 17.600258 13.779128 17.519531 13.689453 C 17.259688 13.355903 17.036862 12.995114 16.859375 12.611328 L 16.853516 12.603516 L 16.849609 12.59375 C 16.546249 12.00394 16.100649 11.332392 15.449219 10.808594 L 15.804688 10.451172 z M 1.5 10.832031 C 2.7968514 11.216469 4.5124028 11.492188 6.6621094 11.492188 C 7.6114035 11.493431 8.5595961 11.43331 9.5039062 11.337891 L 11.386719 13.222656 C 11.502433 13.338582 11.674291 13.344426 11.824219 13.402344 L 11.824219 18.09375 C 11.78647 18.114864 11.761066 18.132188 11.695312 18.160156 C 11.479821 18.251816 11.130655 18.360193 10.671875 18.458984 C 9.7543155 18.656568 8.3957842 18.818359 6.6621094 18.818359 C 4.9300505 18.818359 3.5699322 18.65638 2.6523438 18.458984 C 2.1935495 18.360286 1.8449702 18.251864 1.6289062 18.160156 C 1.5629776 18.132173 1.5380171 18.11495 1.5 18.09375 L 1.5 10.832031 z "
         style="color:#000000;font-style:normal;font-variant:normal;font-weight:normal;font-stretch:normal;font-size:medium;line-height:normal;font-family:sans-serif;font-variant-ligatures:normal;font-variant-position:normal;font-variant-caps:normal;font-variant-numeric:normal;font-variant-alternates:normal;font-variant-east-asian:normal;font-feature-settings:normal;font-variation-settings:normal;text-indent:0;text-align:start;text-decoration:none;text-decoration-line:none;text-decoration-style:solid;text-decoration-color:#000000;letter-spacing:normal;word-spacing:normal;text-transform:none;writing-mode:lr-tb;direction:ltr;text-orientation:mixed;dominant-baseline:auto;baseline-shift:baseline;text-anchor:start;white-space:normal;shape-padding:0;shape-margin:0;inline-size:0;clip-rule:nonzero;display:inline;overflow:visible;visibility:visible;isolation:auto;mix-blend-mode:normal;color-interpolation:sRGB;color-interpolation-filters:linearRGB;solid-color:#000000;solid-opacity:1;vector-effect:none;fill-opacity:1;fill-rule:nonzero;stroke-width:1;stroke-linecap:butt;stroke-linejoin:miter;stroke-miterlimit:4;stroke-dasharray:none;stroke-dashoffset:0;stroke-opacity:1.0;color-rendering:auto;image-rendering:auto;shape-rendering:auto;text-rendering:auto;enable-background:accumulate;stop-color:#000000;stop-opacity:1;stroke:none;" />
    </g>
    <path
       id="path60"
       d="M 11.769531 -0.1953125 C 11.514739 -0.217455 11.263102 -0.12631721 11.082031 0.0546875 L 7.3007812 3.8359375 C 7.0290913 4.1090276 6.970203 4.5300397 7.15625 4.8671875 L 7.3066406 5.1367188 L 7.0371094 4.9882812 C 6.699878 4.8026841 6.2771712 4.8617497 6.0039062 5.1328125 L 5.0488281 6.0878906 L 5.0488281 6.0898438 C 5.0218663 6.1175184 5.0015374 6.1505889 4.9785156 6.1816406 C 4.2388543 6.2241101 3.0321592 6.3184022 1.9550781 6.5585938 C 1.3994954 6.68249 0.88753171 6.8405591 0.49414062 7.0605469 C 0.10074954 7.2805346 -0.19921875 7.5893242 -0.19921875 7.9941406 L -0.19921875 9.3300781 L -0.19921875 9.3359375 C -0.18840132 9.5751584 -0.032160985 9.7621731 0.1328125 9.9296875 L 0.1328125 18.392578 L 0.13476562 18.402344 C 0.13716448 18.424844 0.14091108 18.448197 0.14648438 18.470703 C 0.14697614 18.472689 0.1479202 18.474579 0.1484375 18.476562 C 0.14896483 18.479874 0.14980144 18.48303 0.15039062 18.486328 C 0.15130062 18.489548 0.15136506 18.492884 0.15234375 18.496094 C 0.15903596 18.529863 0.16858161 18.561968 0.18164062 18.59375 C 0.18192626 18.594567 0.18330593 18.594887 0.18359375 18.595703 C 0.31471004 18.967444 0.67111432 19.221811 1.1289062 19.421875 C 1.5877031 19.622378 2.1668643 19.76857 2.7988281 19.880859 C 4.0627557 20.105438 5.5424689 20.183594 6.6621094 20.183594 C 7.8473041 20.183594 9.4361532 20.098067 10.746094 19.841797 C 11.401064 19.713662 11.98561 19.544531 12.425781 19.310547 C 12.865953 19.076563 13.189453 18.747869 13.189453 18.318359 L 13.189453 12.644531 L 14.228516 11.603516 C 14.890127 11.859729 15.236829 12.444968 15.634766 13.21875 C 15.859981 13.700753 16.141788 14.155735 16.472656 14.572266 L 16.474609 14.574219 L 16.476562 14.578125 C 16.806358 14.961911 17.28352 15.188054 17.789062 15.203125 C 17.810843 15.203762 17.832367 15.205078 17.855469 15.205078 C 18.354357 15.204631 18.834277 15.006849 19.1875 14.654297 L 19.648438 14.191406 C 20.017452 13.821273 20.217783 13.315456 20.199219 12.792969 C 20.18437 12.287339 19.955954 11.812117 19.572266 11.482422 L 19.570312 11.478516 L 19.566406 11.476562 C 19.1474 11.143789 18.692075 10.86255 18.207031 10.636719 C 17.436752 10.240427 16.855457 9.8934856 16.599609 9.234375 L 18.003906 7.828125 C 18.166364 7.6657451 18.257812 7.446468 18.257812 7.2167969 C 18.257812 6.9871187 18.166371 6.7658891 18.003906 6.6035156 L 15.884766 4.484375 C 15.730886 4.3305843 15.50958 4.3128435 15.296875 4.3027344 L 12.404297 0.16992188 C 12.257552 -0.0396241 12.026528 -0.17294667 11.771484 -0.1953125 L 11.769531 -0.1953125 z M 11.736328 0.203125 C 11.873685 0.21517037 11.996916 0.2872166 12.076172 0.40039062 L 15.060547 4.6621094 L 15.1875 4.6386719 C 15.338834 4.6103117 15.492692 4.6587703 15.601562 4.7675781 L 17.722656 6.8867188 C 17.810192 6.9742052 17.859375 7.093055 17.859375 7.2167969 C 17.859375 7.3405257 17.810198 7.4574218 17.722656 7.5449219 L 16.117188 9.1503906 L 16.154297 9.265625 C 16.435937 10.168614 17.214306 10.575857 18.03125 10.996094 L 18.033203 10.996094 L 18.037109 10.998047 C 18.491532 11.209622 18.919619 11.473837 19.3125 11.785156 C 19.611012 12.041661 19.787276 12.411317 19.798828 12.804688 L 19.798828 12.806641 C 19.813464 13.218554 19.65622 13.616336 19.365234 13.908203 L 18.904297 14.371094 C 18.62592 14.648942 18.248781 14.804335 17.855469 14.804688 C 17.83757 14.804688 17.820001 14.803297 17.800781 14.802734 C 17.408842 14.79105 17.039689 14.614881 16.783203 14.318359 C 16.471259 13.925101 16.206092 13.498103 15.994141 13.042969 L 15.992188 13.039062 L 15.990234 13.035156 C 15.569983 12.217985 15.162641 11.439842 14.259766 11.158203 L 14.144531 11.123047 L 12.789062 12.478516 L 12.789062 18.318359 C 12.789063 18.546149 12.615432 18.755509 12.236328 18.957031 C 11.857224 19.158553 11.30124 19.325329 10.667969 19.449219 C 9.4014268 19.696999 7.8274047 19.785156 6.6621094 19.785156 C 5.5612999 19.785156 4.0936494 19.706203 2.8671875 19.488281 C 2.2539565 19.379321 1.7002801 19.234397 1.2890625 19.054688 C 0.87784492 18.874978 0.62791313 18.66121 0.55859375 18.462891 L 0.55664062 18.453125 L 0.55273438 18.445312 C 0.54794669 18.434638 0.54475479 18.42395 0.54296875 18.412109 L 0.54296875 18.410156 L 0.5390625 18.390625 L 0.53515625 18.378906 C 0.53435789 18.376288 0.53378437 18.373824 0.53320312 18.371094 L 0.53320312 9.8164062 L 0.4453125 9.7558594 C 0.29856924 9.6562715 0.20722433 9.4953979 0.19921875 9.3183594 L 0.19921875 7.9941406 C 0.19921875 7.787617 0.35567171 7.5968098 0.68945312 7.4101562 C 1.0232345 7.2235027 1.5082264 7.0684675 2.0429688 6.9492188 C 3.1124534 6.7107212 4.3786698 6.6097661 5.0976562 6.5703125 L 5.2070312 6.5644531 L 5.2617188 6.4667969 C 5.2810234 6.4317548 5.3040466 6.4001666 5.3320312 6.3710938 L 5.3339844 6.3691406 L 6.2871094 5.4160156 C 6.4357645 5.2685585 6.6604814 5.2370277 6.84375 5.3378906 L 8.3359375 6.1679688 L 7.5058594 4.6738281 L 7.5078125 4.6738281 C 7.4067995 4.490776 7.4384875 4.2653974 7.5859375 4.1171875 L 11.365234 0.33789062 C 11.462964 0.24019654 11.59872 0.1911663 11.736328 0.203125 z M 11.722656 0.35742188 L 9.5644531 2.5136719 L 11.84375 5.2480469 L 11.845703 5.25 C 11.877528 5.2864709 11.88754 5.3371259 11.871094 5.3828125 L 11.869141 5.3828125 C 11.852767 5.4284092 11.813658 5.4608197 11.765625 5.46875 C 11.717966 5.4766357 11.670802 5.4578639 11.640625 5.4199219 L 11.638672 5.4179688 L 9.3769531 2.703125 L 7.6660156 4.4121094 L 8.7949219 6.4453125 C 8.8241426 6.4977547 8.8161115 6.5607807 8.7734375 6.6035156 C 8.7306284 6.6462597 8.6660238 6.6543582 8.6132812 6.625 L 6.5820312 5.4960938 L 6.4746094 5.6035156 L 5.3515625 6.7265625 L 9.2851562 9.4804688 L 9.8398438 9.8691406 L 14.863281 4.8457031 L 11.722656 0.35742188 z M 11.667969 0.9765625 L 14.34375 4.8007812 L 9.7949219 9.3496094 L 9.515625 9.1523438 L 5.9726562 6.671875 L 6.6523438 5.9921875 L 8.4199219 6.9746094 C 8.6272793 7.0900312 8.8869966 7.0541547 9.0546875 6.8867188 L 9.0566406 6.8867188 C 9.2241666 6.7189537 9.2600706 6.4573578 9.1445312 6.25 L 8.1621094 4.4824219 L 9.3496094 3.2949219 L 11.328125 5.6699219 C 11.448348 5.8210799 11.64169 5.8947755 11.832031 5.8632812 C 12.022398 5.8318516 12.180867 5.6992214 12.246094 5.5175781 C 12.311448 5.3360247 12.273459 5.1318372 12.146484 4.9863281 L 10.105469 2.5390625 L 11.667969 0.9765625 z M 15.273438 4.8144531 L 9.8085938 10.277344 L 12.210938 12.679688 L 17.675781 7.2148438 L 17.533203 7.0742188 L 15.273438 4.8144531 z M 15.273438 5.3789062 L 17.109375 7.2148438 L 12.210938 12.115234 L 10.375 10.277344 L 15.273438 5.3789062 z M 5.1992188 6.8320312 L 5.078125 6.8398438 C 3.6048678 6.9204016 2.5142629 7.0949215 1.7695312 7.2871094 C 1.3971654 7.3832033 1.1102998 7.4836757 0.90234375 7.5820312 C 0.7983657 7.631209 0.71409544 7.6799587 0.64453125 7.7324219 C 0.57496706 7.784885 0.51450446 7.8375744 0.47851562 7.9316406 L 0.46679688 7.9648438 L 0.46679688 8.0898438 L 0.52929688 8.1503906 C 0.70177209 8.3116248 0.90868542 8.4304677 1.1347656 8.4980469 L 1.1972656 8.515625 L 1.2578125 8.4960938 C 2.2751386 8.1512015 3.9700133 7.919133 5.8925781 7.8710938 L 6.5019531 7.8554688 L 5.3945312 7.0820312 C 5.3401923 7.0438554 5.2954846 6.9947149 5.2617188 6.9375 L 5.1992188 6.8320312 z M 5.0175781 7.25 C 5.0648358 7.3054601 5.1060336 7.3680159 5.1660156 7.4101562 L 5.3554688 7.5429688 C 3.7141572 7.6190981 2.2011549 7.7875417 1.2304688 8.1035156 C 1.1495757 8.0775277 1.0843545 8.0216337 1.0117188 7.9785156 C 1.0352229 7.9658338 1.0456115 7.9568895 1.0742188 7.9433594 C 1.2479865 7.8611737 1.5141267 7.7654442 1.8691406 7.6738281 C 2.5611196 7.4952538 3.6211617 7.3320041 5.0175781 7.25 z M 6.6621094 8.1269531 C 5.2595577 8.1147602 3.8594057 8.2273137 2.4765625 8.4628906 L 2.4765625 8.8574219 C 3.8594201 9.0931626 5.2595577 9.2055523 6.6621094 9.1933594 C 7.0278171 9.1933594 7.3913115 9.1855984 7.7539062 9.171875 L 8.3496094 9.1484375 L 6.8925781 8.1289062 L 6.828125 8.1289062 C 6.7734387 8.1284419 6.7192551 8.1278555 6.6640625 8.1269531 L 6.6621094 8.1269531 z M 0.46679688 8.484375 L 0.46679688 9.6445312 L 0.64453125 9.5585938 C 0.68527433 9.5906372 0.719239 9.6306681 0.765625 9.6542969 C 1.2375812 9.9347137 2.0462292 10.138845 3.078125 10.289062 C 4.1126747 10.439666 5.3622031 10.525391 6.6621094 10.525391 C 7.5946195 10.525928 8.5274026 10.479797 9.4550781 10.384766 L 9.6113281 10.367188 L 9.6328125 10.212891 C 9.637694 10.178474 9.6389609 10.171706 9.6347656 10.193359 L 9.6582031 10.066406 L 9.3359375 9.8398438 L 8.6894531 9.3867188 L 8.6191406 9.3925781 C 7.9760042 9.4358579 7.3192594 9.4589844 6.6621094 9.4589844 C 4.3634053 9.4589844 2.2912193 9.199663 1.1601562 8.7910156 C 1.1597606 8.7908727 1.1585986 8.7911586 1.1582031 8.7910156 L 1.1542969 8.7910156 L 1.1367188 8.7832031 L 1.1347656 8.7832031 C 1.004624 8.7382409 0.87726405 8.6855227 0.75390625 8.625 L 0.46679688 8.484375 z M 6.6582031 8.5273438 C 6.695915 8.5279603 6.7312679 8.5289552 6.7675781 8.5292969 L 7.1308594 8.7832031 C 6.9744719 8.7859608 6.8186393 8.7929687 6.6621094 8.7929688 L 6.6601562 8.7929688 C 6.1054684 8.7977909 5.557034 8.6948979 5.0039062 8.6601562 C 5.5563884 8.6254655 6.1041658 8.5225737 6.6582031 8.5273438 z M 0.86523438 9.1035156 C 0.91258036 9.1220123 0.95780642 9.1455363 1.0058594 9.1621094 L 1.0136719 9.1640625 L 1.0195312 9.1660156 C 2.2437808 9.6094455 4.3316659 9.859375 6.6621094 9.859375 C 7.3040636 9.859375 7.944125 9.8337602 8.5722656 9.7929688 L 8.8847656 10.013672 C 8.1448277 10.074726 7.4047125 10.125481 6.6621094 10.125 C 5.3800957 10.125 4.1455477 10.039722 3.1347656 9.8925781 C 2.1239836 9.7454344 1.3273451 9.5250834 0.96484375 9.3085938 L 0.95898438 9.3046875 L 0.95117188 9.3027344 C 0.91805996 9.2863804 0.89243929 9.2590459 0.86523438 9.234375 L 0.86523438 9.1035156 z M 15.884766 9.3828125 L 14.378906 10.888672 L 14.634766 11.009766 C 15.432365 11.384486 15.840862 12.164162 16.226562 12.914062 C 16.428322 13.348737 16.678969 13.759441 16.974609 14.136719 L 16.978516 14.138672 L 16.982422 14.142578 C 17.191922 14.385176 17.494011 14.528501 17.814453 14.537109 C 18.150695 14.548038 18.475997 14.420889 18.714844 14.183594 L 19.177734 13.720703 C 19.415482 13.482 19.544491 13.154892 19.533203 12.818359 C 19.524355 12.498013 19.381164 12.195857 19.138672 11.986328 L 19.134766 11.982422 L 19.130859 11.980469 C 18.75361 11.684954 18.342887 11.434186 17.908203 11.232422 L 17.900391 11.228516 C 17.152678 10.843884 16.379205 10.435693 16.005859 9.640625 L 15.884766 9.3828125 z M 0.79882812 9.9863281 L 0.79882812 18.345703 L 0.80859375 18.373047 C 0.8447858 18.493426 0.92134252 18.558954 1.0117188 18.623047 C 1.102095 18.68714 1.2145087 18.745687 1.3535156 18.804688 C 1.6315296 18.922689 2.0162616 19.039207 2.5058594 19.144531 C 3.4850549 19.35518 4.8869079 19.517578 6.6621094 19.517578 C 8.4389464 19.517578 9.841042 19.355403 10.820312 19.144531 C 11.309948 19.039095 11.693007 18.920854 11.970703 18.802734 C 12.109551 18.743675 12.220359 18.685338 12.310547 18.621094 C 12.400735 18.556849 12.480297 18.492308 12.515625 18.371094 L 12.523438 18.34375 L 12.523438 12.8125 L 12.287109 12.855469 C 12.261512 12.86016 12.236656 12.862832 12.210938 12.863281 C 12.087368 12.863561 11.969758 12.814067 11.882812 12.726562 L 11.880859 12.726562 L 9.7734375 10.617188 L 9.6777344 10.628906 C 8.6763348 10.739195 7.6696836 10.792405 6.6621094 10.791016 C 4.2826798 10.791016 2.1680145 10.510733 1.0703125 10.089844 L 0.79882812 9.9863281 z M 15.818359 10.015625 C 16.290415 10.788899 17.046746 11.23824 17.726562 11.587891 L 17.728516 11.589844 L 17.732422 11.591797 C 18.139047 11.779847 18.523809 12.013378 18.876953 12.289062 C 18.877221 12.289272 18.876685 12.290806 18.876953 12.291016 C 19.033815 12.427234 19.127077 12.622439 19.132812 12.830078 C 19.140779 13.057077 19.054738 13.27665 18.894531 13.4375 L 18.433594 13.900391 C 18.272489 14.060449 18.05306 14.146398 17.826172 14.138672 L 17.824219 14.138672 C 17.616675 14.133097 17.42316 14.037616 17.287109 13.880859 C 17.286899 13.88059 17.285366 13.881128 17.285156 13.880859 C 17.009401 13.527744 16.773991 13.144915 16.585938 12.738281 L 16.583984 12.734375 L 16.582031 12.730469 C 16.232305 12.050511 15.785542 11.29238 15.011719 10.820312 L 15.818359 10.015625 z M 1.1992188 10.5 C 2.4239642 10.92062 4.3663128 11.191406 6.6621094 11.191406 C 7.6498905 11.192699 8.6370376 11.135745 9.6191406 11.03125 L 11.597656 13.009766 C 11.73659 13.149591 11.929172 13.204725 12.123047 13.226562 L 12.123047 18.263672 C 12.126168 18.251332 12.1259 18.262282 12.080078 18.294922 C 12.025835 18.333561 11.935528 18.384047 11.814453 18.435547 C 11.572302 18.538546 11.206379 18.650314 10.734375 18.751953 C 9.790368 18.955231 8.4142823 19.119141 6.6621094 19.119141 C 4.9115608 19.119141 3.5338352 18.956982 2.5898438 18.753906 C 2.117848 18.652368 1.7523796 18.538523 1.5097656 18.435547 C 1.3884587 18.384059 1.2987963 18.335636 1.2441406 18.296875 C 1.1976179 18.263882 1.1959926 18.251235 1.1992188 18.263672 L 1.1992188 10.5 z "
       style="color:#000000;font-style:normal;font-variant:normal;font-weight:normal;font-stretch:normal;font-size:medium;line-height:normal;font-family:sans-serif;font-variant-ligatures:normal;font-variant-position:normal;font-variant-caps:normal;font-variant-numeric:normal;font-variant-alternates:normal;font-variant-east-asian:normal;font-feature-settings:normal;font-variation-settings:normal;text-indent:0;text-align:start;text-decoration:none;text-decoration-line:none;text-decoration-style:solid;text-decoration-color:#000000;letter-spacing:normal;word-spacing:normal;text-transform:none;writing-mode:lr-tb;direction:ltr;text-orientation:mixed;dominant-baseline:auto;baseline-shift:baseline;text-anchor:start;white-space:normal;shape-padding:0;shape-margin:0;inline-size:0;clip-rule:nonzero;display:inline;overflow:visible;visibility:visible;isolation:auto;mix-blend-mode:normal;color-interpolation:sRGB;color-interpolation-filters:linearRGB;solid-color:#000000;solid-opacity:1;vector-effect:none;fill:#ffffff;fill-opacity:1;fill-rule:nonzero;stroke:none;stroke-width:0.4;stroke-linecap:butt;stroke-linejoin:miter;stroke-miterlimit:4;stroke-dasharray:none;stroke-dashoffset:0;stroke-opacity:1;color-rendering:auto;image-rendering:auto;shape-rendering:auto;text-rendering:auto;enable-background:accumulate;stop-color:#000000;stop-opacity:1;opacity:1" />
    <g
       style="opacity:1"
       id="g62">
      <path
         id="path64"
         d="m 11.4006,9.69898 v -1e-5 l -0.0014,0.00134 -0.2347,0.23471 c -0.1246,0.12148 -0.1741,0.30038 -0.1299,0.46858 0.0442,0.1685 0.1757,0.3003 0.3444,0.3446 0.1683,0.0442 0.3472,-0.0056 0.4685,-0.1299 l 0.2349,-0.2347 v 0 l 0.0014,-0.0015 c 0.1846,-0.1895 0.1825,-0.49179 -0.0042,-0.67878 l -2e-4,-1.3e-4 C 11.8925,9.51645 11.59,9.51434 11.4006,9.69898 Z"
         style="color:#000000;font-style:normal;font-variant:normal;font-weight:normal;font-stretch:normal;font-size:medium;line-height:normal;font-family:sans-serif;font-variant-ligatures:normal;font-variant-position:normal;font-variant-caps:normal;font-variant-numeric:normal;font-variant-alternates:normal;font-variant-east-asian:normal;font-feature-settings:normal;font-variation-settings:normal;text-indent:0;text-align:start;text-decoration:none;text-decoration-line:none;text-decoration-style:solid;text-decoration-color:#000000;letter-spacing:normal;word-spacing:normal;text-transform:none;writing-mode:lr-tb;direction:ltr;text-orientation:mixed;dominant-baseline:auto;baseline-shift:baseline;text-anchor:start;white-space:normal;shape-padding:0;shape-margin:0;inline-size:0;clip-rule:nonzero;display:inline;overflow:visible;visibility:visible;isolation:auto;mix-blend-mode:normal;color-interpolation:sRGB;color-interpolation-filters:linearRGB;solid-color:#000000;solid-opacity:1;vector-effect:none;fill:#ffffff;fill-opacity:1;fill-rule:nonzero;stroke:none;stroke-width:0.3;stroke-linecap:butt;stroke-linejoin:miter;stroke-miterlimit:4;stroke-dasharray:none;stroke-dashoffset:0;stroke-opacity:1.0;color-rendering:auto;image-rendering:auto;shape-rendering:auto;text-rendering:auto;enable-background:accumulate;stop-color:#000000;stop-opacity:1;" />
      <path
         id="path66"
         d="M 11.550781 9.3476562 L 11.296875 9.5917969 L 11.294922 9.59375 L 11.060547 9.828125 C 10.897459 9.987129 10.830831 10.221296 10.888672 10.441406 C 10.946528 10.661965 11.120927 10.834579 11.341797 10.892578 C 11.562129 10.950443 11.796277 10.885385 11.955078 10.722656 L 12.189453 10.488281 L 12.191406 10.486328 C 12.432039 10.239308 12.428961 9.8414483 12.185547 9.5976562 C 12.011824 9.4240816 11.770928 9.5217069 11.550781 9.59375 L 11.550781 9.3476562 z M 12.185547 9.5976562 L 12.173828 9.5859375 L 12.162109 9.578125 L 12.185547 9.5976562 z M 11.503906 9.8066406 L 11.505859 9.8066406 C 11.637687 9.6781259 11.842604 9.678653 11.972656 9.8085938 C 12.102642 9.9387817 12.10513 10.145364 11.976562 10.277344 L 11.974609 10.279297 L 11.740234 10.513672 C 11.656436 10.599543 11.534237 10.634051 11.417969 10.603516 C 11.301438 10.572915 11.210232 10.481676 11.179688 10.365234 C 11.149129 10.248945 11.183419 10.126925 11.269531 10.042969 L 11.269531 10.041016 L 11.441406 9.8691406 L 11.503906 9.8066406 z "
         style="color:#000000;font-style:normal;font-variant:normal;font-weight:normal;font-stretch:normal;font-size:medium;line-height:normal;font-family:sans-serif;font-variant-ligatures:normal;font-variant-position:normal;font-variant-caps:normal;font-variant-numeric:normal;font-variant-alternates:normal;font-variant-east-asian:normal;font-feature-settings:normal;font-variation-settings:normal;text-indent:0;text-align:start;text-decoration:none;text-decoration-line:none;text-decoration-style:solid;text-decoration-color:#000000;letter-spacing:normal;word-spacing:normal;text-transform:none;writing-mode:lr-tb;direction:ltr;text-orientation:mixed;dominant-baseline:auto;baseline-shift:baseline;text-anchor:start;white-space:normal;shape-padding:0;shape-margin:0;inline-size:0;clip-rule:nonzero;display:inline;overflow:visible;visibility:visible;isolation:auto;mix-blend-mode:normal;color-interpolation:sRGB;color-interpolation-filters:linearRGB;solid-color:#000000;solid-opacity:1;vector-effect:none;fill:#ffffff;fill-opacity:1;fill-rule:nonzero;stroke:none;stroke-width:0.3;stroke-linecap:butt;stroke-linejoin:miter;stroke-miterlimit:4;stroke-dasharray:none;stroke-dashoffset:0;stroke-opacity:1.0;color-rendering:auto;image-rendering:auto;shape-rendering:auto;text-rendering:auto;enable-background:accumulate;stop-color:#000000;stop-opacity:1;" />
    </g>
    <g
       style="opacity:1"
       id="g68">
      <path
         id="path70"
         d="M 15.3987,6.03851 C 15.2305,5.99434 15.0516,6.04388 14.9301,6.16849 L 12.3412,8.7576 c -0.1246,0.12143 -0.1742,0.30041 -0.13,0.46856 0.0443,0.1686 0.176,0.30031 0.3446,0.3446 0.1683,0.04421 0.3472,-0.00563 0.4685,-0.12992 L 15.6134,6.85147 C 15.7377,6.73016 15.7875,6.55125 15.7433,6.38295 15.699,6.21437 15.5673,6.08257 15.3985,6.03846 l -0.0379,0.14513 z"
         style="color:#000000;font-style:normal;font-variant:normal;font-weight:normal;font-stretch:normal;font-size:medium;line-height:normal;font-family:sans-serif;font-variant-ligatures:normal;font-variant-position:normal;font-variant-caps:normal;font-variant-numeric:normal;font-variant-alternates:normal;font-variant-east-asian:normal;font-feature-settings:normal;font-variation-settings:normal;text-indent:0;text-align:start;text-decoration:none;text-decoration-line:none;text-decoration-style:solid;text-decoration-color:#000000;letter-spacing:normal;word-spacing:normal;text-transform:none;writing-mode:lr-tb;direction:ltr;text-orientation:mixed;dominant-baseline:auto;baseline-shift:baseline;text-anchor:start;white-space:normal;shape-padding:0;shape-margin:0;inline-size:0;clip-rule:nonzero;display:inline;overflow:visible;visibility:visible;isolation:auto;mix-blend-mode:normal;color-interpolation:sRGB;color-interpolation-filters:linearRGB;solid-color:#000000;solid-opacity:1;vector-effect:none;fill:#ffffff;fill-opacity:1;fill-rule:nonzero;stroke:none;stroke-width:0.3;stroke-linecap:butt;stroke-linejoin:miter;stroke-miterlimit:4;stroke-dasharray:none;stroke-dashoffset:0;stroke-opacity:1.0;color-rendering:auto;image-rendering:auto;shape-rendering:auto;text-rendering:auto;enable-background:accumulate;stop-color:#000000;stop-opacity:1;" />
      <path
         id="path72"
         d="M 15.291016 5.8554688 L 15.269531 5.9394531 C 15.108529 5.9448554 14.937865 5.9458952 14.822266 6.0644531 L 12.236328 8.6503906 C 12.073217 8.8093524 12.008539 9.0435264 12.066406 9.2636719 C 12.124396 9.4843721 12.296865 9.658817 12.517578 9.7167969 C 12.737935 9.7746814 12.972069 9.7076265 13.130859 9.5449219 L 15.71875 6.9589844 L 15.71875 6.9570312 C 15.88042 6.7982419 15.946366 6.5653847 15.888672 6.3457031 C 15.84668 6.1859074 15.697705 6.1017406 15.560547 6.0175781 L 15.582031 5.9316406 L 15.4375 5.8925781 C 15.437024 5.8924526 15.436023 5.8927026 15.435547 5.8925781 L 15.291016 5.8554688 z M 15.359375 6.1835938 L 15.361328 6.1835938 L 15.363281 6.1855469 C 15.478444 6.216731 15.567297 6.3063441 15.597656 6.421875 C 15.628191 6.5381418 15.593687 6.6603321 15.507812 6.7441406 L 12.917969 9.3359375 L 12.916016 9.3359375 C 12.832206 9.4218129 12.709993 9.4563167 12.59375 9.4257812 C 12.477264 9.3951811 12.386079 9.3039997 12.355469 9.1875 C 12.324936 9.0713455 12.359224 8.9491326 12.445312 8.8652344 L 12.447266 8.8652344 L 15.037109 6.2734375 C 15.120632 6.1877766 15.243676 6.1539472 15.359375 6.1835938 z "
         style="color:#000000;font-style:normal;font-variant:normal;font-weight:normal;font-stretch:normal;font-size:medium;line-height:normal;font-family:sans-serif;font-variant-ligatures:normal;font-variant-position:normal;font-variant-caps:normal;font-variant-numeric:normal;font-variant-alternates:normal;font-variant-east-asian:normal;font-feature-settings:normal;font-variation-settings:normal;text-indent:0;text-align:start;text-decoration:none;text-decoration-line:none;text-decoration-style:solid;text-decoration-color:#000000;letter-spacing:normal;word-spacing:normal;text-transform:none;writing-mode:lr-tb;direction:ltr;text-orientation:mixed;dominant-baseline:auto;baseline-shift:baseline;text-anchor:start;white-space:normal;shape-padding:0;shape-margin:0;inline-size:0;clip-rule:nonzero;display:inline;overflow:visible;visibility:visible;isolation:auto;mix-blend-mode:normal;color-interpolation:sRGB;color-interpolation-filters:linearRGB;solid-color:#000000;solid-opacity:1;vector-effect:none;fill:#ffffff;fill-opacity:1;fill-rule:nonzero;stroke:none;stroke-width:0.3;stroke-linecap:butt;stroke-linejoin:miter;stroke-miterlimit:4;stroke-dasharray:none;stroke-dashoffset:0;stroke-opacity:1.0;color-rendering:auto;image-rendering:auto;shape-rendering:auto;text-rendering:auto;enable-background:accumulate;stop-color:#000000;stop-opacity:1;" />
    </g>
  </g>
  <defs
     id="defs26">
    <clipPath
       id="clip0">
      <rect
         id="rect23"
         fill="white"
         height="20"
         width="20" />
    </clipPath>
  </defs>
</svg>
