<?xml version="1.0" encoding="UTF-8" standalone="no"?>
<svg
   xmlns:dc="http://purl.org/dc/elements/1.1/"
   xmlns:cc="http://creativecommons.org/ns#"
   xmlns:rdf="http://www.w3.org/1999/02/22-rdf-syntax-ns#"
   xmlns:svg="http://www.w3.org/2000/svg"
   xmlns="http://www.w3.org/2000/svg"
   xmlns:sodipodi="http://sodipodi.sourceforge.net/DTD/sodipodi-0.dtd"
   xmlns:inkscape="http://www.inkscape.org/namespaces/inkscape"
   inkscape:version="1.0 (4035a4fb49, 2020-05-01)"
   sodipodi:docname="stock-9.svg"
   id="svg310"
   version="1.1"
   fill="none"
   viewBox="0 0 20 20"
   height="20"
   width="20">
  <metadata
     id="metadata314">
    <rdf:RDF>
      <cc:Work
         rdf:about="">
        <dc:format>image/svg+xml</dc:format>
        <dc:type
           rdf:resource="http://purl.org/dc/dcmitype/StillImage" />
      </cc:Work>
    </rdf:RDF>
  </metadata>
  <sodipodi:namedview
     inkscape:current-layer="g303"
     inkscape:window-maximized="1"
     inkscape:window-y="-8"
     inkscape:window-x="-8"
     inkscape:cy="13.839467"
     inkscape:cx="18.277661"
     inkscape:zoom="10.625"
     showgrid="false"
     id="namedview312"
     inkscape:window-height="1017"
     inkscape:window-width="1920"
     inkscape:pageshadow="2"
     inkscape:pageopacity="0"
     guidetolerance="10"
     gridtolerance="10"
     objecttolerance="10"
     borderopacity="1"
     bordercolor="#666666"
     pagecolor="#ffffff" />
  <g
     id="g303"
     clip-path="url(#clip0)">
    <g
       style="opacity:1"
       id="g316">
      <path
         id="path318"
         d="m 19.7039,10.8789 -0.018,-0.0045 h -0.0184 c -0.2746,0 -1.6133,-0.0487 -2.8786,-0.7916 -1.253,-0.73563 -2.4526,-2.16206 -2.4526,-4.96118 0,-0.25646 -0.216,-0.47243 -0.4724,-0.47243 -0.2565,0 -0.4725,0.21597 -0.4725,0.47243 0,2.79914 -1.1996,4.22563 -2.4496,4.96128 -1.26221,0.7428 -2.59482,0.7915 -2.85673,0.7915 -0.09743,0 -0.20537,0.03 -0.28773,0.1026 -0.03945,0.0243 -0.06688,0.0539 -0.08482,0.0754 -0.00829,0.01 -0.01637,0.0205 -0.02171,0.0275 -0.00116,0.0015 -0.00219,0.0028 -0.00307,0.0039 -0.00508,0.0066 -0.00688,0.0087 -0.00686,0.0087 L 7.66417,11.1092 7.65328,11.131 c -0.07072,0.1414 -0.07072,0.3151 0,0.4565 0.07727,0.1546 0.25619,0.2566 0.43179,0.2566 v 0 0 h 10e-6 v 0 h 10e-6 v 0 0 h 1e-5 v 0 h 10e-6 v 0 h 10e-6 v 0 h 10e-6 v 0 h 1e-5 v 0 h 10e-6 10e-6 v 0 h 10e-6 v 0 0 h 10e-6 v 0 0 h 1e-5 v 0 h 10e-6 v 0 h 10e-6 v 0 h 10e-6 v 0 h 10e-6 v 0 h 1e-5 v 0 h 10e-6 v 0 h 10e-6 v 0 h 10e-6 10e-6 v 0 h 1e-5 v 0 h 10e-6 10e-6 v 0 h 10e-6 1e-5 v 0 h 10e-6 10e-6 10e-6 v 0 h 10e-6 1e-5 10e-6 v 0 h 10e-6 10e-6 10e-6 1e-5 10e-6 10e-6 v 0 h 10e-6 1e-5 10e-6 10e-6 10e-6 10e-6 1e-5 10e-6 10e-6 10e-6 10e-6 1e-5 2e-5 10e-6 1e-5 10e-6 10e-6 10e-6 10e-6 2e-5 10e-6 10e-6 10e-6 2e-5 10e-6 10e-6 2e-5 10e-6 10e-6 2e-5 10e-6 10e-6 2e-5 1e-5 2e-5 10e-6 2e-5 10e-6 2e-5 1e-5 2e-5 2e-5 1e-5 2e-5 10e-6 2e-5 2e-5 10e-6 2e-5 2e-5 2e-5 2e-5 10e-6 2e-5 2e-5 2e-5 2e-5 2e-5 2e-5 2e-5 2e-5 10e-6 3e-5 2e-5 2e-5 2e-5 2e-5 2e-5 2e-5 2e-5 2e-5 3e-5 2e-5 2e-5 2e-5 3e-5 2e-5 2e-5 3e-5 2e-5 2e-5 3e-5 2e-5 3e-5 2e-5 3e-5 2e-5 3e-5 3e-5 2e-5 3e-5 3e-5 2e-5 3e-5 3e-5 2e-5 3e-5 3e-5 3e-5 3e-5 3e-5 3e-5 3e-5 3e-5 3e-5 3e-5 3e-5 3e-5 3e-5 3e-5 3e-5 3e-5 3e-5 4e-5 3e-5 3e-5 4e-5 3e-5 3e-5 4e-5 3e-5 3e-5 4e-5 3e-5 4e-5 4e-5 3e-5 4e-5 3e-5 4e-5 4e-5 4e-5 3e-5 4e-5 4e-5 4e-5 4e-5 4e-5 3e-5 4e-5 4e-5 4e-5 5e-5 4e-5 4e-5 4e-5 4e-5 4e-5 5e-5 4e-5 4e-5 4e-5 5e-5 4e-5 5e-5 4e-5 5e-5 4e-5 5e-5 4e-5 5e-5 4e-5 5e-5 5e-5 5e-5 4e-5 5e-5 5e-5 5e-5 5e-5 5e-5 5e-5 5e-5 5e-5 5e-5 5e-5 5e-5 5e-5 5e-5 6e-5 5e-5 5e-5 6e-5 5e-5 5e-5 6e-5 5e-5 6e-5 5e-5 6e-5 6e-5 5e-5 6e-5 6e-5 5e-5 6e-5 6e-5 6e-5 6e-5 6e-5 6e-5 6e-5 6e-5 6e-5 6e-5 6e-5 6e-5 7e-5 6e-5 6e-5 7e-5 6e-5 6e-5 7e-5 6e-5 7e-5 7e-5 6e-5 7e-5 7e-5 6e-5 7e-5 7e-5 7e-5 7e-5 7e-5 6e-5 8e-5 7e-5 7e-5 7e-5 7e-5 7e-5 7e-5 8e-5 7e-5 7e-5 8e-5 7e-5 8e-5 7e-5 8e-5 7e-5 8e-5 8e-5 7e-5 8e-5 8e-5 8e-5 8e-5 8e-5 8e-5 8e-5 8e-5 8e-5 8e-5 8e-5 9e-5 8e-5 8e-5 9e-5 8e-5 8e-5 9e-5 8e-5 9e-5 9e-5 8e-5 9e-5 9e-5 9e-5 8e-5 9e-5 9e-5 9e-5 9e-5 9e-5 9e-5 1e-4 9e-5 9e-5 9e-5 10e-5 9e-5 10e-5 9e-5 1e-4 9e-5 1e-4 9e-5 10e-5 10e-5 10e-5 9e-5 10e-5 10e-5 10e-5 10e-5 10e-5 1.1e-4 10e-5 10e-5 10e-5 1.1e-4 10e-5 10e-5 1.1e-4 10e-5 1.1e-4 1.1e-4 10e-5 1.1e-4 1.1e-4 10e-5 1.1e-4 1.1e-4 1.1e-4 1.1e-4 1.1e-4 1.1e-4 1.1e-4 1.2e-4 1.1e-4 1.1e-4 1.2e-4 1.1e-4 1.1e-4 1.2e-4 1.1e-4 1.2e-4 1.2e-4 1.1e-4 1.2e-4 1.2e-4 1.2e-4 1.2e-4 1.2e-4 1.2e-4 1.2e-4 1.2e-4 1.2e-4 1.2e-4 1.3e-4 1.2e-4 1.2e-4 1.3e-4 1.2e-4 1.3e-4 1.2e-4 1.3e-4 1.3e-4 1.2e-4 1.3e-4 1.3e-4 1.3e-4 1.3e-4 1.3e-4 1.3e-4 1.3e-4 1.3e-4 1.4e-4 1.3e-4 1.3e-4 1.4e-4 1.3e-4 1.3e-4 1.4e-4 1.4e-4 1.3e-4 1.4e-4 1.4e-4 1.4e-4 1.4e-4 1.3e-4 1.4e-4 1.5e-4 1.4e-4 1.4e-4 1.4e-4 1.4e-4 1.5e-4 1.4e-4 1.4e-4 1.5e-4 c 0.2745,0 1.60694,0.0487 2.86593,0.7914 1.2467,0.7355 2.4405,2.1619 2.4405,4.9614 0,0.2564 0.2159,0.4724 0.4724,0.4724 0.2564,0 0.4724,-0.216 0.4724,-0.4724 0,-2.7868 1.1936,-4.2135 2.4407,-4.9522 1.2593,-0.7459 2.5919,-0.8006 2.8657,-0.8006 0.1904,0 0.3288,-0.1152 0.4176,-0.2336 l 0.0081,-0.0109 0.0061,-0.0121 c 0.0696,-0.1392 0.074,-0.3199 -0.0313,-0.4689 -0.0433,-0.0787 -0.1102,-0.1312 -0.172,-0.166 -0.0654,-0.0368 -0.1352,-0.0595 -0.1921,-0.0737 z m -5.84,-2.88887 c 0.73,1.91345 2.1675,2.87267 3.4192,3.35687 -1.2517,0.4842 -2.6892,1.4433 -3.4192,3.3568 -0.73,-1.9135 -2.1675,-2.8726 -3.4192,-3.3568 1.2517,-0.4843 2.6892,-1.44342 3.4192,-3.35687 z"
         style="color:#000000;font-style:normal;font-variant:normal;font-weight:normal;font-stretch:normal;font-size:medium;line-height:normal;font-family:sans-serif;font-variant-ligatures:normal;font-variant-position:normal;font-variant-caps:normal;font-variant-numeric:normal;font-variant-alternates:normal;font-variant-east-asian:normal;font-feature-settings:normal;font-variation-settings:normal;text-indent:0;text-align:start;text-decoration:none;text-decoration-line:none;text-decoration-style:solid;text-decoration-color:#000000;letter-spacing:normal;word-spacing:normal;text-transform:none;writing-mode:lr-tb;direction:ltr;text-orientation:mixed;dominant-baseline:auto;baseline-shift:baseline;text-anchor:start;white-space:normal;shape-padding:0;shape-margin:0;inline-size:0;clip-rule:nonzero;display:inline;overflow:visible;visibility:visible;isolation:auto;mix-blend-mode:normal;color-interpolation:sRGB;color-interpolation-filters:linearRGB;solid-color:#000000;solid-opacity:1;vector-effect:none;fill:#ffffff;fill-opacity:1;fill-rule:nonzero;stroke:none;stroke-width:0.3;stroke-linecap:butt;stroke-linejoin:miter;stroke-miterlimit:4;stroke-dasharray:none;stroke-dashoffset:0;stroke-opacity:1.0;color-rendering:auto;image-rendering:auto;shape-rendering:auto;text-rendering:auto;enable-background:accumulate;stop-color:#000000;stop-opacity:1;" />
      <path
         id="path320"
         d="M 13.863281 4.5 C 13.522582 4.5 13.242188 4.7804101 13.242188 5.1210938 C 13.242188 7.8773777 12.078338 9.2391893 10.865234 9.953125 C 9.6403275 10.673972 8.3292533 10.724609 8.0859375 10.724609 C 7.9596315 10.724609 7.8179392 10.764648 7.703125 10.863281 C 7.655844 10.896306 7.617478 10.933276 7.5976562 10.957031 C 7.5877309 10.969004 7.5799749 10.978793 7.5742188 10.986328 L 7.5722656 10.988281 C 7.5722656 10.988281 7.5703125 10.990234 7.5703125 10.990234 L 7.5683594 10.992188 C 7.5683594 10.992188 7.5683594 10.994141 7.5683594 10.994141 L 7.5410156 11.019531 L 7.5195312 11.064453 C 7.4268277 11.249808 7.4268277 11.468942 7.5195312 11.654297 C 7.6264041 11.868126 7.8522509 11.994141 8.0859375 11.994141 L 8.0878906 11.994141 L 8.0898438 11.994141 L 8.0917969 11.994141 L 8.09375 11.994141 L 8.0957031 11.994141 L 8.0976562 11.994141 L 8.0996094 11.994141 L 8.1015625 11.994141 L 8.1035156 11.994141 L 8.1054688 11.994141 L 8.1074219 11.994141 L 8.109375 11.994141 C 8.3661337 11.994141 9.6788206 12.045 10.900391 12.765625 C 12.110084 13.479293 13.265625 14.8408 13.265625 17.597656 C 13.265625 17.938261 13.547961 18.21875 13.888672 18.21875 C 14.229315 18.21875 14.511719 17.9383 14.511719 17.597656 C 14.511719 14.853687 15.668562 13.490366 16.878906 12.773438 C 18.10105 12.049545 19.414147 11.994141 19.667969 11.994141 C 19.918873 11.994141 20.099413 11.842058 20.205078 11.701172 L 20.220703 11.677734 L 20.232422 11.654297 L 20.234375 11.654297 C 20.324922 11.473204 20.325546 11.234971 20.191406 11.039062 C 20.130406 10.93444 20.043757 10.864503 19.96875 10.822266 C 19.886573 10.776026 19.805611 10.748737 19.740234 10.732422 L 19.705078 10.724609 L 19.667969 10.724609 C 19.411104 10.724609 18.093167 10.674085 16.865234 9.953125 C 15.649196 9.2391948 14.486328 7.8773574 14.486328 5.1210938 C 14.486328 4.7804101 14.203913 4.5 13.863281 4.5 z M 13.863281 4.7988281 C 14.03545 4.7988281 14.185547 4.9488574 14.185547 5.1210938 C 14.185547 7.9630701 15.422929 9.4555608 16.712891 10.212891 C 18.015558 10.977731 19.375634 11.023438 19.667969 11.023438 L 19.667969 11.025391 C 19.716392 11.037475 19.773642 11.056624 19.822266 11.083984 C 19.868192 11.109846 19.912074 11.145193 19.9375 11.191406 L 19.941406 11.199219 L 19.945312 11.205078 C 20.016487 11.305791 20.012353 11.424513 19.964844 11.519531 C 19.892909 11.615445 19.797865 11.693359 19.667969 11.693359 C 19.374191 11.693359 18.021065 11.747717 16.724609 12.515625 C 15.440753 13.276097 14.210937 14.768026 14.210938 17.597656 C 14.210938 17.769813 14.060829 17.919922 13.888672 17.919922 C 13.716382 17.919922 13.566406 17.769852 13.566406 17.597656 C 13.566406 14.755513 12.336441 13.263192 11.052734 12.505859 C 9.7563244 11.741085 8.4016163 11.693359 8.109375 11.693359 L 8.1074219 11.693359 L 8.1054688 11.693359 L 8.1035156 11.693359 L 8.1015625 11.693359 L 8.0996094 11.693359 L 8.0976562 11.693359 L 8.0957031 11.693359 L 8.09375 11.693359 L 8.0917969 11.693359 L 8.0898438 11.693359 L 8.0878906 11.693359 L 8.0859375 11.693359 C 7.9684241 11.693359 7.8347765 11.614903 7.7871094 11.519531 C 7.7383729 11.422086 7.7383729 11.294711 7.7871094 11.197266 L 7.7910156 11.195312 L 7.7949219 11.191406 C 7.7949219 11.191406 7.7994888 11.184359 7.8046875 11.177734 L 7.8066406 11.175781 C 7.8075501 11.174632 7.8074925 11.173299 7.8085938 11.171875 L 7.8105469 11.171875 L 7.8105469 11.169922 C 7.8155035 11.163424 7.8221972 11.155588 7.828125 11.148438 C 7.841267 11.132688 7.85738 11.117525 7.8769531 11.105469 L 7.8867188 11.097656 L 7.8964844 11.089844 C 7.9454522 11.046679 8.0192988 11.023438 8.0859375 11.023438 C 8.3664417 11.023438 9.718065 10.977643 11.017578 10.212891 C 12.304475 9.4555263 13.541016 7.9630898 13.541016 5.1210938 C 13.541016 4.9488574 13.69098 4.7988281 13.863281 4.7988281 z M 13.863281 7.5683594 L 13.724609 7.9375 C 13.012035 9.8052739 11.616212 10.732835 10.390625 11.207031 L 10.029297 11.347656 L 10.390625 11.486328 C 11.616204 11.960424 13.012035 12.889989 13.724609 14.757812 L 13.863281 15.125 L 14.003906 14.757812 C 14.716481 12.889989 16.112312 11.960424 17.337891 11.486328 L 17.699219 11.347656 L 17.337891 11.207031 C 16.112319 10.732939 14.716481 9.8052755 14.003906 7.9375 L 13.863281 7.5683594 z M 13.863281 8.2480469 C 14.589976 9.9253162 15.833156 10.850703 16.996094 11.347656 C 15.83339 11.844681 14.589797 12.768424 13.863281 14.445312 C 13.136644 12.769057 11.892958 11.844553 10.730469 11.347656 C 11.89318 10.850765 13.136465 9.9246765 13.863281 8.2480469 z "
         style="color:#000000;font-style:normal;font-variant:normal;font-weight:normal;font-stretch:normal;font-size:medium;line-height:normal;font-family:sans-serif;font-variant-ligatures:normal;font-variant-position:normal;font-variant-caps:normal;font-variant-numeric:normal;font-variant-alternates:normal;font-variant-east-asian:normal;font-feature-settings:normal;font-variation-settings:normal;text-indent:0;text-align:start;text-decoration:none;text-decoration-line:none;text-decoration-style:solid;text-decoration-color:#000000;letter-spacing:normal;word-spacing:normal;text-transform:none;writing-mode:lr-tb;direction:ltr;text-orientation:mixed;dominant-baseline:auto;baseline-shift:baseline;text-anchor:start;white-space:normal;shape-padding:0;shape-margin:0;inline-size:0;clip-rule:nonzero;display:inline;overflow:visible;visibility:visible;isolation:auto;mix-blend-mode:normal;color-interpolation:sRGB;color-interpolation-filters:linearRGB;solid-color:#000000;solid-opacity:1;vector-effect:none;fill:#ffffff;fill-opacity:1;fill-rule:nonzero;stroke:none;stroke-width:0.3;stroke-linecap:butt;stroke-linejoin:miter;stroke-miterlimit:4;stroke-dasharray:none;stroke-dashoffset:0;stroke-opacity:1.0;color-rendering:auto;image-rendering:auto;shape-rendering:auto;text-rendering:auto;enable-background:accumulate;stop-color:#000000;stop-opacity:1;" />
    </g>
    <g
       style="opacity:1"
       id="g322">
      <path
         id="path324"
         d="M 3.14967,3.92995 H 3.13901 L 3.12846,3.93145 C 2.89232,3.96519 2.70205,4.14317 2.70205,4.40237 c 0,0.25645 0.21597,0.47242 0.47242,0.47242 0.15115,0 0.8632,0.02416 1.53276,0.41941 0.65725,0.38798 1.29344,1.14446 1.29344,2.65482 0,0.25246 0.2093,0.46569 0.46048,0.47227 C 6.58908,8.4379 6.70485,8.38203 6.78378,8.3031 6.86582,8.22106 6.92072,8.10301 6.92072,7.97382 6.92072,6.46409 7.56255,5.70743 8.22321,5.31914 8.89616,4.92364 9.60852,4.89959 9.74692,4.89959 h 0.0248 c 0.26358,0 0.47238,-0.22331 0.47238,-0.49722 0,-0.25646 -0.2159,-0.47242 -0.47238,-0.47242 C 9.63333,3.92995 8.92096,3.9059 8.24802,3.5104 7.58735,3.12211 6.94552,2.36545 6.94552,0.855718 6.94552,0.599263 6.72955,0.383295 6.4731,0.383295 6.21664,0.383295 6.00067,0.599263 6.00067,0.855718 6.00067,2.36545 5.35884,3.12211 4.69818,3.5104 4.02523,3.9059 3.31287,3.92995 3.17447,3.92995 H 3.17433 3.17418 3.17404 3.1739 3.17375 3.17361 3.17347 3.17333 3.17319 3.17305 3.17291 3.17277 3.17263 3.17249 3.17236 3.17222 3.17208 3.17195 3.17181 3.17168 3.17154 3.17141 3.17128 3.17115 3.17101 3.17088 3.17075 3.17062 3.17049 3.17036 3.17024 3.17011 3.16998 3.16985 3.16973 3.1696 3.16948 3.16935 3.16923 3.1691 3.16898 3.16886 3.16873 3.16861 3.16849 3.16837 3.16825 3.16813 3.16801 3.16789 3.16778 3.16766 3.16754 3.16742 3.16731 3.16719 3.16708 3.16696 3.16685 3.16674 3.16662 3.16651 3.1664 h -1.1e-4 -1.1e-4 -1.2e-4 -1.1e-4 -1e-4 -1.1e-4 -1.1e-4 -1.1e-4 -1.1e-4 -1.1e-4 -10e-5 -1.1e-4 -1e-4 -1.1e-4 -1e-4 -1.1e-4 -1e-4 -10e-5 -1.1e-4 -10e-5 -1e-4 -10e-5 -1e-4 -10e-5 -1e-4 -10e-5 -1e-4 -10e-5 -1e-4 -10e-5 -9e-5 -1e-4 -10e-5 -9e-5 -10e-5 -9e-5 -1e-4 -9e-5 -9e-5 -10e-5 -9e-5 -9e-5 -9e-5 -9e-5 -9e-5 -9e-5 -9e-5 -9e-5 -9e-5 -9e-5 -9e-5 -9e-5 -8e-5 -9e-5 -9e-5 -8e-5 -9e-5 -8e-5 -9e-5 -8e-5 -9e-5 -8e-5 -8e-5 -8e-5 -9e-5 -8e-5 -8e-5 -8e-5 -8e-5 -8e-5 -8e-5 -8e-5 -8e-5 -7e-5 -8e-5 -8e-5 -8e-5 -7e-5 -8e-5 -7e-5 -8e-5 -7e-5 -8e-5 -7e-5 -8e-5 -7e-5 -7e-5 -8e-5 -7e-5 -7e-5 -7e-5 -7e-5 -7e-5 -7e-5 -7e-5 -7e-5 -7e-5 -7e-5 -7e-5 -6e-5 -7e-5 -7e-5 -6e-5 -7e-5 -7e-5 -6e-5 -7e-5 -6e-5 -7e-5 -6e-5 -6e-5 -7e-5 -6e-5 -6e-5 -6e-5 -7e-5 -6e-5 -6e-5 -6e-5 -6e-5 -6e-5 -6e-5 -6e-5 -6e-5 -5e-5 -6e-5 -6e-5 -6e-5 -5e-5 -6e-5 -6e-5 -5e-5 -6e-5 -5e-5 -6e-5 -5e-5 -6e-5 -5e-5 -5e-5 -6e-5 -5e-5 -5e-5 -5e-5 -6e-5 -5e-5 -5e-5 -5e-5 -5e-5 -5e-5 -5e-5 -5e-5 -5e-5 -5e-5 -5e-5 -4e-5 -5e-5 -5e-5 -5e-5 -4e-5 -5e-5 -4e-5 -5e-5 -5e-5 -4e-5 -5e-5 -4e-5 -4e-5 -5e-5 -4e-5 -5e-5 -4e-5 -4e-5 -4e-5 -5e-5 -4e-5 -4e-5 -4e-5 -4e-5 -4e-5 -4e-5 -4e-5 -4e-5 -4e-5 -4e-5 -4e-5 -4e-5 -4e-5 -3e-5 -4e-5 -4e-5 -4e-5 -3e-5 -4e-5 -3e-5 -4e-5 -4e-5 -3e-5 -4e-5 -3e-5 -4e-5 -3e-5 -3e-5 -4e-5 -3e-5 -3e-5 -4e-5 -3e-5 -3e-5 -3e-5 -4e-5 -3e-5 -3e-5 -3e-5 -3e-5 -3e-5 -3e-5 -3e-5 -3e-5 -3e-5 -3e-5 -3e-5 -3e-5 -3e-5 -2e-5 -3e-5 -3e-5 -3e-5 -2e-5 -3e-5 -3e-5 -2e-5 -3e-5 -3e-5 -2e-5 -3e-5 -2e-5 -3e-5 -2e-5 -3e-5 -2e-5 -3e-5 -2e-5 -2e-5 -3e-5 -2e-5 -2e-5 -3e-5 -2e-5 -2e-5 -2e-5 -2e-5 -3e-5 -2e-5 -2e-5 -2e-5 -2e-5 -2e-5 -2e-5 -2e-5 -2e-5 -2e-5 -2e-5 -2e-5 -2e-5 -2e-5 -2e-5 -2e-5 -1e-5 -2e-5 -2e-5 -2e-5 -1e-5 -2e-5 -2e-5 -2e-5 -1e-5 -2e-5 -2e-5 -10e-6 -2e-5 -1e-5 -2e-5 -10e-6 -2e-5 -1e-5 -2e-5 -1e-5 -2e-5 -1e-5 -2e-5 -1e-5 -1e-5 -2e-5 -1e-5 -1e-5 -2e-5 -1e-5 -10e-6 -2e-5 -1e-5 -1e-5 -1e-5 -10e-6 -2e-5 -1e-5 -1e-5 -1e-5 -1e-5 -10e-6 -1e-5 -1e-5 -1e-5 -1e-5 -1e-5 -1e-5 -10e-6 -1e-5 -1e-5 -1e-5 -1e-5 -1e-5 -1e-5 -10e-6 -1e-5 -1e-5 -1e-5 v 0 h -1e-5 -1e-5 -1e-5 -10e-6 v 0 h -1e-5 -1e-5 -1e-5 v 0 h -1e-5 -1e-5 v 0 h -10e-6 -1e-5 v 0 h -1e-5 -1e-5 v 0 h -1e-5 v 0 h -1e-5 v 0 h -1e-5 -10e-6 v 0 h -1e-5 v 0 h -1e-5 v 0 h -1e-5 v 0 0 h -1e-5 v 0 h -1e-5 v 0 h -1e-5 v 0 0 h -10e-6 v 0 0 h -1e-5 v 0 0 h -1e-5 v 0 0 h -1e-5 v 0 0 h -1e-5 v 0 0 0 h -1e-5 v 0 0 0 0 h -1e-5 v 0 0 0 0 h -10e-6 v 0 0 h -1e-5 v 0 0 0 h -1e-5 v 0 0 0 0 z m 4.73717,0.4696 C 7.32487,4.69501 6.81137,5.16124 6.45093,5.81981 6.08475,5.1329 5.54518,4.69211 5.00975,4.40518 5.57172,4.10973 6.08523,3.64349 6.44566,2.98493 6.81184,3.67184 7.35141,4.11263 7.88684,4.39955 Z"
         style="color:#000000;font-style:normal;font-variant:normal;font-weight:normal;font-stretch:normal;font-size:medium;line-height:normal;font-family:sans-serif;font-variant-ligatures:normal;font-variant-position:normal;font-variant-caps:normal;font-variant-numeric:normal;font-variant-alternates:normal;font-variant-east-asian:normal;font-feature-settings:normal;font-variation-settings:normal;text-indent:0;text-align:start;text-decoration:none;text-decoration-line:none;text-decoration-style:solid;text-decoration-color:#000000;letter-spacing:normal;word-spacing:normal;text-transform:none;writing-mode:lr-tb;direction:ltr;text-orientation:mixed;dominant-baseline:auto;baseline-shift:baseline;text-anchor:start;white-space:normal;shape-padding:0;shape-margin:0;inline-size:0;clip-rule:nonzero;display:inline;overflow:visible;visibility:visible;isolation:auto;mix-blend-mode:normal;color-interpolation:sRGB;color-interpolation-filters:linearRGB;solid-color:#000000;solid-opacity:1;vector-effect:none;fill:#ffffff;fill-opacity:1;fill-rule:nonzero;stroke:none;stroke-width:0.3;stroke-linecap:butt;stroke-linejoin:miter;stroke-miterlimit:4;stroke-dasharray:none;stroke-dashoffset:0;stroke-opacity:1.0;color-rendering:auto;image-rendering:auto;shape-rendering:auto;text-rendering:auto;enable-background:accumulate;stop-color:#000000;stop-opacity:1;" />
      <path
         id="path326"
         d="M 6.4726562 0.23242188 C 6.1319851 0.23242188 5.8515625 0.51480014 5.8515625 0.85546875 C 5.8515625 2.3226879 5.2469049 3.014199 4.6230469 3.3808594 C 3.9876727 3.7542757 3.294851 3.7792969 3.1738281 3.7792969 L 3.171875 3.7792969 L 3.1699219 3.7792969 L 3.1679688 3.7792969 L 3.1660156 3.7792969 L 3.1640625 3.7792969 L 3.1621094 3.7792969 L 3.1601562 3.7792969 L 3.1582031 3.7792969 L 3.15625 3.7792969 L 3.1542969 3.7792969 L 3.1523438 3.7792969 L 3.1503906 3.7792969 L 3.1289062 3.7792969 L 3.1074219 3.7832031 C 2.8093308 3.8257948 2.5527344 4.0697371 2.5527344 4.4023438 C 2.5527344 4.743009 2.8331629 5.0253906 3.1738281 5.0253906 C 3.308994 5.0253906 3.9990856 5.0508838 4.6308594 5.4238281 C 5.2510961 5.7899589 5.8515625 6.4809805 5.8515625 7.9492188 C 5.8515625 8.2824472 6.1222286 8.5543171 6.453125 8.5664062 C 6.6292838 8.5843148 6.7875986 8.5112296 6.890625 8.4082031 C 6.9998796 8.2989485 7.0703125 8.1462949 7.0703125 7.9746094 C 7.0703125 6.5073923 7.6749701 5.8158791 8.2988281 5.4492188 C 8.9342023 5.0758024 9.6250709 5.0488281 9.7460938 5.0488281 L 9.7714844 5.0488281 C 10.119786 5.0488281 10.394531 4.7524832 10.394531 4.4023438 C 10.394531 4.0616991 10.112166 3.7792969 9.7714844 3.7792969 C 9.6504728 3.7792969 8.9595817 3.7542746 8.3242188 3.3808594 C 7.7003512 3.014199 7.0957031 2.3226879 7.0957031 0.85546875 C 7.0957031 0.51480014 6.8133207 0.23242187 6.4726562 0.23242188 z M 6.4726562 0.53320312 C 6.6448918 0.53320312 6.7949219 0.68322736 6.7949219 0.85546875 C 6.7949219 2.4077136 7.4744026 3.2307054 8.171875 3.640625 C 8.8823921 4.0582098 9.615716 4.0800781 9.7714844 4.0800781 C 9.9437629 4.0800781 10.09375 4.2300684 10.09375 4.4023438 C 10.09375 4.6000243 9.9503425 4.75 9.7714844 4.75 L 9.7460938 4.75 C 9.5903166 4.75 8.8570102 4.7718694 8.1464844 5.1894531 C 7.4490224 5.5993728 6.7714844 6.4223665 6.7714844 7.9746094 C 6.7714844 8.0613038 6.7325597 8.1424403 6.6777344 8.1972656 C 6.6256356 8.2493644 6.5543493 8.2830299 6.4804688 8.2734375 L 6.4726562 8.2714844 L 6.4648438 8.2714844 C 6.2962871 8.2670688 6.1503906 8.1187745 6.1503906 7.9492188 C 6.1503906 6.396737 5.4774664 5.5738918 4.7832031 5.1640625 C 4.0758569 4.7465068 3.3409622 4.7246094 3.1738281 4.7246094 C 3.0015934 4.7246094 2.8515625 4.5745785 2.8515625 4.4023438 C 2.8515625 4.2165504 2.9762017 4.1049665 3.1503906 4.0800781 L 3.1523438 4.0800781 L 3.1542969 4.0800781 L 3.15625 4.0800781 L 3.1582031 4.0800781 L 3.1601562 4.0800781 L 3.1621094 4.0800781 L 3.1640625 4.0800781 L 3.1660156 4.0800781 L 3.1679688 4.0800781 L 3.1699219 4.0800781 L 3.171875 4.0800781 L 3.1738281 4.0800781 C 3.3296053 4.0800781 4.0629117 4.0582087 4.7734375 3.640625 C 5.4708995 3.2307053 6.1503906 2.4077136 6.1503906 0.85546875 C 6.1503906 0.68322736 6.3004074 0.53320312 6.4726562 0.53320312 z M 6.4472656 2.6699219 L 6.3144531 2.9121094 C 5.9685153 3.54419 5.4772043 3.9887672 4.9394531 4.2714844 L 4.6894531 4.4042969 L 4.9394531 4.5371094 C 5.4554895 4.8136466 5.9684228 5.2341856 6.3183594 5.890625 L 6.4492188 6.1347656 L 6.5820312 5.8925781 C 6.9279797 5.2604861 7.4192779 4.8159311 7.9570312 4.5332031 L 8.2070312 4.4003906 L 7.9570312 4.2675781 C 7.4409966 3.9910515 6.9280616 3.5705019 6.578125 2.9140625 L 6.4472656 2.6699219 z M 6.4472656 3.1855469 C 6.7873397 3.7386249 7.2270012 4.1313866 7.6835938 4.4003906 C 7.2089005 4.6806936 6.7824555 5.0832533 6.4511719 5.6191406 C 6.1112782 5.0657933 5.6714279 4.6734948 5.2148438 4.4042969 C 5.6891678 4.1240048 6.11622 3.7210947 6.4472656 3.1855469 z "
         style="color:#000000;font-style:normal;font-variant:normal;font-weight:normal;font-stretch:normal;font-size:medium;line-height:normal;font-family:sans-serif;font-variant-ligatures:normal;font-variant-position:normal;font-variant-caps:normal;font-variant-numeric:normal;font-variant-alternates:normal;font-variant-east-asian:normal;font-feature-settings:normal;font-variation-settings:normal;text-indent:0;text-align:start;text-decoration:none;text-decoration-line:none;text-decoration-style:solid;text-decoration-color:#000000;letter-spacing:normal;word-spacing:normal;text-transform:none;writing-mode:lr-tb;direction:ltr;text-orientation:mixed;dominant-baseline:auto;baseline-shift:baseline;text-anchor:start;white-space:normal;shape-padding:0;shape-margin:0;inline-size:0;clip-rule:nonzero;display:inline;overflow:visible;visibility:visible;isolation:auto;mix-blend-mode:normal;color-interpolation:sRGB;color-interpolation-filters:linearRGB;solid-color:#000000;solid-opacity:1;vector-effect:none;fill:#ffffff;fill-opacity:1;fill-rule:nonzero;stroke:none;stroke-width:0.3;stroke-linecap:butt;stroke-linejoin:miter;stroke-miterlimit:4;stroke-dasharray:none;stroke-dashoffset:0;stroke-opacity:1.0;color-rendering:auto;image-rendering:auto;shape-rendering:auto;text-rendering:auto;enable-background:accumulate;stop-color:#000000;stop-opacity:1;" />
    </g>
    <g
       style="opacity:1"
       id="g328">
      <path
         id="path330"
         d="M 0.297621,15.1155 H 0.286961 L 0.276408,15.117 C 0.0402752,15.1508 -0.15,15.3287 -0.15,15.5879 c 0,0.2565 0.2159679,0.4725 0.472423,0.4725 0.151144,0 0.863197,0.0241 1.532767,0.4194 0.65725,0.3879 1.29344,1.1444 1.29344,2.6548 0,0.2486 0.20304,0.4592 0.44915,0.4718 0.1299,0.0331 0.2516,-0.0168 0.33396,-0.0991 0.08625,-0.0863 0.13694,-0.2123 0.13694,-0.3479 0,-1.5097 0.64183,-2.2664 1.3025,-2.6547 0.67295,-0.3955 1.38531,-0.4195 1.52371,-0.4195 h 0.0248 c 0.26361,0 0.47242,-0.2234 0.47242,-0.4973 0,-0.2564 -0.21596,-0.4724 -0.47242,-0.4724 -0.1384,0 -0.85076,-0.024 -1.52371,-0.4195 -0.66067,-0.3883 -1.3025,-1.145 -1.3025,-2.6547 0,-0.2565 -0.21597,-0.4724 -0.47242,-0.4724 -0.25646,0 -0.47243,0.2159 -0.47243,0.4724 0,1.5097 -0.64183,2.2664 -1.3025,2.6547 -0.67294,0.3955 -1.38531,0.4195 -1.523707,0.4195 h -1.45e-4 -1.45e-4 -1.44e-4 -1.43e-4 -1.43e-4 -1.42e-4 -1.42e-4 -1.41e-4 -1.4e-4 -1.4e-4 -1.4e-4 -1.38e-4 -1.39e-4 -1.37e-4 -1.38e-4 -1.36e-4 -1.36e-4 -1.36e-4 -1.35e-4 -1.35e-4 -1.33e-4 -1.34e-4 -1.33e-4 -1.32e-4 -1.32e-4 -1.31e-4 -1.31e-4 -1.3e-4 -1.29e-4 -1.29e-4 -1.29e-4 -1.28e-4 -1.27e-4 -1.27e-4 -1.27e-4 -1.25e-4 -1.26e-4 -1.25e-4 -1.24e-4 -1.24e-4 -1.23e-4 -1.23e-4 -1.22e-4 -1.22e-4 -1.21e-4 -1.2e-4 -1.2e-4 -1.2e-4 -1.19e-4 -1.19e-4 -1.18e-4 -1.17e-4 -1.17e-4 -1.17e-4 -1.16e-4 -1.16e-4 -1.15e-4 -1.14e-4 -1.14e-4 -1.14e-4 -1.13e-4 -1.12e-4 -1.12e-4 -1.12e-4 -1.11e-4 -1.1e-4 -1.1e-4 -1.1e-4 -1.09e-4 -1.08e-4 -1.08e-4 -1.08e-4 -1.07e-4 -1.07e-4 -1.06e-4 -1.05e-4 -1.05e-4 -1.05e-4 -1.04e-4 -1.04e-4 -1.03e-4 -1.03e-4 -1.02e-4 -1.02e-4 -1.01e-4 -1.01e-4 -1.01e-4 -9.9e-5 -10e-5 -9.9e-5 -9.8e-5 -9.8e-5 -9.8e-5 -9.7e-5 -9.7e-5 -9.6e-5 -9.5e-5 -9.6e-5 -9.5e-5 -9.4e-5 -9.4e-5 -9.3e-5 -9.3e-5 -9.3e-5 -9.2e-5 -9.1e-5 -9.1e-5 -9.1e-5 -9e-5 -9e-5 -9e-5 -8.8e-5 -8.9e-5 -8.8e-5 -8.8e-5 -8.7e-5 -8.6e-5 -8.7e-5 -8.6e-5 -8.5e-5 -8.5e-5 -8.4e-5 -8.5e-5 -8.3e-5 -8.3e-5 -8.3e-5 -8.3e-5 -8.2e-5 -8.1e-5 -8.1e-5 -8.1e-5 -8e-5 -8e-5 -7.9e-5 -7.9e-5 -7.9e-5 -7.8e-5 -7.8e-5 -7.7e-5 -7.7e-5 -7.7e-5 -7.6e-5 -7.6e-5 -7.5e-5 -7.5e-5 -7.4e-5 -7.4e-5 -7.4e-5 -7.3e-5 -7.3e-5 -7.2e-5 -7.2e-5 -7.2e-5 -7.1e-5 -7.1e-5 -7.1e-5 -7e-5 -6.9e-5 -7e-5 -6.9e-5 -6.8e-5 -6.8e-5 -6.8e-5 -6.7e-5 -6.7e-5 -6.7e-5 -6.6e-5 -6.6e-5 -6.5e-5 -6.5e-5 -6.5e-5 -6.4e-5 -6.4e-5 -6.3e-5 -6.4e-5 -6.2e-5 -6.3e-5 -6.2e-5 -6.1e-5 -6.2e-5 -6.1e-5 -6e-5 -6e-5 -6e-5 -6e-5 -5.9e-5 -5.8e-5 -5.9e-5 -5.8e-5 -5.8e-5 -5.7e-5 -5.7e-5 -5.6e-5 -5.7e-5 -5.5e-5 -5.6e-5 -5.5e-5 -5.5e-5 -5.4e-5 -5.5e-5 -5.3e-5 -5.4e-5 -5.3e-5 -5.3e-5 -5.2e-5 -5.2e-5 -5.2e-5 -5.1e-5 -5.1e-5 -5.1e-5 -5.1e-5 -5e-5 -4.9e-5 -5e-5 -4.9e-5 -4.9e-5 -4.8e-5 -4.8e-5 -4.8e-5 -4.7e-5 -4.7e-5 -4.7e-5 -4.7e-5 -4.6e-5 -4.6e-5 -4.5e-5 -4.5e-5 -4.5e-5 -4.5e-5 -4.4e-5 -4.4e-5 -4.3e-5 -4.4e-5 -4.3e-5 -4.2e-5 -4.3e-5 -4.2e-5 -4.2e-5 -4.1e-5 -4.1e-5 -4.1e-5 -4.1e-5 -4e-5 -4e-5 -4e-5 -3.9e-5 -3.9e-5 -3.9e-5 -3.8e-5 -3.9e-5 -3.7e-5 -3.8e-5 -3.7e-5 -3.7e-5 -3.7e-5 -3.7e-5 -3.6e-5 -3.6e-5 -3.5e-5 -3.6e-5 -3.5e-5 -3.5e-5 -3.4e-5 -3.4e-5 -3.4e-5 -3.4e-5 -3.3e-5 -3.4e-5 -3.2e-5 -3.3e-5 -3.2e-5 -3.2e-5 -3.2e-5 -3.2e-5 -3.1e-5 -3.1e-5 -3.1e-5 -3e-5 -3e-5 -3e-5 -3e-5 -3e-5 -2.9e-5 -2.9e-5 -2.8e-5 -2.9e-5 -2.8e-5 -2.8e-5 -2.8e-5 -2.7e-5 -2.7e-5 -2.7e-5 -2.7e-5 -2.6e-5 -2.7e-5 -2.6e-5 -2.5e-5 -2.6e-5 -2.5e-5 -2.5e-5 -2.5e-5 -2.5e-5 -2.4e-5 -2.4e-5 -2.4e-5 -2.3e-5 -2.4e-5 -2.3e-5 -2.3e-5 -2.3e-5 -2.2e-5 -2.3e-5 -2.2e-5 -2.1e-5 -2.2e-5 -2.2e-5 -2.1e-5 -2.1e-5 -2e-5 -2.1e-5 -2e-5 -2e-5 -2e-5 -2e-5 -2e-5 -1.9e-5 -1.9e-5 -1.9e-5 -1.8e-5 -1.9e-5 -1.8e-5 -1.8e-5 -1.8e-5 -1.8e-5 -1.7e-5 -1.7e-5 -1.8e-5 -1.6e-5 -1.7e-5 -1.7e-5 -1.6e-5 -1.6e-5 -1.6e-5 -1.6e-5 -1.5e-5 -1.6e-5 -1.5e-5 -1.5e-5 -1.5e-5 -1.4e-5 -1.5e-5 -1.4e-5 -1.4e-5 -1.4e-5 -1.4e-5 -1.3e-5 -1.4e-5 -1.3e-5 -1.3e-5 -1.3e-5 -1.3e-5 -1.2e-5 -1.3e-5 -1.2e-5 -1.2e-5 -1.2e-5 -1.2e-5 -1.1e-5 -1.2e-5 -1.1e-5 -1.1e-5 -1.1e-5 -1.1e-5 -1e-5 -1.1e-5 -1e-5 -1e-5 -1e-5 -1e-5 -1e-5 -9e-6 -1e-5 -9e-6 -9e-6 -9e-6 -9e-6 -9e-6 -9e-6 -8e-6 -8e-6 -9e-6 -8e-6 -7e-6 -8e-6 -8e-6 -7e-6 -8e-6 -7e-6 -7e-6 -7e-6 -7e-6 -7e-6 -7e-6 -6e-6 -6e-6 -7e-6 -6e-6 -6e-6 -6e-6 -6e-6 -5e-6 -6e-6 -6e-6 -5e-6 -5e-6 -5e-6 -5e-6 -5e-6 -5e-6 -5e-6 -5e-6 -4e-6 -5e-6 -4e-6 -4e-6 -4e-6 -4e-6 -4e-6 -4e-6 -4e-6 -4e-6 -3e-6 -4e-6 -3e-6 -3e-6 -4e-6 -3e-6 -3e-6 -3e-6 -3e-6 -3e-6 -2e-6 -3e-6 -3e-6 -2e-6 -3e-6 -2e-6 -2e-6 -3e-6 -2e-6 -2e-6 -2e-6 -2e-6 -2e-6 -2e-6 -3e-6 -3e-6 -3e-6 -3e-6 -3e-6 -2e-6 -2e-6 -2e-6 -3e-6 -2e-6 -2e-6 -2e-6 -2e-6 z M 5.0348,15.6099 C 4.47126,15.9062 3.95645,16.3742 3.59586,17.0357 3.21835,16.3471 2.69125,15.9044 2.1571,15.6159 2.71931,15.3204 3.23306,14.8541 3.59362,14.1953 3.9598,14.8822 4.49937,15.323 5.0348,15.6099 Z"
         style="color:#000000;font-style:normal;font-variant:normal;font-weight:normal;font-stretch:normal;font-size:medium;line-height:normal;font-family:sans-serif;font-variant-ligatures:normal;font-variant-position:normal;font-variant-caps:normal;font-variant-numeric:normal;font-variant-alternates:normal;font-variant-east-asian:normal;font-feature-settings:normal;font-variation-settings:normal;text-indent:0;text-align:start;text-decoration:none;text-decoration-line:none;text-decoration-style:solid;text-decoration-color:#000000;letter-spacing:normal;word-spacing:normal;text-transform:none;writing-mode:lr-tb;direction:ltr;text-orientation:mixed;dominant-baseline:auto;baseline-shift:baseline;text-anchor:start;white-space:normal;shape-padding:0;shape-margin:0;inline-size:0;clip-rule:nonzero;display:inline;overflow:visible;visibility:visible;isolation:auto;mix-blend-mode:normal;color-interpolation:sRGB;color-interpolation-filters:linearRGB;solid-color:#000000;solid-opacity:1;vector-effect:none;fill:#ffffff;fill-opacity:1;fill-rule:nonzero;stroke:none;stroke-width:0.3;stroke-linecap:butt;stroke-linejoin:miter;stroke-miterlimit:4;stroke-dasharray:none;stroke-dashoffset:0;stroke-opacity:1.0;color-rendering:auto;image-rendering:auto;shape-rendering:auto;text-rendering:auto;enable-background:accumulate;stop-color:#000000;stop-opacity:1;" />
      <path
         id="path332"
         d="M 3.6210938 11.417969 C 3.2804491 11.417969 2.9980469 11.700317 2.9980469 12.041016 C 2.9980469 13.508202 2.3933966 14.199738 1.7695312 14.566406 C 1.1341731 14.939819 0.44332121 14.964844 0.32226562 14.964844 L 0.3203125 14.964844 L 0.31835938 14.964844 L 0.31640625 14.964844 L 0.31445312 14.964844 L 0.3125 14.964844 L 0.31054688 14.964844 L 0.30859375 14.964844 L 0.30664062 14.964844 L 0.3046875 14.964844 L 0.30273438 14.964844 L 0.30078125 14.964844 L 0.29882812 14.964844 L 0.296875 14.964844 L 0.27539062 14.964844 L 0.25585938 14.96875 C -0.042166326 15.011409 -0.30078125 15.255282 -0.30078125 15.587891 C -0.30078125 15.928589 -0.018414748 16.210938 0.32226562 16.210938 C 0.45746457 16.210938 1.1475196 16.236387 1.7792969 16.609375 C 2.3995182 16.975421 2.9980469 17.666486 2.9980469 19.134766 C 2.9980469 19.459724 3.2602441 19.721501 3.5800781 19.746094 C 3.758169 19.782331 3.9285813 19.72173 4.0371094 19.613281 C 4.1541914 19.496131 4.21875 19.333138 4.21875 19.160156 C 4.21875 17.69297 4.8234003 17.001434 5.4472656 16.634766 C 6.0826351 16.261352 6.7734723 16.234375 6.8945312 16.234375 L 6.9199219 16.234375 C 7.2682783 16.234375 7.5429687 15.938026 7.5429688 15.587891 C 7.5429688 15.247263 7.2606055 14.964844 6.9199219 14.964844 C 6.7988629 14.964844 6.1080257 14.93982 5.4726562 14.566406 C 4.8487909 14.199738 4.2441406 13.508202 4.2441406 12.041016 C 4.2441406 11.700317 3.9617317 11.417969 3.6210938 11.417969 z M 3.6210938 11.71875 C 3.7933558 11.71875 3.9433594 11.868714 3.9433594 12.041016 C 3.9433594 13.593229 4.6228379 14.41624 5.3203125 14.826172 C 6.030843 15.243758 6.7641808 15.265625 6.9199219 15.265625 C 7.0921582 15.265625 7.2421875 15.415718 7.2421875 15.587891 C 7.2421875 15.785555 7.0987855 15.935547 6.9199219 15.935547 L 6.8945312 15.935547 C 6.7387902 15.935547 6.0054524 15.957414 5.2949219 16.375 C 4.5974472 16.784931 3.9179687 17.607943 3.9179688 19.160156 C 3.9179688 19.258374 3.8815899 19.34494 3.8261719 19.400391 C 3.7746296 19.451895 3.7079875 19.479595 3.6347656 19.460938 L 3.6210938 19.457031 L 3.6054688 19.457031 C 3.4403878 19.44858 3.2988281 19.301692 3.2988281 19.134766 C 3.2988281 17.582245 2.6259193 16.761316 1.9316406 16.351562 C 1.2242779 15.93395 0.48935468 15.910156 0.32226562 15.910156 C 0.1500358 15.910156 0 15.760193 0 15.587891 C 0 15.402099 0.1226351 15.290566 0.296875 15.265625 L 0.29882812 15.265625 L 0.30078125 15.265625 L 0.30273438 15.265625 L 0.3046875 15.265625 L 0.30664062 15.265625 L 0.30859375 15.265625 L 0.31054688 15.265625 L 0.3125 15.265625 L 0.31445312 15.265625 L 0.31640625 15.265625 L 0.31835938 15.265625 L 0.3203125 15.265625 L 0.32226562 15.265625 C 0.47800404 15.265625 1.2113532 15.243759 1.921875 14.826172 C 2.6193496 14.41624 3.2988281 13.593229 3.2988281 12.041016 C 3.2988281 11.868714 3.4488184 11.71875 3.6210938 11.71875 z M 3.5957031 13.878906 L 3.4628906 14.123047 C 3.1168292 14.755356 2.6258876 15.199648 2.0878906 15.482422 L 1.8378906 15.613281 L 2.0859375 15.748047 C 2.5999381 16.025664 3.1025999 16.446668 3.4648438 17.107422 L 3.5957031 17.347656 L 3.7285156 17.107422 C 4.0746199 16.472496 4.5662085 16.025722 5.1054688 15.742188 L 5.3554688 15.611328 L 5.1054688 15.478516 C 4.5894389 15.202011 4.0764993 14.78143 3.7265625 14.125 L 3.5957031 13.878906 z M 3.59375 14.396484 C 3.9333751 14.949389 4.3738573 15.340223 4.8300781 15.609375 C 4.3544713 15.890426 3.9271055 16.296274 3.5957031 16.833984 C 3.2500882 16.279311 2.8167921 15.886552 2.3613281 15.615234 C 2.8358469 15.334903 3.2625762 14.932213 3.59375 14.396484 z "
         style="color:#000000;font-style:normal;font-variant:normal;font-weight:normal;font-stretch:normal;font-size:medium;line-height:normal;font-family:sans-serif;font-variant-ligatures:normal;font-variant-position:normal;font-variant-caps:normal;font-variant-numeric:normal;font-variant-alternates:normal;font-variant-east-asian:normal;font-feature-settings:normal;font-variation-settings:normal;text-indent:0;text-align:start;text-decoration:none;text-decoration-line:none;text-decoration-style:solid;text-decoration-color:#000000;letter-spacing:normal;word-spacing:normal;text-transform:none;writing-mode:lr-tb;direction:ltr;text-orientation:mixed;dominant-baseline:auto;baseline-shift:baseline;text-anchor:start;white-space:normal;shape-padding:0;shape-margin:0;inline-size:0;clip-rule:nonzero;display:inline;overflow:visible;visibility:visible;isolation:auto;mix-blend-mode:normal;color-interpolation:sRGB;color-interpolation-filters:linearRGB;solid-color:#000000;solid-opacity:1;vector-effect:none;fill:#ffffff;fill-opacity:1;fill-rule:nonzero;stroke:none;stroke-width:0.3;stroke-linecap:butt;stroke-linejoin:miter;stroke-miterlimit:4;stroke-dasharray:none;stroke-dashoffset:0;stroke-opacity:1.0;color-rendering:auto;image-rendering:auto;shape-rendering:auto;text-rendering:auto;enable-background:accumulate;stop-color:#000000;stop-opacity:1;" />
    </g>
  </g>
  <defs
     id="defs308">
    <clipPath
       id="clip0">
      <rect
         id="rect305"
         fill="white"
         height="20"
         width="20" />
    </clipPath>
  </defs>
</svg>
