<svg width="16" height="16" viewBox="0 0 16 16" fill="none" xmlns="http://www.w3.org/2000/svg">
<path fill-rule="evenodd" clip-rule="evenodd" d="M8 1.33333C6.15905 1.33333 4.66667 2.82572 4.66667 4.66667C4.66667 6.50762 6.15905 8 8 8C9.84095 8 11.3333 6.50762 11.3333 4.66667C11.3333 2.82572 9.84095 1.33333 8 1.33333ZM3.33333 4.66667C3.33333 2.08934 5.42267 0 8 0C10.5773 0 12.6667 2.08934 12.6667 4.66667C12.6667 7.244 10.5773 9.33333 8 9.33333C5.42267 9.33333 3.33333 7.244 3.33333 4.66667Z" fill="#4E4E4E"/>
<path fill-rule="evenodd" clip-rule="evenodd" d="M4.95872 8.55024C5.92453 8.18656 6.95779 8 8 8C9.04221 8 10.0755 8.18656 11.0413 8.55024C12.0071 8.91393 12.8886 9.44844 13.6339 10.126C14.3793 10.8037 14.9744 11.6117 15.3818 12.5057C15.7892 13.4 16 14.361 16 15.3333C16 15.7015 15.7015 16 15.3333 16C14.9651 16 14.6667 15.7015 14.6667 15.3333C14.6667 14.5547 14.4981 13.7819 14.1685 13.0585C13.8387 12.3349 13.3535 11.673 12.737 11.1126C12.1204 10.552 11.385 10.1044 10.5714 9.79804C9.75778 9.49166 8.88384 9.33333 8 9.33333C7.11616 9.33333 6.24222 9.49166 5.42859 9.79804C4.61499 10.1044 3.87961 10.552 3.263 11.1126C2.64651 11.673 2.16126 12.3349 1.83154 13.0585C1.50193 13.7819 1.33333 14.5547 1.33333 15.3333C1.33333 15.7015 1.03486 16 0.666667 16C0.298477 16 0 15.7015 0 15.3333C0 14.361 0.210766 13.4 0.618221 12.5057C1.02558 11.6117 1.62066 10.8037 2.3661 10.126C3.11142 9.44844 3.99287 8.91393 4.95872 8.55024Z" fill="#4E4E4E"/>
</svg>
