<svg width="16" height="16" viewBox="0 0 16 16" fill="none" xmlns="http://www.w3.org/2000/svg">
<path fill-rule="evenodd" clip-rule="evenodd" d="M6.66667 1.33333C3.72115 1.33333 1.33333 3.72115 1.33333 6.66667C1.33333 9.61219 3.72115 12 6.66667 12C9.61219 12 12 9.61219 12 6.66667C12 3.72115 9.61219 1.33333 6.66667 1.33333ZM0 6.66667C0 2.98477 2.98477 0 6.66667 0C10.3486 0 13.3333 2.98477 13.3333 6.66667C13.3333 10.3486 10.3486 13.3333 6.66667 13.3333C2.98477 13.3333 0 10.3486 0 6.66667Z" fill="white"/>
<path fill-rule="evenodd" clip-rule="evenodd" d="M10.8619 10.8619C11.1223 10.6016 11.5444 10.6016 11.8047 10.8619L15.8047 14.8619C16.0651 15.1223 16.0651 15.5444 15.8047 15.8047C15.5444 16.0651 15.1223 16.0651 14.8619 15.8047L10.8619 11.8047C10.6016 11.5444 10.6016 11.1223 10.8619 10.8619Z" fill="white"/>
</svg>
