<svg width="20" height="20" viewBox="0 0 20 20" fill="none" xmlns="http://www.w3.org/2000/svg">
<path d="M17.371 0.745146C17.371 0.333681 17.0378 0 16.6259 0H1.5137C1.35946 0 1.21599 0.0469839 1.09711 0.127616C1.01781 0.181244 0.949609 0.249442 0.895981 0.328745C0.815539 0.447533 0.768555 0.591095 0.768555 0.745146V1.7459V4.18104C0.768555 4.33528 0.815539 4.47889 0.895981 4.59764C0.949609 4.67694 1.01781 4.74514 1.09711 4.79886C1.21599 4.87921 1.35946 4.92619 1.5137 4.92619H16.6259C17.0379 4.92619 17.371 4.5927 17.371 4.18104V3.02168H18.1145V5.49669L9.21355 7.12171C8.94779 7.17012 8.7553 7.40158 8.7553 7.67176V10.0658H8.18731C7.77566 10.0658 7.44217 10.3992 7.44217 10.8109V19.2549C7.44217 19.6664 7.77566 20 8.18731 20H10.441C10.8526 20 11.1862 19.6664 11.1862 19.2549V10.8109C11.1862 10.3996 10.8526 10.0658 10.441 10.0658H9.87332V8.13809L18.7741 6.51301C19.04 6.46441 19.2324 6.23324 19.2324 5.96311V2.46319C19.2324 2.15462 18.9821 1.90432 18.6736 1.90432H17.3718V0.758292V0.745193H17.371V0.745146ZM10.5907 2.38683C11.3113 2.38683 11.3113 3.50443 10.5907 3.50443C9.86952 3.50448 9.86952 2.38683 10.5907 2.38683ZM16.3632 0.697118C16.2927 0.893264 16.1278 1.05828 15.8684 1.08281C15.646 1.10251 15.4296 1.14612 15.2164 1.20084C15.151 1.72203 15.0011 2.22965 14.9988 2.75943C14.9975 3.27948 14.1947 3.57002 13.9576 3.04138C13.4125 1.8262 12.9338 1.55526 11.6663 1.56902C10.8861 1.57724 10.1889 1.44568 9.4788 1.17669C9.15385 1.21854 8.82686 1.25086 8.51572 1.24104C8.29139 2.00218 8.64419 2.63751 8.33534 3.40458C8.16591 3.82558 7.57268 3.99971 7.31384 3.53793C6.98291 2.94779 6.96322 2.38711 6.77732 2.04114C6.74296 2.28764 6.56566 2.51079 6.24374 2.51079C5.78264 2.51079 5.61777 2.05367 5.74719 1.72398C5.63547 1.74182 5.51573 1.76531 5.37919 1.79948C4.70557 1.96796 4.13611 1.7991 3.57364 1.65122V2.69384C3.57364 2.99852 3.31945 3.25271 3.01476 3.25271C2.70999 3.25271 2.45589 2.99852 2.45589 2.69384V1.51758C2.45589 1.50799 2.45846 1.49869 2.45879 1.48887C2.13849 1.50524 1.80206 1.59432 1.43388 1.81382C1.40118 1.83323 1.36492 1.84818 1.32747 1.85966V0.745146C1.32747 0.642351 1.41086 0.558871 1.51375 0.558871H16.626C16.7192 0.558871 16.7926 0.628208 16.8069 0.717382C16.6594 0.709504 16.5118 0.702053 16.3632 0.697118Z" fill="#4E4E4E"/>
</svg>
