<svg width="20" height="20" viewBox="0 0 20 20" fill="none" xmlns="http://www.w3.org/2000/svg">
<path d="M19.1667 0.83332C18.8623 0.83332 18.607 1.00555 18.4615 1.25H17.5V0.41668C17.5 0.186367 17.3136 0 17.0833 0H11.25C11.0197 0 10.8333 0.186367 10.8333 0.41668V1.25H9.16664V0.41668C9.16668 0.186367 8.98031 0 8.75 0H2.91668C2.68637 0 2.5 0.186367 2.5 0.41668V1.25H1.53855C1.39309 1.00555 1.1377 0.83332 0.833359 0.83332C0.373945 0.83332 0 1.20727 0 1.66668C0 2.12605 0.373945 2.5 0.83332 2.5C1.1377 2.5 1.39305 2.32777 1.53852 2.08332H2.5V19.5833C2.5 19.8136 2.68637 20 2.91668 20C4.48445 20 5.27508 19.5483 6.04004 19.1117C6.74113 18.7113 7.40355 18.3333 8.75 18.3333C8.98031 18.3333 9.16668 18.147 9.16668 17.9166V2.08332H10.8334V17.9166C10.8334 18.147 11.0197 18.3333 11.25 18.3333C12.5965 18.3333 13.2589 18.7113 13.96 19.1117C14.725 19.5483 15.5156 20 17.0834 20C17.3137 20 17.5 19.8136 17.5 19.5833V2.08332H18.4615C18.6069 2.32777 18.8623 2.5 19.1667 2.5C19.6261 2.5 20 2.12605 20 1.66668C20 1.20727 19.6261 0.83332 19.1667 0.83332ZM7.08332 2.08332H4.58332C4.35301 2.08332 4.16664 1.89695 4.16664 1.66664C4.16664 1.43633 4.35301 1.24996 4.58332 1.24996H7.08332C7.31363 1.25 7.5 1.43637 7.5 1.66668C7.5 1.89699 7.31363 2.08332 7.08332 2.08332ZM15.4167 2.08332H12.9167C12.6864 2.08332 12.5 1.89695 12.5 1.66664C12.5 1.43637 12.6864 1.25 12.9167 1.25H15.4167C15.647 1.25 15.8334 1.43637 15.8334 1.66668C15.8333 1.89699 15.647 2.08332 15.4167 2.08332Z" fill="#4E4E4E"/>
</svg>
