<svg width="20" height="20" viewBox="0 0 20 20" fill="none" xmlns="http://www.w3.org/2000/svg">
<g clip-path="url(#clip0)">
<path d="M3.47608 18.8257C3.60871 18.9582 3.82346 18.9579 3.95586 18.8254L4.51506 18.2657L6.07195 16.7071L6.63137 16.147C6.76377 16.0145 6.76366 15.7996 6.63114 15.6672L6.07106 15.1078C5.03604 14.0738 4.46554 12.6986 4.46476 11.235C4.46399 9.7715 5.0329 8.39543 6.06667 7.36063C7.09899 6.32764 8.47436 5.75873 9.93968 5.75873C10.8879 5.75873 11.7998 5.99746 12.6056 6.44604C12.7694 6.53717 12.7894 6.72771 12.657 6.86023L12.0892 7.42892L10.7211 8.79923C10.5887 8.93186 10.6319 9.05987 10.8175 9.08533L12.7361 9.34815L18.5461 10.1441L19.7114 10.3038C19.8971 10.3292 20.0245 10.1997 19.9961 10.0145L19.8174 8.85204L18.9364 3.11974L18.6486 1.24759C18.6201 1.06238 18.4897 1.01973 18.3573 1.15225L17.0186 2.49226L16.3332 3.17831C16.2008 3.31083 15.9746 3.32362 15.8236 3.21268C14.1293 1.9671 12.0869 1.29371 9.94215 1.29371C7.28114 1.29371 4.78309 2.32781 2.90843 4.20509C1.0314 6.08289 -0.00147659 8.58042 1.5844e-06 11.2376C0.00147976 13.8948 1.03705 16.3911 2.91615 18.2669L3.47608 18.8257Z" fill="#4E4E4E"/>
</g>
<defs>
<clipPath id="clip0">
<rect width="20" height="20" fill="white"/>
</clipPath>
</defs>
</svg>
