<svg width="22" height="24" viewBox="0 0 22 24" fill="none" xmlns="http://www.w3.org/2000/svg">
<path fill-rule="evenodd" clip-rule="evenodd" d="M0.965926 4.05295C0.43246 4.19589 0.115877 4.74423 0.258819 5.27769C0.401761 5.81116 0.950098 6.12774 1.48356 5.9848L1.97916 5.85201C2.51262 5.70906 3.06096 6.02565 3.2039 6.55911L5.71708 15.9384C4.42528 16.7306 3.74975 18.3041 4.16195 19.8425C4.66412 21.7166 6.59047 22.8288 8.46457 22.3266C10.0032 21.9143 11.0283 20.5421 11.0681 19.027L18.7371 16.9721C19.2706 16.8291 19.5871 16.2808 19.4442 15.7473C19.3013 15.2139 18.7529 14.8973 18.2195 15.0402L10.5503 17.0952C9.93083 16.0849 8.83352 15.4516 7.64886 15.4205L5.13575 6.04148C4.70693 4.44108 3.06192 3.49133 1.46152 3.92015L0.965926 4.05295ZM9.0163 18.5415L9.01027 18.5179C8.78421 17.7251 7.96293 17.2576 7.16371 17.4717C6.35654 17.688 5.87752 18.5177 6.0938 19.3249C6.31009 20.132 7.13976 20.6111 7.94694 20.3948C8.74627 20.1806 9.22378 19.3649 9.02295 18.5652L9.0163 18.5415ZM8.91608 4.95806C7.31568 5.38689 6.36593 7.0319 6.79476 8.6323L8.1444 13.6692C8.57322 15.2696 10.2182 16.2194 11.8186 15.7905L16.8556 14.4409C18.456 14.0121 19.4057 12.3671 18.9769 10.7667L17.6272 5.72974C17.1984 4.12934 15.5534 3.17959 13.953 3.60842L8.91608 4.95806ZM12.5936 7.24354C12.4788 7.17724 12.3423 7.15927 12.2142 7.19359C12.0861 7.22791 11.9769 7.31171 11.9106 7.42656L10.7259 9.47847C10.5879 9.71762 10.6698 10.0234 10.9089 10.1615C11.1481 10.2996 11.4539 10.2176 11.592 9.97847L12.1731 8.97194L12.9447 11.8517C13.0162 12.1184 13.2903 12.2767 13.5571 12.2053C13.8238 12.1338 13.9821 11.8596 13.9106 11.5929L13.139 8.71312L14.1455 9.29424C14.3847 9.43231 14.6905 9.35038 14.8285 9.11123C14.9666 8.87208 14.8847 8.56629 14.6455 8.42822L12.5936 7.24354Z" fill="#4E4E4E"/>
</svg>
