<svg width="20" height="20" viewBox="0 0 20 20" fill="none" xmlns="http://www.w3.org/2000/svg">
<g clip-path="url(#clip0)">
<path d="M3.50571 13.7746L4.31686 13.299C4.67773 13.0873 5.12466 13.0898 5.48309 13.3054L6.24207 13.7616C6.60873 13.9821 7.02103 14.0924 7.43362 14.0924C7.83752 14.0924 8.24173 13.9865 8.60321 13.7746L9.41437 13.299C9.77524 13.0873 10.2222 13.0898 10.5807 13.3054L11.3396 13.7616C12.0656 14.198 12.9703 14.2029 13.7009 13.7746L14.512 13.299C14.8729 13.0873 15.3197 13.0898 15.6783 13.3054L16.4371 13.7616C17.1631 14.198 18.0678 14.2029 18.7984 13.7746L19.6103 13.2985L19.0176 12.2876L18.2056 12.7637C17.8453 12.975 17.399 12.9726 17.041 12.7573L16.282 12.301C15.6693 11.9325 14.9287 11.8713 14.2731 12.119V3.15155C14.2731 2.05994 15.1611 1.17188 16.2527 1.17188H17.2462V0H16.2526C14.5149 0 13.1012 1.41373 13.1012 3.15155V4.1095H8.18619V3.15155C8.18619 2.05994 9.07425 1.17188 10.1659 1.17188H11.1594V0H10.1659C8.42804 0 7.01431 1.41373 7.01431 3.15155V12.84C6.95663 12.8171 6.90018 12.7899 6.84586 12.7573L6.08704 12.301C5.36072 11.8643 4.45526 11.8593 3.72421 12.2881L2.9129 12.7637C2.55264 12.975 2.10632 12.9726 1.74835 12.7573L0.994415 12.3041L0.390625 13.3084L1.14456 13.7616C1.87042 14.198 2.77512 14.2029 3.50571 13.7746ZM11.9435 12.7573L11.1845 12.301C10.4582 11.8643 9.55276 11.8593 8.82172 12.2881L8.18619 12.6607V9.47464H13.1012V12.7675C12.742 12.9749 12.2992 12.9712 11.9435 12.7573ZM13.101 5.28137V8.30276H8.18619V5.28137H13.101Z" fill="white"/>
<path d="M3.50571 16.7284L4.31686 16.2528C4.67773 16.0411 5.12466 16.0436 5.48309 16.2592L6.24207 16.7154C6.96793 17.1518 7.87262 17.1567 8.60321 16.7284L9.41437 16.2528C9.77524 16.0411 10.2222 16.0436 10.5807 16.2592L11.3396 16.7154C12.0654 17.1518 12.9701 17.1569 13.7009 16.7284L14.512 16.2528C14.8729 16.0411 15.3197 16.0436 15.6783 16.2592L16.4371 16.7154C16.8039 16.9359 17.2162 17.0462 17.6286 17.0462C18.0327 17.0462 18.4369 16.9403 18.7984 16.7284L19.6103 16.2523L19.0175 15.2414L18.2056 15.7175C17.8452 15.9288 17.399 15.9264 17.041 15.7111L16.282 15.2548C15.5557 14.818 14.6504 14.8131 13.9192 15.2419L13.1081 15.7175C12.7478 15.9288 12.3015 15.9264 11.9435 15.7111L11.1847 15.2548C10.4582 14.818 9.55276 14.8131 8.82172 15.2419L8.01056 15.7175C7.6503 15.9288 7.20398 15.9264 6.84601 15.7111L6.08719 15.2548C5.36072 14.818 4.45526 14.8131 3.72421 15.2419L2.91306 15.7175C2.55264 15.9288 2.10648 15.9264 1.7485 15.7111L0.994568 15.2579L0.390625 16.2621L1.14456 16.7154C1.87042 17.1518 2.77512 17.1569 3.50571 16.7284Z" fill="white"/>
<path d="M18.2056 18.6713C17.8452 18.8826 17.399 18.8802 17.041 18.6649L16.282 18.2086C15.5557 17.7718 14.6503 17.7667 13.9192 18.1955L13.1081 18.6713C12.7477 18.8826 12.3015 18.8802 11.9435 18.6649L11.1845 18.2086C10.4582 17.7718 9.55276 17.7669 8.82172 18.1955L8.01056 18.6713C7.6503 18.8824 7.20398 18.8802 6.84601 18.6649L6.08704 18.2086C5.36072 17.7718 4.45526 17.7669 3.72421 18.1955L2.91306 18.6713C2.55264 18.8824 2.10648 18.8802 1.7485 18.6649L0.994568 18.2115L0.390625 19.2159L1.14456 19.6692C1.87027 20.1054 2.77512 20.1105 3.50571 19.6822L4.31686 19.2064C4.67773 18.9948 5.12466 18.9973 5.48309 19.2128L6.24207 19.6692C6.96793 20.1056 7.87262 20.1105 8.60321 19.6822L9.41437 19.2064C9.77524 18.9948 10.2222 18.9973 10.5807 19.2128L11.3396 19.6692C12.0654 20.1054 12.9701 20.1105 13.7009 19.6822L14.512 19.2064C14.8729 18.9948 15.3197 18.9973 15.6783 19.2128L16.4371 19.6692C16.8039 19.8897 17.2162 20 17.6286 20C18.0327 20 18.4369 19.8941 18.7984 19.6822L19.6103 19.2059L19.0175 18.195L18.2056 18.6713Z" fill="white"/>
</g>
<defs>
<clipPath id="clip0">
<rect width="20" height="20" fill="white"/>
</clipPath>
</defs>
</svg>
