<svg width="17" height="21" viewBox="0 0 17 21" fill="none" xmlns="http://www.w3.org/2000/svg">
<path d="M16.8043 18.1528L15.6018 4.61227C15.5761 4.31166 15.3227 4.08405 15.0264 4.08405H12.5528C12.5184 1.82515 10.6718 0 8.40429 0C6.13681 0 4.29018 1.82515 4.25583 4.08405H1.78221C1.4816 4.08405 1.23252 4.31166 1.20675 4.61227L0.00429458 18.1528C0.00429458 18.1699 0 18.1871 0 18.2043C0 19.746 1.41288 21 3.15215 21H13.6564C15.3957 21 16.8086 19.746 16.8086 18.2043C16.8086 18.1871 16.8086 18.1699 16.8043 18.1528ZM8.40429 1.15951C10.0319 1.15951 11.3589 2.46503 11.3933 4.08405H5.41534C5.44969 2.46503 6.77669 1.15951 8.40429 1.15951ZM13.6564 19.8405H3.15215C2.06135 19.8405 1.17669 19.119 1.15951 18.2301L2.31043 5.24785H4.25153V7.00859C4.25153 7.33067 4.5092 7.58834 4.83129 7.58834C5.15337 7.58834 5.41104 7.33067 5.41104 7.00859V5.24785H11.3933V7.00859C11.3933 7.33067 11.6509 7.58834 11.973 7.58834C12.2951 7.58834 12.5528 7.33067 12.5528 7.00859V5.24785H14.4939L15.6491 18.2301C15.6319 19.119 14.7429 19.8405 13.6564 19.8405Z" fill="white"/>
</svg>
