<svg width="20" height="28" viewBox="0 0 20 28" fill="none" xmlns="http://www.w3.org/2000/svg">
<path d="M8.97229 26.5129C1.40469 15.3808 0 14.2383 0 10.1471C0 4.54298 4.47714 0 10 0C15.5229 0 20 4.54298 20 10.1471C20 14.2383 18.5953 15.3808 11.0277 26.5129C10.5311 27.2408 9.46885 27.2408 8.97229 26.5129ZM10 14.375C12.3012 14.375 14.1667 12.4821 14.1667 10.1471C14.1667 7.81202 12.3012 5.91912 10 5.91912C7.6988 5.91912 5.83333 7.81202 5.83333 10.1471C5.83333 12.4821 7.6988 14.375 10 14.375Z" fill="#D9567E"/>
</svg>
