<svg width="9" height="11" viewBox="0 0 9 11" fill="none" xmlns="http://www.w3.org/2000/svg">
<path d="M8.13393 9.594C8.1806 9.65933 8.20393 9.71533 8.20393 9.762C8.20393 9.846 8.17593 9.916 8.11993 9.972C8.06393 10.0187 7.99393 10.042 7.90993 10.042C7.80726 10.042 7.7326 10.0047 7.68593 9.93L4.47993 5.562L1.28793 9.93C1.24126 10.0047 1.17126 10.042 1.07793 10.042C0.99393 10.042 0.928596 10.0187 0.88193 9.972C0.835263 9.916 0.81193 9.86 0.81193 9.804C0.81193 9.75733 0.835263 9.69667 0.88193 9.622L4.17193 5.128L0.85393 0.606C0.816596 0.559333 0.79793 0.503333 0.79793 0.438C0.79793 0.354 0.82593 0.288666 0.88193 0.242C0.93793 0.186 1.00326 0.158 1.07793 0.158C1.18993 0.158 1.26926 0.195333 1.31593 0.269999L4.52193 4.652L7.71393 0.255999C7.76993 0.181333 7.83993 0.143999 7.92393 0.143999C8.00793 0.143999 8.07326 0.167333 8.11993 0.213999C8.17593 0.251333 8.20393 0.302666 8.20393 0.368C8.20393 0.433333 8.1806 0.498666 8.13393 0.564L4.84393 5.1L8.13393 9.594Z" fill="#545454"/>
</svg>
