<svg width="16" height="16" viewBox="0 0 16 16" fill="none" xmlns="http://www.w3.org/2000/svg">
<g clip-path="url(#clip0)">
<path d="M4.58496 12.7963C4.58496 13.7341 4.95757 14.6086 5.63413 15.2588L6.40547 16V13.552H9.59486V16L10.3662 15.2588C11.0428 14.6086 11.4154 13.7342 11.4154 12.7963C11.4154 11.0677 10.1242 9.63598 8.45579 9.41245V6.5876C10.1242 6.36407 11.4154 4.9323 11.4154 3.2037C11.4154 2.26588 11.0428 1.3914 10.3662 0.741215L9.59486 4.55628e-05V2.44804H6.40547V0L5.63413 0.74126C4.95757 1.39144 4.58496 2.26593 4.58496 3.2037C4.58496 4.9323 5.87616 6.36407 7.54454 6.5876V9.41245C5.87616 9.63598 4.58496 11.0677 4.58496 12.7963ZM10.4994 12.6407H5.501C5.5816 11.3322 6.67174 10.2924 8.00016 10.2924C9.32859 10.2924 10.4187 11.3322 10.4994 12.6407ZM5.501 3.3593H10.4994C10.4187 4.66781 9.32864 5.70765 8.00016 5.70765C6.67169 5.70765 5.5816 4.66777 5.501 3.3593Z" fill="#4E4E4E"/>
</g>
<defs>
<clipPath id="clip0">
<rect width="16" height="16" fill="white"/>
</clipPath>
</defs>
</svg>
